<svg width="84" height="50" viewBox="0 0 168 100" fill="black" xmlns="http://www.w3.org/2000/svg">
<path d="M47.1259 36.3181C47.1259 38.376 47.3484 40.0445 47.7377 41.2681C48.1826 42.4917 48.7388 43.8265 49.5174 45.2725C49.7955 45.7175 49.9068 46.1624 49.9068 46.5517C49.9068 47.1079 49.5731 47.6641 48.85 48.2202L45.3461 50.5562C44.8456 50.8899 44.345 51.0567 43.9001 51.0567C43.3439 51.0567 42.7877 50.7786 42.2316 50.2781C41.4529 49.4438 40.7855 48.554 40.2293 47.6641C39.6732 46.7186 39.117 45.6618 38.5052 44.3827C34.1671 49.4994 28.7166 52.0578 22.1537 52.0578C17.4818 52.0578 13.7555 50.723 11.0302 48.0534C8.30498 45.3838 6.91455 41.8243 6.91455 37.3749C6.91455 32.6474 8.58307 28.8098 11.9757 25.9177C15.3684 23.0256 19.8734 21.5795 25.602 21.5795C27.493 21.5795 29.4396 21.7464 31.4974 22.0245C33.5553 22.3026 35.6687 22.7475 37.8934 23.2481V19.188C37.8934 14.9611 37.0035 12.0133 35.2794 10.2892C33.4996 8.56507 30.4963 7.73081 26.2138 7.73081C24.2672 7.73081 22.2649 7.95328 20.2071 8.45384C18.1493 8.95439 16.147 9.56619 14.2004 10.3448C13.3105 10.7341 12.6431 10.9566 12.2538 11.0679C11.8645 11.1791 11.5864 11.2347 11.3639 11.2347C10.5853 11.2347 10.196 10.6785 10.196 9.51057V6.78532C10.196 5.89544 10.3072 5.22803 10.5853 4.83871C10.8634 4.44939 11.3639 4.06007 12.1426 3.67075C14.0892 2.66963 16.4251 1.83537 19.1504 1.16796C21.8756 0.444939 24.7677 0.111235 27.8267 0.111235C34.4451 0.111235 39.2839 1.6129 42.3984 4.61624C45.4574 7.61958 47.0147 12.1802 47.0147 18.2981V36.3181H47.1259ZM24.5453 44.772C26.3806 44.772 28.2716 44.4383 30.2738 43.7709C32.2761 43.1035 34.0558 41.8799 35.5575 40.2113C36.4474 39.1546 37.1148 37.9867 37.4485 36.6518C37.7822 35.317 38.0047 33.7041 38.0047 31.8131V29.4772C36.3918 29.0879 34.6676 28.7542 32.8879 28.5317C31.1081 28.3092 29.384 28.198 27.6598 28.198C23.9335 28.198 21.2082 28.921 19.3728 30.4227C17.5375 31.9244 16.6476 34.0378 16.6476 36.8187C16.6476 39.4327 17.315 41.3793 18.7054 42.7141C20.0402 44.1046 21.9869 44.772 24.5453 44.772ZM69.206 50.7786C68.2049 50.7786 67.5375 50.6118 67.0925 50.2225C66.6476 49.8888 66.2583 49.1101 65.9246 48.0534L52.8545 5.06118C52.5208 3.94883 52.3539 3.22581 52.3539 2.83649C52.3539 1.94661 52.7989 1.44605 53.6887 1.44605H59.1392C60.196 1.44605 60.919 1.6129 61.3083 2.00222C61.7533 2.33593 62.087 3.11457 62.4207 4.1713L71.7644 40.99L80.4407 4.1713C80.7188 3.05895 81.0525 2.33593 81.4974 2.00222C81.9424 1.66852 82.721 1.44605 83.7221 1.44605H88.1715C89.2282 1.44605 89.9513 1.6129 90.3962 2.00222C90.8411 2.33593 91.2305 3.11457 91.4529 4.1713L100.24 41.4349L109.862 4.1713C110.196 3.05895 110.585 2.33593 110.975 2.00222C111.42 1.66852 112.143 1.44605 113.144 1.44605H118.316C119.206 1.44605 119.707 1.89099 119.707 2.83649C119.707 3.11457 119.651 3.39266 119.595 3.72636C119.54 4.06007 119.428 4.50501 119.206 5.1168L105.802 48.109C105.468 49.2214 105.079 49.9444 104.634 50.2781C104.189 50.6118 103.466 50.8343 102.521 50.8343H97.7377C96.681 50.8343 95.9579 50.6674 95.513 50.2781C95.0681 49.8888 94.6787 49.1657 94.4563 48.0534L85.8356 12.1802L77.2705 47.9978C76.9924 49.1101 76.6587 49.8332 76.2138 50.2225C75.7688 50.6118 74.9902 50.7786 73.9891 50.7786H69.206ZM140.674 52.2803C137.782 52.2803 134.89 51.9466 132.109 51.2792C129.328 50.6118 127.159 49.8888 125.713 49.0545C124.823 48.554 124.212 47.9978 123.989 47.4972C123.767 46.9967 123.655 46.4405 123.655 45.9399V43.1035C123.655 41.9355 124.1 41.3793 124.935 41.3793C125.268 41.3793 125.602 41.4349 125.936 41.5462C126.269 41.6574 126.77 41.8799 127.326 42.1023C129.217 42.9366 131.275 43.604 133.444 44.049C135.669 44.4939 137.838 44.7164 140.062 44.7164C143.566 44.7164 146.292 44.1046 148.183 42.881C150.074 41.6574 151.075 39.8776 151.075 37.5973C151.075 36.04 150.574 34.7608 149.573 33.7041C148.572 32.6474 146.681 31.7019 143.956 30.812L135.891 28.3092C131.831 27.03 128.828 25.139 126.992 22.6363C125.157 20.1891 124.212 17.4639 124.212 14.5717C124.212 12.2358 124.712 10.178 125.713 8.39822C126.714 6.61847 128.049 5.06118 129.718 3.8376C131.386 2.5584 133.277 1.6129 135.502 0.945495C137.727 0.278087 140.062 0 142.51 0C143.733 0 145.012 0.0556173 146.236 0.222469C147.515 0.389321 148.683 0.611791 149.851 0.83426C150.964 1.11235 152.02 1.39043 153.021 1.72414C154.022 2.05784 154.801 2.39155 155.357 2.72525C156.136 3.17019 156.692 3.61513 157.026 4.11568C157.359 4.56062 157.526 5.17241 157.526 5.95106V8.56507C157.526 9.73304 157.081 10.3448 156.247 10.3448C155.802 10.3448 155.079 10.1224 154.134 9.67742C150.964 8.23137 147.404 7.50834 143.455 7.50834C140.285 7.50834 137.782 8.0089 136.058 9.06563C134.334 10.1224 133.444 11.7353 133.444 14.0156C133.444 15.5729 134 16.9077 135.113 17.9644C136.225 19.0211 138.283 20.0779 141.23 21.0234L149.128 23.5261C153.133 24.8053 156.025 26.5851 157.749 28.8654C159.473 31.1457 160.307 33.7597 160.307 36.6518C160.307 39.0434 159.807 41.2125 158.861 43.1035C157.86 44.9944 156.525 46.663 154.801 47.9978C153.077 49.3882 151.019 50.3893 148.628 51.1124C146.125 51.891 143.511 52.2803 140.674 52.2803Z" />
<path fill-rule="evenodd" clip-rule="evenodd" d="M151.186 79.3103C132.888 92.8253 106.303 100 83.4438 100C51.4082 100 22.5428 88.1535 0.740833 68.4649C-0.983305 66.9077 0.573981 64.7942 2.63182 66.0178C26.2136 79.6996 55.3015 87.9866 85.3904 87.9866C105.691 87.9866 127.993 83.7597 148.516 75.0834C151.575 73.693 154.189 77.0856 151.186 79.3103Z" />
<path fill-rule="evenodd" clip-rule="evenodd" d="M158.806 70.6341C156.47 67.6307 143.344 69.188 137.393 69.911C135.613 70.1335 135.335 68.5762 136.948 67.4083C147.404 60.0668 164.59 62.1802 166.592 64.6274C168.594 67.1302 166.036 84.3159 156.247 92.5473C154.746 93.8265 153.299 93.1591 153.967 91.4906C156.192 85.9845 161.142 73.5818 158.806 70.6341Z" />
</svg>
