<svg width="109" height="38" viewBox="0 0 173 60" fill="black" xmlns="http://www.w3.org/2000/svg">
<path fill-rule="evenodd" clip-rule="evenodd" d="M9.44413 29.3509C9.41421 35.0422 13.5874 38.435 20.2469 36.8924V21.8095C13.5032 19.7558 9.47234 23.9107 9.44413 29.3509ZM20.4506 0H29.6227V43.4148C20.8309 44.8521 12.4106 45.7638 6.38676 42.3955C-1.36948 38.059 -1.99302 24.2782 4.1445 18.1405C7.25633 15.0289 13.521 12.8383 20.2469 14.2678V0.611614C20.2293 0.322188 20.2131 0.0340607 20.4506 0Z" />
<path fill-rule="evenodd" clip-rule="evenodd" d="M44.5019 9.57977H35.3298V0H44.5019V9.57977Z" />
<path fill-rule="evenodd" clip-rule="evenodd" d="M154.568 37.2999C164.567 41.1856 165.673 19.4026 155.587 21.4015C149.323 22.6429 149.524 35.3401 154.568 37.2999ZM154.975 13.86C162.611 13.0436 168.372 16.4132 170.67 21.6054C174.591 30.4644 170.454 40.6298 164.148 43.6186C160.879 45.1677 157.456 45.3152 154.364 45.0453C144.806 44.2117 138.778 34.4712 142.134 23.6435C142.66 21.9488 143.25 20.9122 143.561 20.3824C145.639 16.8499 149.147 14.4833 154.975 13.86Z" />
<path fill-rule="evenodd" clip-rule="evenodd" d="M57.1394 33.8348C54.6025 38.0982 60.9765 39.1196 65.0883 37.9114V31.5927C61.929 32.0338 58.3329 31.8286 57.1394 33.8348ZM73.2414 43.8222C65.6648 44.2581 54.1504 46.839 50.0054 41.7841C47.5703 38.8139 47.8322 33.149 50.0054 30.3697C52.8139 26.7786 58.9447 25.9954 64.4769 25.478C64.9792 24.2413 64.6405 22.2293 64.0693 21.4011C59.009 20.1122 53.9812 22.1095 50.4133 23.6432V16.5096C55.8021 14.0337 68.2841 11.4267 72.0186 17.121C73.9799 20.1117 73.2414 25.3276 73.2414 29.9618V43.8222Z" />
<path fill-rule="evenodd" clip-rule="evenodd" d="M105.446 44.2302H96.2736V32.4082C96.2736 28.5157 96.9033 23.5801 94.8465 22.013C93.2358 20.7851 89.4145 21.4012 87.1015 22.013V44.2302H77.9292V15.8983C87.3055 13.4627 104.23 10.8514 105.446 22.6244C106.045 28.4289 105.002 37.1374 105.446 44.2302Z" />
<path fill-rule="evenodd" clip-rule="evenodd" d="M119.102 34.4464C120.646 36.9436 124.825 37.88 128.274 36.2808C128.085 31.5106 128.018 26.6171 128.07 21.6054C120.144 19.5111 115.42 28.4896 119.102 34.4464ZM142.134 15.0832C141.318 17.5281 140.123 19.5942 139.077 21.8095C138.132 22.0213 137.313 21.4337 136.835 21.8095C136.626 31.7451 138.951 45.2143 135 52.383C132.622 56.6992 128.243 59.4682 121.548 59.9247C116.671 60.2573 112.886 59.4604 109.318 58.0903V49.5296C113.502 51.9725 124.075 53.9642 127.051 48.918C127.927 47.4333 127.871 45.8988 128.274 43.6185C126.358 43.7192 124.498 44.6066 122.16 44.6378C112.547 44.7654 106.6 37.1113 108.911 26.4971C109.805 22.3914 112.21 19.0856 115.433 17.1213C122.127 13.0414 132.417 13.3512 142.134 15.0832Z" />
<path fill-rule="evenodd" clip-rule="evenodd" d="M44.5017 14.4307C44.4913 21.1848 44.4928 26.0381 44.4922 34.2435C44.1025 42.3071 44.1932 48.7285 41.2406 52.5868C40.6583 53.3477 39.4216 54.4577 38.387 55.2367C37.518 55.8909 35.862 57.2174 34.9219 57.2751C33.9743 57.3333 31.5395 55.9594 30.4376 55.4405C28.9907 54.759 27.6532 53.8541 26.1575 53.4024C29.6464 51.2404 32.9582 49.6195 34.3103 45.2493C35.4862 41.4487 35.3296 35.9412 35.3296 30.5739C35.3296 25.274 35.3532 19.1124 35.3532 14.4331L44.5017 14.431V14.4307Z" />
</svg>
