<svg width="160" height="35" viewBox="0 0 229 50" fill="black" xmlns="http://www.w3.org/2000/svg">
<path d="M14.7277 40.2878C12.64 40.2878 10.7421 38.6691 10.7421 36.6906C10.7421 34.7122 12.4502 33.0935 14.7277 33.0935C17.0051 33.0935 18.7132 34.7122 18.7132 36.6906C18.7132 38.6691 16.8153 40.2878 14.7277 40.2878ZM63.6933 20.6835C63.3137 17.8058 61.4158 15.4676 58.9486 13.6691L57.9996 12.9496L57.2405 13.8489C55.7221 15.4676 55.1528 18.3453 55.3426 20.5036C55.5324 22.1223 56.1017 23.741 57.0507 25C56.2915 25.3597 55.3426 25.7194 54.5834 26.0791C52.8753 26.6187 51.1672 26.7986 49.4591 26.7986H0.303663L0.113874 27.8777C-0.265705 31.295 0.303663 34.8921 1.82198 38.1295L2.58113 39.3885V39.5683C7.13608 46.7626 15.297 50 24.2171 50C41.2982 50 55.3426 42.9856 61.9852 27.8777C66.3503 28.0576 70.7155 26.9784 72.8032 23.0216L73.3726 22.1223L72.4236 21.5827C69.9563 20.1439 66.5401 19.964 63.6933 20.6835V20.6835ZM39.2105 17.8058H31.8087V24.8201H39.2105V17.8058ZM39.2105 8.99281H31.8087V16.0072H39.2105V8.99281ZM39.2105 0H31.8087V7.01439H39.2105V0ZM48.3204 17.8058H40.9186V24.8201H48.3204V17.8058ZM20.8009 17.8058H13.3991V24.8201H20.8009V17.8058ZM30.1006 17.8058H22.6988V24.8201H30.1006V17.8058ZM11.691 17.8058H4.28924V24.8201H11.691V17.8058ZM30.1006 8.99281H22.6988V16.0072H30.1006V8.99281ZM20.8009 8.99281H13.3991V16.0072H20.8009V8.99281Z" />
<path d="M191.611 35.971C194.838 33.2732 198.064 30.7552 201.291 28.0574C202.429 27.1581 203.568 26.2588 204.707 25.1797C203.758 24.1005 202.429 23.3811 201.101 22.8415C198.634 21.9423 196.166 22.302 193.699 23.561C190.663 25.1797 189.334 27.8775 189.524 31.1149C189.524 32.3739 189.903 33.6329 190.663 34.712C191.232 35.2516 191.422 35.6113 191.611 35.971V35.971ZM195.407 38.489C196.926 39.0286 198.823 39.0286 200.532 38.6689C201.291 38.3092 203.568 37.4099 204.327 37.5897H204.707C205.276 37.7696 205.656 38.1293 205.846 38.6689C206.415 39.748 206.225 40.8272 205.086 41.3667L204.707 41.5466C200.532 43.8847 196.166 43.525 191.991 41.3667C190.093 40.2876 188.575 38.8487 187.436 37.0502L187.246 36.6905C184.589 32.3739 184.969 27.6977 188.005 23.561C188.954 22.1221 190.473 21.043 191.991 20.1437L192.56 19.784C196.546 17.6257 200.721 17.8056 204.707 19.6041C206.795 20.6833 208.692 22.1221 209.831 24.1005L210.021 24.4602C210.97 25.8991 209.831 27.1581 208.503 28.0574L204.517 31.2948C201.101 33.8128 198.254 36.1509 195.407 38.489V38.489ZM226.343 18.7049H226.722C228.051 18.7049 229 19.6041 229 20.8631C229 22.6617 227.292 23.0214 225.774 23.0214C223.876 23.0214 221.978 24.1005 220.649 25.3595C218.941 26.9782 218.182 28.9567 218.182 31.1149V41.1869C218.182 42.266 217.423 43.3451 216.094 43.3451H215.715C214.386 43.3451 213.627 42.4459 213.627 41.1869V30.5754C213.627 26.4387 215.715 23.2013 219.131 20.8631C221.598 19.4243 223.876 18.7049 226.343 18.7049V18.7049ZM172.063 25.7192L177.187 20.8631C177.757 20.5034 179.465 18.525 180.224 18.525H180.983C181.932 18.7049 182.691 19.2444 182.691 20.3236V20.6833C182.691 21.4027 181.742 22.1221 181.363 22.6617C180.414 23.7408 179.275 24.6401 178.326 25.7192L173.012 30.7552L179.845 37.23L181.742 39.0286L182.502 39.748C182.691 40.1077 182.881 40.2876 182.881 40.6473V41.1869C182.691 42.0861 181.932 42.8056 180.983 42.8056H180.604C179.845 42.8056 179.085 42.0861 178.516 41.5466C177.567 40.6473 176.428 39.748 175.479 38.6689L172.063 35.6113V40.6473C172.063 41.7264 171.304 42.8056 169.975 42.8056H169.596C168.267 42.8056 167.508 41.9063 167.508 40.6473V12.9495C167.508 11.8703 168.267 10.971 169.596 10.971H169.975C171.304 10.971 172.063 11.8703 172.063 12.9495V25.7192ZM158.019 23.0214C157.449 22.6617 156.121 22.6617 155.362 22.6617C151.756 22.4818 149.099 24.4602 147.58 27.5178C147.011 28.5969 146.821 29.6761 146.821 30.9351C146.821 34.5322 148.719 37.0502 152.135 38.489C153.274 39.0286 154.982 39.2084 156.311 39.2084C157.449 39.2084 159.157 38.489 160.106 38.1293H161.055C162.004 38.3092 162.763 38.8487 162.763 39.9279V40.2876C162.763 42.8056 157.829 43.3451 156.121 43.525C149.668 43.8847 144.733 40.4674 142.836 34.712C142.456 33.6329 142.456 32.7336 142.456 31.6545V30.7552C142.456 26.2588 144.733 22.6617 148.909 20.5034C150.807 19.4243 152.894 18.8847 155.172 18.8847H156.121C158.398 18.8847 160.676 19.4243 162.574 20.6833L162.763 20.8631L162.953 21.043C163.143 21.4027 163.333 21.7624 163.333 22.1221V22.4818C163.333 23.561 162.574 24.1005 161.435 24.2804H161.245C159.917 23.9207 158.398 23.2013 158.019 23.0214V23.0214ZM118.163 30.7552C118.163 33.8128 119.871 36.1509 122.528 37.7696C123.857 38.489 125.375 38.8487 126.893 38.8487C130.12 38.8487 132.587 37.23 134.295 34.712C135.054 33.4531 135.434 32.0142 135.434 30.5754C135.434 27.6977 133.915 25.3595 131.448 23.7408C130.12 22.8415 128.412 22.4818 126.893 22.4818C123.287 22.4818 120.63 24.2804 119.112 27.3379C118.163 28.5969 118.163 29.6761 118.163 30.7552V30.7552ZM126.134 18.525H126.704C131.828 18.525 135.624 20.8631 138.091 24.9998C139.04 26.6185 139.609 28.4171 139.609 30.3955V31.2948C139.609 35.7912 137.332 39.3883 133.156 41.5466C131.258 42.6257 129.171 43.1653 126.893 43.1653H125.944C121.2 43.1653 117.404 41.007 115.126 37.0502C113.988 35.2516 113.418 33.2732 113.418 31.1149V30.2156C113.418 25.7192 115.696 22.1221 119.871 19.9638C121.959 19.0646 123.857 18.525 126.134 18.525V18.525ZM89.315 30.7552C89.315 33.9926 91.0231 36.5106 94.0597 37.9495C95.1985 38.489 96.527 38.8487 98.0453 38.8487C101.462 38.8487 103.929 37.4099 105.637 34.712C106.396 33.4531 106.776 32.0142 106.776 30.5754C106.776 27.6977 105.447 25.5394 102.98 23.9207C101.462 23.0214 99.9432 22.4818 98.0453 22.4818C94.4393 22.4818 91.7823 24.2804 90.264 27.3379C89.6946 28.5969 89.315 29.6761 89.315 30.7552V30.7552ZM106.776 21.5826V12.7696C106.776 11.6905 107.535 10.6113 108.863 10.6113H109.243C110.571 10.6113 111.331 11.5106 111.331 12.7696V31.2948C111.331 35.7912 109.053 39.3883 104.878 41.5466C102.98 42.6257 100.892 43.1653 98.6147 43.1653H97.6657C92.921 43.1653 89.1252 41.007 86.8478 37.0502C85.709 35.2516 85.1396 33.2732 85.1396 31.1149V30.2156C85.1396 25.7192 87.4171 22.1221 91.5925 19.9638C93.4904 18.8847 95.5781 18.3451 97.8555 18.3451H98.8045C101.651 18.525 104.498 19.6041 106.776 21.5826V21.5826Z" />
</svg>
