<svg width="139" height="30" viewBox="0 0 177 38" fill="none" xmlns="http://www.w3.org/2000/svg">
<path fill-rule="evenodd" clip-rule="evenodd" d="M162.142 2.8133C161.953 2.85116 161.763 3.26912 161.763 3.49682C161.725 5.0171 161.687 9.04503 161.687 11.7808C161.687 11.857 161.8 12.0089 161.914 12.0089C162.483 12.0468 163.849 12.0847 165.025 12.0847C166.656 12.0847 167.604 11.857 168.135 11.6293C169.5 10.9449 170.145 9.46292 170.145 7.82864C170.145 4.14332 167.566 2.73711 163.735 2.73711C163.47 2.69925 162.711 2.69924 162.142 2.8133ZM171.928 19.7988C171.928 16.0368 169.159 13.9467 164.152 13.9467C163.925 13.9467 162.331 13.9088 161.952 13.9846C161.838 14.0229 161.687 14.0991 161.687 14.2131C161.687 16.9106 161.649 21.2049 161.763 22.8767C161.838 23.5986 162.37 24.6247 163.015 24.9285C163.697 25.3086 165.252 25.3844 166.315 25.3844C169.311 25.3844 171.928 23.7126 171.928 19.7988ZM154.405 0.723566C154.783 0.723566 155.921 0.837206 158.842 0.837206C161.611 0.837206 163.811 0.761425 166.504 0.761425C169.804 0.761425 174.355 1.9391 174.355 6.87908C174.355 9.311 172.648 11.2492 170.411 12.1992C170.298 12.237 170.298 12.3128 170.411 12.3507C173.596 13.1491 176.404 15.1248 176.404 18.8484C176.404 22.4967 174.128 24.8145 170.828 26.2585C168.817 27.1323 166.315 27.4362 163.773 27.4362C161.838 27.4362 156.642 27.2085 153.76 27.2847C153.456 27.1702 154.025 25.8023 154.29 25.5746C154.974 25.5363 155.504 25.4985 156.225 25.2703C157.249 25.0047 157.363 24.7004 157.515 23.1427C157.59 21.8127 157.59 17.1004 157.59 13.7569C157.59 9.15909 157.629 6.04323 157.59 4.52337C157.552 3.34569 157.135 2.96523 156.301 2.73711C155.656 2.62347 154.594 2.47112 153.721 2.35748C153.532 2.16722 154.176 0.875126 154.405 0.723566ZM132.518 24.3586C133.429 25.0801 135.211 25.384 136.805 25.384C138.853 25.384 140.901 25.0047 142.873 23.218C144.884 21.3948 146.287 18.5828 146.287 14.0991C146.287 9.80469 144.656 6.30878 141.318 4.25738C139.422 3.07886 136.995 2.5856 134.187 2.5856C133.353 2.5856 132.556 2.62346 132.064 2.85116C131.949 2.92736 131.684 3.26912 131.684 3.45896C131.608 4.21904 131.608 10.0707 131.608 13.4908C131.608 17.0247 131.608 21.9646 131.684 22.5345C131.684 23.1048 131.949 23.9786 132.519 24.3586H132.518ZM123.908 0.723145C124.629 0.723145 127.398 0.837206 128.725 0.837206C131.115 0.837206 132.822 0.723566 137.335 0.723566C141.129 0.723566 144.315 1.74926 146.59 3.68708C149.359 6.08108 150.801 9.3872 150.801 13.4147C150.801 19.1527 148.183 22.4587 145.566 24.3586C142.95 26.2965 139.536 27.4362 134.68 27.4362C132.102 27.4362 127.663 27.3604 123.984 27.3222H123.946C123.757 26.9804 124.249 25.6504 124.553 25.6125C125.539 25.4985 125.805 25.4601 126.298 25.2707C127.095 24.9664 127.246 24.5485 127.36 23.1427C127.474 20.5206 127.436 17.3668 127.436 13.7947C127.436 11.2492 127.474 6.27092 127.398 4.67492C127.284 3.34532 126.715 3.00314 125.577 2.77502C125.008 2.66132 124.249 2.50898 123.188 2.39534C123.036 2.12894 123.718 0.951266 123.908 0.723566V0.723145Z" fill="black"/>
<path fill-rule="evenodd" clip-rule="evenodd" d="M78.0128 25.8402C77.0648 25.7261 76.382 25.5746 75.5474 25.1945C75.4334 25.1184 75.2438 24.7387 75.2438 24.5863C75.1682 23.2563 75.1682 19.4565 75.1682 16.911C75.1682 14.8587 74.8268 13.0729 73.9544 11.8191C72.9302 10.3746 71.4512 9.53906 69.554 9.53906C67.8854 9.53906 65.6474 10.6789 63.7886 12.2749C63.7508 12.3127 63.4478 12.5792 63.4856 12.1608C63.4856 11.7429 63.5618 10.907 63.5996 10.3367C63.6374 9.80468 63.3338 9.53906 63.3338 9.53906C62.12 10.1469 58.7066 10.9449 57.4544 11.0585C56.5442 11.2492 56.3168 12.123 57.2654 12.4268H57.3032C58.3268 12.7307 59.0096 13.0729 59.5406 13.4151C59.9198 13.719 59.882 14.1369 59.882 14.4791C59.9198 17.3285 59.9198 21.6986 59.8064 24.0926C59.7686 25.0426 59.5028 25.3843 58.82 25.5363L58.8962 25.4984C58.3652 25.6125 57.9476 25.7261 57.3026 25.8023C57.0752 26.0304 57.0752 27.2464 57.3026 27.5124C57.7202 27.5124 59.9198 27.3983 61.7408 27.3983C64.244 27.3983 65.534 27.5124 66.1784 27.5124C66.4442 27.2085 66.5204 26.0683 66.3686 25.8023C65.6474 25.7644 65.1164 25.6887 64.6238 25.5363C63.941 25.3839 63.7508 25.0426 63.713 24.2446C63.6374 22.2302 63.6374 17.9746 63.6374 15.0868C63.6374 14.2888 63.8648 13.9088 64.0922 13.6807C64.9646 12.921 66.3686 12.3889 67.6202 12.3889C68.834 12.3889 69.6302 12.769 70.2368 13.2631C71.0714 13.9467 71.3372 14.9349 71.4506 15.6567C71.6402 17.2906 71.5646 20.5206 71.5646 23.3325C71.5646 24.8523 71.4506 25.2324 70.8824 25.4222C70.6166 25.5363 69.9338 25.6887 69.137 25.764C68.8718 26.0304 68.9474 27.2085 69.137 27.4745C70.2368 27.4745 71.5268 27.3604 73.4234 27.3604C75.7748 27.3604 77.2922 27.4745 77.8994 27.4745C78.0884 27.2464 78.1646 26.1445 78.0128 25.8402ZM88.5194 11.3253C86.5094 11.3253 85.2578 12.883 85.2578 15.3145C85.2578 17.7847 86.3576 20.6346 89.468 20.6346C89.999 20.6346 90.9854 20.4065 91.4396 19.8745C92.1608 19.191 92.654 17.8226 92.654 16.3786C92.654 13.2248 91.0988 11.3249 88.5194 11.3249V11.3253ZM88.2542 28.1202C87.4958 28.1202 86.9642 28.3483 86.6228 28.5385C85.0298 29.5638 84.3092 30.552 84.3092 31.7305C84.3092 32.832 84.7268 33.7057 85.637 34.4659C86.7368 35.4159 88.2542 35.8721 90.188 35.8721C94.0574 35.8721 95.7644 33.7819 95.7644 31.7305C95.7644 30.286 95.0432 29.3361 93.5642 28.8045C92.5022 28.3483 90.5678 28.1202 88.2542 28.1202ZM88.5194 38.0001C86.2058 38.0001 84.5366 37.506 83.0954 36.4041C81.692 35.3401 81.0854 33.7441 81.0854 32.6422C81.0854 32.3383 81.161 31.502 81.8438 30.7423C82.2608 30.286 83.1716 29.4123 85.3334 27.9303C85.409 27.8924 85.4468 27.8545 85.4468 27.778C85.4468 27.7022 85.3712 27.626 85.2956 27.5886C83.513 26.9046 82.982 25.8023 82.8296 25.1945V25.1184C82.7924 24.8902 82.7162 24.6625 83.0576 24.4344C83.3234 24.2446 83.7026 24.0165 84.1196 23.7508C84.7646 23.3704 85.4468 22.9524 85.8644 22.6102C85.9406 22.5345 85.9406 22.4587 85.9406 22.3825C85.9406 22.3064 85.8644 22.2302 85.7882 22.1927C83.1338 21.3186 81.806 19.3425 81.806 16.3786C81.806 14.4408 82.6784 12.6928 84.2336 11.5909C85.2956 10.755 87.9506 9.7289 89.6954 9.7289H89.8094C91.592 9.76682 92.5778 10.1469 93.9812 10.641C94.7402 10.907 95.4608 11.0206 96.4472 11.0206C97.9262 11.0206 98.5712 10.5648 99.1016 10.0332C99.14 10.109 99.2162 10.2992 99.254 10.7929C99.2918 11.287 99.14 12.0089 98.7608 12.5409C98.4572 12.9588 97.7744 13.2631 97.0916 13.2631H96.902C96.2192 13.1869 95.9156 13.1107 95.9156 13.1107L95.7644 13.1869C95.7266 13.2631 95.7644 13.3389 95.8022 13.4529L95.8406 13.5291C95.9162 13.8709 96.0674 14.8966 96.0674 15.163C96.0674 18.2789 94.8158 19.6464 93.4886 20.6725C92.1986 21.6224 90.7196 22.2302 89.0504 22.3825C89.0126 22.3825 88.8614 22.3825 88.5194 22.4205C88.3298 22.4205 88.0646 22.4587 88.0262 22.4587H87.9884C87.6854 22.5345 86.927 22.9146 86.927 23.5602C86.927 24.1301 87.2678 24.8145 88.8986 24.9285C89.24 24.9664 89.5814 24.9664 89.9612 25.0047C92.123 25.1562 94.8158 25.3465 96.0674 25.7644C97.8122 26.41 98.9126 27.9682 98.9126 29.8302C98.9126 32.6426 96.9026 35.2643 93.5642 36.8978C91.9334 37.62 90.302 38.0001 88.5194 38.0001ZM110.14 11.5152C109.344 11.5152 108.622 11.7046 108.091 12.0846C106.612 12.9967 105.854 14.8209 105.854 17.4805C105.854 22.4587 108.357 25.9546 111.922 25.9546C112.984 25.9546 113.819 25.6503 114.54 25.0426C115.639 24.1301 116.209 22.3064 116.209 19.7604C116.209 14.8209 113.743 11.5147 110.14 11.5147V11.5152ZM110.823 27.7783C104.374 27.7783 102.061 23.0286 102.061 18.5827C102.061 15.4669 103.312 13.0729 105.816 11.3628C107.599 10.2609 109.723 9.65312 111.619 9.65312C116.55 9.65312 120.002 13.1869 120.002 18.2789C120.002 21.7365 118.636 24.4723 116.019 26.1445C114.767 26.9803 112.605 27.7783 110.822 27.7783H110.823ZM43.2308 11.5147C42.4346 11.5147 41.714 11.7046 41.1824 12.0846C39.7034 12.9967 38.945 14.8209 38.945 17.4805C38.945 22.4587 41.4476 25.9546 45.0134 25.9546C46.0754 25.9546 46.91 25.6503 47.6312 25.0426C48.7304 24.1301 49.2998 22.3064 49.2998 19.7604C49.2998 14.8209 46.8722 11.5147 43.2308 11.5147ZM43.9136 27.7783C37.4654 27.7783 35.1518 23.0286 35.1518 18.5827C35.1518 15.4669 36.4034 13.0729 38.9066 11.3628C40.6898 10.2609 42.8138 9.65312 44.7104 9.65312C49.6412 9.65312 53.0924 13.1869 53.0924 18.2789C53.0924 21.7365 51.7274 24.4723 49.1096 26.1445C47.8958 26.9803 45.734 27.7783 43.9136 27.7783ZM0.559255 27.3983C0.483235 27.2847 0.407214 26.9425 0.445434 26.5245C0.445434 26.2203 0.521455 26.0304 0.559255 25.9546C1.35587 25.8402 1.77305 25.7261 2.22803 25.6125C2.98679 25.4222 3.29015 25.0047 3.32795 24.0547C3.44219 21.7748 3.44219 17.4426 3.40397 14.4408V14.3646C3.40397 14.0229 3.40397 13.6045 2.98679 13.3006C2.37971 12.921 1.65917 12.5792 0.710935 12.3123C0.369775 12.1991 0.142074 12.0089 0.179874 11.7811C0.179874 11.553 0.407634 11.287 0.900834 11.2108C2.15243 11.0968 5.41391 10.2992 6.70373 9.7289C6.77975 9.80468 6.89363 10.0332 6.89363 10.3371L6.85578 10.7546C6.81756 11.173 6.77976 11.6671 6.77976 12.1608C6.77976 12.3127 6.93186 12.4268 7.08312 12.4268C7.15914 12.4268 7.23516 12.3889 7.31082 12.3507C9.73836 10.4508 11.9381 9.76682 13.0759 9.76682C14.935 9.76682 16.3764 10.641 17.4763 12.4647C17.552 12.5792 17.628 12.6171 17.7419 12.6171C17.8175 12.6171 17.9309 12.5792 17.9692 12.503C20.2072 10.7929 22.4452 9.76682 23.9241 9.76682C27.4514 9.76682 29.5382 12.3889 29.5382 16.8348C29.5382 18.0886 29.5382 19.7225 29.5004 21.2049C29.5004 22.5345 29.4626 23.7504 29.4626 24.6246C29.4626 24.814 29.7272 25.4222 30.1448 25.5363C30.6758 25.8023 31.3964 25.9164 32.345 26.0683H32.3828C32.4584 26.3343 32.3072 27.3221 32.1554 27.5124C31.9274 27.5124 31.586 27.5124 31.2074 27.4745C30.2468 27.4243 29.2856 27.3989 28.3244 27.3983C25.9727 27.3983 24.7589 27.4362 23.5825 27.5124C23.5073 27.2085 23.4691 26.2964 23.5825 26.0683C24.2657 25.9546 24.6068 25.8402 25.0244 25.7265C25.7832 25.4984 25.9727 25.1562 26.0109 24.1684C26.0109 23.4466 26.1622 17.2906 25.9345 15.8087C25.7071 14.2888 24.569 12.503 22.0655 12.503C21.1172 12.503 19.6384 12.883 18.1969 13.9845C18.1213 14.0607 18.0448 14.2506 18.0448 14.3646V14.4029C18.1969 15.2005 18.1969 16.113 18.1969 17.5188V19.9885C18.1969 21.6986 18.1586 23.2946 18.1969 24.5101C18.1969 25.3465 18.6901 25.5363 19.1073 25.6887C19.335 25.7261 19.4863 25.7644 19.6762 25.8023C20.0173 25.8784 20.3588 25.9546 20.8899 26.0683C20.966 26.2206 20.9659 26.7144 20.8521 27.1323C20.8139 27.3604 20.7379 27.4741 20.7 27.5124C19.4106 27.4745 18.083 27.4362 16.1487 27.4362C15.5798 27.4362 14.5934 27.4745 13.759 27.4745C13.0759 27.4745 12.4314 27.5124 12.0524 27.5124C12.0142 27.4362 11.9381 27.1706 11.9381 26.7522C11.9381 26.4105 12.0142 26.1445 12.0902 26.0683C12.2797 26.0304 12.4314 25.9925 12.6213 25.9925C13.0759 25.9164 13.4557 25.8402 13.8346 25.7644C14.4799 25.5746 14.7073 25.2324 14.7451 24.3965C14.8589 22.4966 14.9728 17.0629 14.7073 15.6946C14.2522 13.4908 13.0007 12.3889 10.9899 12.3889C9.81437 12.3889 8.33465 12.9588 7.12133 13.8713C6.93143 14.0229 6.77976 14.4025 6.77976 14.7447V16.9867C6.77976 19.7226 6.77975 23.1427 6.81755 24.6246C6.85577 25.08 7.00703 25.6125 7.87967 25.8023C8.06957 25.8402 8.37287 25.9164 8.75225 25.9546L9.43457 26.0683C9.51101 26.2964 9.47279 27.2085 9.32111 27.5124C8.94173 27.5124 8.48675 27.4745 7.95527 27.4745C7.15913 27.4362 6.13488 27.3983 4.99715 27.3983C3.66954 27.3983 2.72129 27.4362 1.96253 27.4745C1.43147 27.3983 1.01429 27.3983 0.559255 27.3983Z" fill="black"/>
</svg>
