<svg width="120" height="25" viewBox="0 0 241 50" fill="black" xmlns="http://www.w3.org/2000/svg">
<path d="M36.6449 46.3762C38.5179 48.7785 41.6938 49.8371 44.3403 49.8371C48.0456 49.8371 50.6921 47.3127 50.6921 44.4218V5.61887C50.6921 2.56512 48.1677 0.203561 45.2768 0.203561H44.9918C41.9381 0.203561 39.5765 2.72799 39.5765 5.61887V33.8355L14.3729 3.62375C12.5 1.22147 9.32405 0.162842 6.67747 0.162842C2.97226 0.162842 0.325684 2.68727 0.325684 5.57815V44.3811C0.325684 47.4348 2.85011 49.7964 5.74099 49.7964H6.02601C9.07975 49.7964 11.4413 47.272 11.4413 44.3811V16.2052L36.6449 46.3762Z" />
<path d="M238.436 40.2687L223.086 24.9186L238.436 9.56841C240.554 7.45114 240.554 3.99022 238.436 1.87296L238.151 1.58795C236.034 -0.529316 232.573 -0.529316 230.456 1.58795L217.101 14.9837L216.165 15.9202L215.635 16.4495C215.35 16.7345 215.106 16.7345 214.821 16.4495L214.169 15.798L213.355 14.9837L200.041 1.62867C197.923 -0.488597 194.463 -0.488597 192.345 1.62867L192.06 1.91368C189.943 4.03094 189.943 7.49185 192.06 9.60911L207.166 24.9593L191.816 40.3094C189.699 42.4267 189.699 45.8876 191.816 48.0049L192.101 48.2899C194.218 50.4072 197.679 50.4072 199.796 48.2899L213.151 34.9349L214.088 33.9984L214.617 33.4691C214.902 33.184 215.147 33.184 215.432 33.4691L215.839 33.8762L217.02 35.057L230.375 48.4121C232.492 50.5293 235.953 50.5293 238.07 48.4121L238.355 48.127C240.554 45.8469 240.554 42.386 238.436 40.2687Z" />
<path d="M148.249 46.3762C146.376 48.7785 143.2 49.8372 140.554 49.8372C136.848 49.8372 134.202 47.3127 134.202 44.4218V5.61892C134.202 2.56517 136.726 0.203613 139.617 0.203613H139.902C142.956 0.203613 145.318 2.72804 145.318 5.61892V33.8355L170.48 3.66453C172.353 1.26225 175.529 0.203613 178.176 0.203613C181.881 0.203613 184.528 2.72804 184.528 5.61892V44.4218C184.528 47.4756 182.003 49.8372 179.112 49.8372H178.827C175.774 49.8372 173.412 47.3127 173.412 44.4218V16.2052L148.249 46.3762Z" />
<path d="M126.669 5.33393C126.669 2.40234 124.43 0.0407715 121.783 0.0407715C119.137 0.0407715 116.897 2.44305 116.897 5.33393V18.0375C116.897 18.3225 117.182 18.5668 117.427 18.5668H126.181C126.466 18.5668 126.71 18.2818 126.71 18.0375C126.669 18.0375 126.669 5.33393 126.669 5.33393Z" />
<path d="M126.669 23.7378C126.669 23.4528 126.384 23.2085 126.14 23.2085H117.386C117.101 23.2085 116.857 23.4935 116.857 23.7378V44.6661C116.857 47.4349 119.096 49.8372 121.743 49.8372C124.389 49.8372 126.629 47.5977 126.629 44.6661C126.669 44.6661 126.669 23.7378 126.669 23.7378Z" />
<path d="M112.378 23.2085H81.1481C78.2165 23.2085 75.8549 25.2036 75.8549 27.9723C75.8549 30.7411 78.2572 32.614 81.1481 32.614H96.9054L92.6709 39.7802C92.3859 40.3095 92.0194 40.4316 91.4901 40.4316H76.1399C75.4885 40.4316 75.2034 40.3095 74.9591 39.7802L67.1416 25.4886C66.8565 25.0815 66.8565 24.6743 67.1416 24.145L74.9591 10.2606C75.2442 9.7313 75.6106 9.60915 76.1399 9.60915H91.4901C92.1416 9.60915 92.4266 9.7313 92.8337 10.2606L97.5976 18.2004C97.8826 18.6075 98.0048 18.7297 98.5341 18.7297H109.405L98.9412 1.09938C98.6562 0.692213 98.4119 0.570068 97.8826 0.570068H69.7474C69.096 0.570068 68.8109 0.855085 68.5666 1.3844L56.2702 24.0228C55.8631 24.6743 55.8631 25.0815 56.2702 25.7329L69.2588 49.0228C69.5438 49.5522 69.9103 49.6743 70.6025 49.6743H97.4754C98.1269 49.6743 98.5341 49.5522 98.8191 48.86C98.7376 48.9007 112.378 23.2085 112.378 23.2085Z" />
</svg>
