<svg width="164" height="25" viewBox="0 0 329 50" fill="black"  xmlns="http://www.w3.org/2000/svg">
<path d="M209.827 2.42566C203.818 5.68073 204.068 16.1971 210.578 18.701C217.589 21.2049 225.101 21.4553 232.112 23.2081C233.865 23.7088 235.617 24.46 236.368 26.2127C238.121 29.7182 236.619 34.9764 232.613 36.2284C226.854 37.9811 220.093 37.9811 214.585 35.7276C210.829 34.2252 209.076 30.4694 208.826 26.9639C207.323 26.9639 205.57 26.9639 204.068 27.2143C204.319 30.7198 205.07 34.4756 207.824 36.7291C212.331 40.2346 218.09 40.7354 223.599 40.9858C228.606 40.9858 234.115 40.485 238.372 37.7307C243.379 34.2252 243.88 24.9608 237.871 21.9561C232.362 19.2018 226.102 18.9514 220.343 17.6995C217.589 16.9483 214.334 16.6979 211.83 14.9452C208.575 11.9405 210.078 5.68073 214.334 4.67916C219.843 3.17682 225.852 2.92644 231.11 4.92956C234.365 5.93112 235.617 9.43658 236.118 12.1909C237.62 12.1909 239.123 12.1909 240.875 12.1909C240.875 9.18619 239.874 5.93112 237.37 3.92799C233.364 0.672919 227.855 0.422534 223.098 0.422534C218.841 0.172144 214.084 0.172142 209.827 2.42566Z" />
<path d="M31.2988 3.67729C28.7949 1.42378 25.039 0.672607 21.784 0.672607C14.5227 0.672607 7.26132 0.922994 0 0.922994C0 13.6929 0 26.7132 0 39.4831C1.25195 39.4831 2.5039 39.4831 3.75586 39.4831C3.75586 33.9745 3.50547 28.4659 3.75586 23.2077C10.0156 23.2077 16.025 23.2077 22.2847 23.2077C26.7918 22.9574 32.05 20.9542 33.8027 16.4472C35.305 12.1906 34.8043 6.68198 31.2988 3.67729ZM29.2957 15.696C28.0437 18.9511 24.2879 19.9527 21.0328 20.2031C15.2738 20.4534 9.51485 20.2031 4.00626 20.2031C4.00626 14.9449 4.00626 9.43627 4.00626 4.17808C9.51485 4.17808 15.0234 4.17808 20.532 4.17808C23.2863 4.17808 26.5414 4.67885 28.2941 6.93237C30.0469 9.18588 30.2972 12.6913 29.2957 15.696Z" />
<path d="M295.21 0.922994C295.21 13.6929 295.21 26.4628 295.21 39.4831C306.227 39.4831 317.495 39.4831 328.512 39.4831C328.512 38.4816 328.512 37.48 328.512 36.228C318.997 35.9777 309.482 36.228 299.717 35.9776C299.717 24.2093 299.717 12.441 299.717 0.672607C298.215 0.922998 296.712 0.922994 295.21 0.922994Z" />
<path d="M254.146 2.92606C259.655 0.171763 265.914 -0.329024 271.924 0.171757C277.683 0.672538 283.442 2.67566 287.198 7.18269C291.955 12.1905 292.957 20.203 290.953 26.7131C289.952 30.469 287.448 33.2233 284.694 35.7272C286.947 37.2295 289.201 38.7319 291.454 40.4846C290.453 41.4862 289.451 42.2373 288.45 43.2389C286.196 41.7366 283.943 39.9838 281.689 38.7319C279.936 38.7319 278.184 39.7334 276.18 40.2342C271.173 41.2358 265.664 41.2358 260.656 40.2342C255.148 39.2327 249.639 35.9776 246.634 30.9698C243.63 26.2124 243.379 19.9526 244.631 14.6944C246.134 9.4362 249.639 5.17957 254.146 2.92606ZM261.658 3.92761C256.4 5.17956 251.392 8.93543 249.639 14.1936C247.886 19.9526 248.387 26.7131 252.644 31.4706C256.4 35.7272 261.908 37.4799 267.417 37.4799C273.426 37.7303 279.936 35.9776 283.943 31.2202C289.451 24.2092 288.7 12.9417 281.439 7.43308C275.93 2.67567 268.418 2.42527 261.658 3.92761Z" />
<path d="M102.911 5.93091C104.163 5.93091 105.415 5.93091 106.917 5.93091C106.917 8.6852 106.917 11.4395 106.917 14.1938C109.171 14.1938 111.424 14.1938 113.678 14.1938C113.678 15.1954 113.678 15.9465 113.928 16.9481C111.674 16.9481 109.421 16.9481 107.167 16.9481C107.167 22.4567 107.167 27.7149 107.167 33.2235C107.167 34.4754 107.167 35.9778 108.419 36.7289C110.172 37.4801 112.175 37.2297 114.178 37.2297C114.178 37.9809 114.178 38.9824 114.178 39.7336C111.174 39.984 108.169 40.2344 105.415 38.9824C103.662 38.2313 103.161 36.2281 103.412 34.4754C103.412 28.7164 103.412 22.7071 103.412 16.9481C101.659 16.9481 99.9062 16.9481 98.4038 16.9481C98.4038 16.1969 98.4038 15.1954 98.4038 14.4442C100.157 14.4442 101.659 14.4442 103.412 14.4442C102.911 11.4395 102.911 8.6852 102.911 5.93091Z" />
<path d="M59.8427 15.696C55.3356 13.1921 49.827 12.9417 44.8192 13.6929C40.5626 14.4441 36.5564 16.6976 34.8036 20.7038C33.0509 24.7101 33.0509 29.4675 35.054 33.4737C37.3075 37.7304 42.065 39.9839 46.572 40.2343C52.331 40.7351 58.8411 39.9839 63.0977 35.4769C67.6048 29.7179 66.6032 19.4519 59.8427 15.696ZM59.0915 34.4753C56.838 36.7288 53.5829 37.7304 50.5782 37.7304C47.0728 37.9808 43.3169 37.2296 40.813 34.9761C37.5579 31.9714 37.0571 26.9636 38.3091 22.707C39.561 18.9511 43.0665 16.6976 46.8224 16.1968C50.3278 15.696 54.3341 15.9464 57.5891 17.9495C60.093 19.4519 61.345 22.2062 61.5954 24.9605C62.0962 28.4659 61.5954 31.9714 59.0915 34.4753Z" />
<path d="M71.1106 15.6956C73.6145 13.9428 76.8696 13.6924 79.8743 13.442C84.1309 13.1917 88.8883 13.1917 92.3938 15.6956C94.3969 16.9475 95.1481 19.4514 95.3985 21.7049C93.8961 21.7049 92.6442 21.7049 91.1418 21.7049C90.8914 19.7018 90.1403 17.9491 88.1371 16.9475C84.6317 15.4452 80.8758 15.4452 77.12 16.1963C74.8665 16.4467 72.1122 17.6987 72.1122 20.453C71.8618 22.2057 73.6145 23.7081 75.3672 23.9584C80.1247 25.2104 85.1325 24.96 89.8899 25.9616C92.1434 26.4623 94.3969 27.4639 95.6489 29.2166C97.4016 31.9709 96.4 36.2276 93.3953 37.7299C89.8899 39.733 85.6332 39.9834 81.627 39.9834C77.8711 39.733 73.6145 39.733 70.3594 37.4795C68.3563 35.9772 67.6051 33.7237 67.3547 31.2198C68.8571 31.2198 70.3594 31.2198 71.6114 31.2198C71.6114 34.4748 74.3657 36.7284 77.3704 36.9787C81.627 37.4795 86.3844 37.9803 90.3907 35.9772C93.145 34.4748 92.8946 29.9678 89.8899 28.9662C83.8805 27.2135 77.3704 27.7143 71.6114 25.7112C67.6051 24.4592 67.6051 17.9491 71.1106 15.6956Z" />
<path d="M125.696 13.9439C129.702 12.9424 134.209 12.9424 138.215 14.1943C140.469 14.9455 142.221 16.6982 143.974 18.2006C143.974 16.6982 144.224 15.4463 144.224 14.1943C145.476 14.1943 146.728 14.1943 147.98 14.1943C148.231 21.9564 147.98 29.7185 148.231 37.4806C148.481 40.7357 147.73 44.2412 145.226 46.4947C141.971 49.4994 137.214 50.0001 132.957 50.0001C129.201 50.0001 125.195 49.7497 121.689 47.997C119.436 46.7451 118.184 44.2412 117.683 41.7373C118.935 41.7373 120.187 41.7373 121.439 41.7373C122.19 43.49 122.941 45.4931 124.694 46.2443C127.448 47.4962 130.453 47.4962 133.458 47.4962C136.713 47.2458 140.469 46.7451 142.472 43.9908C144.475 41.2365 143.974 37.731 143.974 34.4759C139.968 38.7326 133.708 39.4837 128.199 38.7326C124.694 38.2318 121.189 36.9798 118.685 34.2255C115.93 30.7201 115.68 25.9627 116.682 21.9564C117.683 17.9502 121.689 14.9455 125.696 13.9439ZM128.951 16.4478C126.196 16.9486 123.192 18.2006 121.689 20.7045C119.937 23.7091 119.937 27.7154 120.938 30.7201C122.19 33.9752 125.946 35.7279 129.201 36.2287C133.458 36.7294 138.465 36.2287 141.47 32.9736C144.976 28.717 144.475 21.4556 139.968 18.2006C136.963 15.947 132.707 15.947 128.951 16.4478Z" />
<path d="M159.999 14.4436C163.004 13.1917 166.008 13.4421 169.013 13.4421C169.013 14.4436 169.013 15.6956 169.013 16.6972C165.758 16.6972 162.252 16.1964 159.498 18.1995C156.994 19.9522 155.993 23.4577 155.993 26.4624C155.993 30.719 155.993 35.226 155.993 39.4827C154.741 39.4827 153.489 39.4827 152.237 39.4827C151.986 30.9694 151.986 22.7065 152.237 14.1932C153.489 14.1932 154.741 14.1932 156.243 14.1932C156.243 15.6956 156.243 17.1979 156.243 18.4499C157.245 16.9475 158.246 15.1948 159.999 14.4436Z" />
<path d="M170.516 19.7018C173.02 15.4452 178.278 13.6925 183.035 13.4421C188.043 13.1917 193.552 13.9428 197.057 17.6987C199.811 20.2026 200.562 23.9585 200.813 27.7143C191.298 27.7143 182.034 27.7143 172.519 27.7143C172.769 30.2182 173.52 32.9725 175.523 34.7252C179.279 37.9803 184.788 38.4811 189.295 37.2292C192.3 36.478 194.803 34.2245 195.805 31.2198C197.307 31.2198 198.81 31.2198 200.062 31.2198C198.81 35.4764 195.054 38.4811 190.797 39.4827C185.038 40.7346 178.278 40.4842 173.27 36.9788C168.262 33.4733 167.261 25.2104 170.516 19.7018ZM177.777 17.6987C175.023 19.201 173.52 22.2057 173.02 25.2104C181.032 25.2104 189.045 25.2104 197.057 25.2104C196.807 23.4577 196.306 21.4546 195.054 20.2026C190.797 15.1948 183.035 14.694 177.777 17.6987Z" />
</svg>
