<svg width="73" height="70" viewBox="0 0 113 100" fill="black" xmlns="http://www.w3.org/2000/svg">
<path d="M112.642 50.0114C112.642 42.5727 103.325 35.523 89.0404 31.1513C92.3369 16.5942 90.8718 5.01259 84.4162 1.30465C82.9282 0.434881 81.1884 0.0228882 79.2884 0.0228882V5.12703C80.3414 5.12703 81.1884 5.33303 81.8981 5.72213C85.0114 7.50744 86.3621 14.3053 85.309 23.0488C85.0572 25.2003 84.6451 27.4662 84.1415 29.778C79.6547 28.6793 74.7558 27.8325 69.605 27.2831C66.5146 23.0488 63.3097 19.2035 60.0819 15.8389C67.5447 8.90364 74.5497 5.10414 79.3113 5.10414V0C73.016 0 64.7748 4.48615 56.4421 12.2683C48.1093 4.53193 39.8682 0.0915545 33.5728 0.0915545V5.1957C38.3115 5.1957 45.3394 8.97231 52.8022 15.8618C49.5973 19.2264 46.3924 23.0488 43.3478 27.2831C38.1742 27.8325 33.2752 28.6793 28.7884 29.8009C28.2619 27.512 27.8727 25.2918 27.598 23.1632C26.5221 14.4198 27.8498 7.62188 30.9403 5.81369C31.627 5.40169 32.5198 5.21859 33.5728 5.21859V0.114443C31.6499 0.114443 29.9101 0.526436 28.3992 1.3962C21.9665 5.10414 20.5243 16.6629 23.8437 31.1742C9.6048 35.5688 0.333496 42.5956 0.333496 50.0114C0.333496 57.4502 9.65058 64.4999 23.9353 68.8716C20.6388 83.4287 22.1039 95.0103 28.5595 98.7182C30.0475 99.588 31.7873 100 33.7102 100C40.0055 100 48.2467 95.5138 56.5794 87.7317C64.9121 95.4681 73.1533 99.9084 79.4486 99.9084C81.3716 99.9084 83.1114 99.4964 84.6223 98.6267C91.0549 94.9187 92.4971 83.36 89.1778 68.8487C103.371 64.477 112.642 57.4273 112.642 50.0114ZM82.8367 34.7448C81.9897 37.6974 80.9366 40.7416 79.7462 43.7858C78.8076 41.9547 77.8233 40.1236 76.7474 38.2925C75.6943 36.4614 74.5726 34.6761 73.4509 32.9366C76.7016 33.4173 79.8378 34.0124 82.8367 34.7448ZM72.3521 59.1211C70.5665 62.211 68.7351 65.1408 66.8351 67.8645C63.4242 68.162 59.9675 68.3223 56.4879 68.3223C53.0311 68.3223 49.5744 68.162 46.1864 67.8874C44.2864 65.1637 42.4321 62.2568 40.6465 59.1897C38.9067 56.1913 37.3272 53.1472 35.8849 50.0801C37.3043 47.013 38.9067 43.946 40.6236 40.9476C42.4092 37.8576 44.2406 34.9279 46.1406 32.2042C49.5515 31.9066 53.0082 31.7464 56.4879 31.7464C59.9446 31.7464 63.4013 31.9066 66.7893 32.1813C68.6893 34.905 70.5436 37.8119 72.3292 40.8789C74.069 43.8773 75.6485 46.9215 77.0908 49.9886C75.6485 53.0556 74.069 56.1227 72.3521 59.1211ZM79.7462 56.1456C80.9824 59.2126 82.0355 62.2797 82.9053 65.2552C79.9065 65.9876 76.7474 66.6056 73.4738 67.0863C74.5955 65.3239 75.7172 63.5157 76.7703 61.6617C77.8233 59.8306 78.8076 57.9767 79.7462 56.1456ZM56.5336 80.5676C54.4047 78.3703 52.2757 75.9213 50.1696 73.2433C52.2299 73.3349 54.336 73.4035 56.465 73.4035C58.6168 73.4035 60.7458 73.3577 62.829 73.2433C60.7687 75.9213 58.6397 78.3703 56.5336 80.5676ZM39.5019 67.0863C36.2512 66.6056 33.115 66.0105 30.1161 65.2781C30.9631 62.3255 32.0162 59.2813 33.2066 56.2371C34.1451 58.0682 35.1295 59.8993 36.2054 61.7304C37.2814 63.5615 38.3802 65.3468 39.5019 67.0863ZM56.4192 19.4553C58.5481 21.6526 60.6771 24.1016 62.7832 26.7796C60.7229 26.688 58.6168 26.6194 56.4879 26.6194C54.336 26.6194 52.207 26.6651 50.1238 26.7796C52.1841 24.1016 54.3131 21.6526 56.4192 19.4553ZM39.479 32.9366C38.3573 34.699 37.2356 36.5072 36.1825 38.3612C35.1295 40.1923 34.1451 42.0233 33.2066 43.8544C31.9704 40.7874 30.9174 37.7203 30.0475 34.7448C33.0463 34.0352 36.2054 33.4173 39.479 32.9366ZM18.7617 61.593C10.6578 58.1369 5.41554 53.6049 5.41554 50.0114C5.41554 46.4179 10.6578 41.8631 18.7617 38.4298C20.7304 37.583 22.8822 36.8276 25.1028 36.1181C26.4076 40.6043 28.1245 45.2735 30.2535 50.0572C28.1474 54.818 26.4534 59.4644 25.1714 63.9277C22.9051 63.2181 20.7533 62.4399 18.7617 61.593ZM31.0776 94.3008C27.9643 92.5154 26.6136 85.7176 27.6667 76.9741C27.9185 74.8226 28.3306 72.5566 28.8342 70.2449C33.321 71.3436 38.2199 72.1904 43.3707 72.7398C46.4611 76.9741 49.666 80.8194 52.8938 84.184C45.431 91.1192 38.426 94.9187 33.6644 94.9187C32.6343 94.8959 31.7644 94.6899 31.0776 94.3008ZM85.3777 76.8597C86.4536 85.6031 85.1259 92.401 82.0354 94.2092C81.3487 94.6212 80.4559 94.8043 79.4028 94.8043C74.6642 94.8043 67.6363 91.0277 60.1735 84.1382C63.3784 80.7736 66.5833 76.9512 69.6279 72.7169C74.8015 72.1675 79.7004 71.3207 84.1873 70.1991C84.7138 72.5109 85.1259 74.7311 85.3777 76.8597ZM94.1912 61.593C92.2224 62.4399 90.0706 63.1952 87.85 63.9048C86.5452 59.4186 84.8283 54.7494 82.6993 49.9657C84.8054 45.2048 86.4994 40.5585 87.7814 36.0952C90.0477 36.8048 92.1995 37.583 94.214 38.4298C102.318 41.886 107.56 46.4179 107.56 50.0114C107.537 53.6049 102.295 58.1598 94.1912 61.593Z" />
<path d="M56.4649 60.4714C62.2427 60.4714 66.9266 55.7883 66.9266 50.0113C66.9266 44.2344 62.2427 39.5513 56.4649 39.5513C50.687 39.5513 46.0032 44.2344 46.0032 50.0113C46.0032 55.7883 50.687 60.4714 56.4649 60.4714Z" />
</svg>
