<?xml version="1.0" standalone="no"?>
<!DOCTYPE svg PUBLIC "-//W3C//DTD SVG 20010904//EN"
 "http://www.w3.org/TR/2001/REC-SVG-20010904/DTD/svg10.dtd">
<svg version="1.0" xmlns="http://www.w3.org/2000/svg"
 width="700.000000pt" height="700.000000pt" viewBox="0 0 700.000000 700.000000"
 preserveAspectRatio="xMidYMid meet">
<metadata>
Created by potrace 1.11, written by Peter Selinger 2001-2013
</metadata>
<g transform="translate(0.000000,700.000000) scale(0.100000,-0.100000)"
fill="#000000" stroke="none">
<path d="M5040 3500 l0 -3500 980 0 980 0 0 3500 0 3500 -980 0 -980 0 0
-3500z"/>
<path d="M2520 1890 l0 -1890 980 0 980 0 0 1890 0 1890 -980 0 -980 0 0
-1890z"/>
<path d="M0 875 l0 -875 980 0 980 0 0 875 0 875 -980 0 -980 0 0 -875z"/>
</g>
</svg>
