<svg width="559" viewBox="0 0 559 382" fill="none" xmlns="http://www.w3.org/2000/svg">
<g opacity="0.2">
<path fill-rule="evenodd" clip-rule="evenodd" d="M468.008 49.1186V43.34H465.119V49.1186H459.34V52.0079H465.119V57.7866H468.008V52.0079H473.787V49.1186H468.008ZM468.008 5.77866V0H465.119V5.77866H459.34V8.66799H465.119V14.4467H468.008V8.66799H473.787V5.77866H468.008ZM424.668 49.1186V43.34H421.779V49.1186H416V52.0079H421.779V57.7866H424.668V52.0079H430.447V49.1186H424.668ZM424.668 5.77866V0H421.779V5.77866H416V8.66799H421.779V14.4467H424.668V8.66799H430.447V5.77866H424.668Z" fill="#2D83AE"/>
<path fill-rule="evenodd" clip-rule="evenodd" d="M552.221 49.1186V43.34H549.332V49.1186H543.553V52.0079H549.332V57.7866H552.221V52.0079H558V49.1186H552.221ZM552.221 5.77866V0H549.332V5.77866H543.553V8.66799H549.332V14.4467H552.221V8.66799H558V5.77866H552.221ZM508.881 49.1186V43.34H505.992V49.1186H500.213V52.0079H505.992V57.7866H508.881V52.0079H514.66V49.1186H508.881ZM508.881 5.77866V0H505.992V5.77866H500.213V8.66799H505.992V14.4467H508.881V8.66799H514.66V5.77866H508.881Z" fill="#2D83AE"/>
<path fill-rule="evenodd" clip-rule="evenodd" d="M468.008 133.332V127.553H465.119V133.332H459.34V136.221H465.119V142H468.008V136.221H473.787V133.332H468.008ZM468.008 89.992V84.2134H465.119V89.992H459.34V92.8814H465.119V98.66H468.008V92.8814H473.787V89.992H468.008ZM424.668 133.332V127.553H421.779V133.332H416V136.221H421.779V142H424.668V136.221H430.447V133.332H424.668ZM424.668 89.992V84.2134H421.779V89.992H416V92.8814H421.779V98.66H424.668V92.8814H430.447V89.992H424.668Z" fill="#2D83AE"/>
<path fill-rule="evenodd" clip-rule="evenodd" d="M552.221 133.332V127.553H549.332V133.332H543.553V136.221H549.332V142H552.221V136.221H558V133.332H552.221ZM552.221 89.992V84.2134H549.332V89.992H543.553V92.8814H549.332V98.66H552.221V92.8814H558V89.992H552.221ZM508.881 133.332V127.553H505.992V133.332H500.213V136.221H505.992V142H508.881V136.221H514.66V133.332H508.881ZM508.881 89.992V84.2134H505.992V89.992H500.213V92.8814H505.992V98.66H508.881V92.8814H514.66V89.992H508.881Z" fill="#2D83AE"/>
</g>
<g opacity="0.2">
<path fill-rule="evenodd" clip-rule="evenodd" d="M52.0079 289.119V283.34H49.1186V289.119H43.3399V292.008H49.1186V297.787H52.0079V292.008H57.7866V289.119H52.0079ZM52.0079 245.779V240H49.1186V245.779H43.3399V248.668H49.1186V254.447H52.0079V248.668H57.7866V245.779H52.0079ZM8.66798 289.119V283.34H5.77866V289.119H0V292.008H5.77866V297.787H8.66798V292.008H14.4466V289.119H8.66798ZM8.66798 245.779V240H5.77866V245.779H0V248.668H5.77866V254.447H8.66798V248.668H14.4466V245.779H8.66798Z" fill="#2D83AE"/>
<path fill-rule="evenodd" clip-rule="evenodd" d="M136.221 289.119V283.34H133.332V289.119H127.553V292.008H133.332V297.787H136.221V292.008H142V289.119H136.221ZM136.221 245.779V240H133.332V245.779H127.553V248.668H133.332V254.447H136.221V248.668H142V245.779H136.221ZM92.8814 289.119V283.34H89.992V289.119H84.2134V292.008H89.992V297.787H92.8814V292.008H98.66V289.119H92.8814ZM92.8814 245.779V240H89.992V245.779H84.2134V248.668H89.992V254.447H92.8814V248.668H98.66V245.779H92.8814Z" fill="#2D83AE"/>
<path fill-rule="evenodd" clip-rule="evenodd" d="M52.0079 373.332V367.553H49.1186V373.332H43.3399V376.221H49.1186V382H52.0079V376.221H57.7866V373.332H52.0079ZM52.0079 329.992V324.213H49.1186V329.992H43.3399V332.881H49.1186V338.66H52.0079V332.881H57.7866V329.992H52.0079ZM8.66798 373.332V367.553H5.77866V373.332H0V376.221H5.77866V382H8.66798V376.221H14.4466V373.332H8.66798ZM8.66798 329.992V324.213H5.77866V329.992H0V332.881H5.77866V338.66H8.66798V332.881H14.4466V329.992H8.66798Z" fill="#2D83AE"/>
<path fill-rule="evenodd" clip-rule="evenodd" d="M136.221 373.332V367.553H133.332V373.332H127.553V376.221H133.332V382H136.221V376.221H142V373.332H136.221ZM136.221 329.992V324.213H133.332V329.992H127.553V332.881H133.332V338.66H136.221V332.881H142V329.992H136.221ZM92.8814 373.332V367.553H89.992V373.332H84.2134V376.221H89.992V382H92.8814V376.221H98.66V373.332H92.8814ZM92.8814 329.992V324.213H89.992V329.992H84.2134V332.881H89.992V338.66H92.8814V332.881H98.66V329.992H92.8814Z" fill="#2D83AE"/>
</g>
<path d="M558.243 146.504C558.243 210.017 436.743 396.347 389.242 302.847C341.742 209.347 182.245 374.004 90.7441 374.004C-0.756851 374.004 108.244 123.656 190.244 146.504C351.744 191.504 558.243 82.9914 558.243 146.504Z" fill="#F5F7FA" fill-opacity="0.5"/>
<path opacity="0.4" d="M392.01 247.303L334.465 214.164C334.135 213.973 333.863 213.697 333.677 213.365C333.49 213.032 333.397 212.656 333.406 212.275C333.415 211.894 333.526 211.523 333.728 211.199C333.93 210.876 334.215 210.613 334.553 210.438L341.793 206.706C342.109 206.545 342.46 206.464 342.815 206.472C343.17 206.481 343.517 206.577 343.825 206.753L403.309 241.004C403.64 241.194 403.914 241.469 404.101 241.802C404.288 242.134 404.383 242.511 404.374 242.893C404.364 243.275 404.253 243.647 404.05 243.97C403.847 244.293 403.56 244.556 403.221 244.73L397.966 247.438C397.042 247.917 396.012 248.155 394.971 248.132C393.93 248.108 392.912 247.823 392.01 247.303Z" fill="#D6D8E5"/>
<path d="M395.544 241.066L346.502 212.751C342.344 210.355 338.981 203.915 338.981 198.38V61.5915C338.997 56.0407 342.349 53.5044 346.502 55.9056L395.544 84.2155C399.702 86.6167 403.065 93.051 403.065 98.5862V235.38C403.065 240.921 399.697 243.462 395.544 241.066Z" fill="#B1B4C4"/>
<path d="M396.386 243.53L400.269 241.565L396.542 235.177L396.386 243.53Z" fill="#B1B4C4"/>
<path d="M338.223 57.2674L341.798 55.3911L341.076 60.6664L338.223 57.2674Z" fill="#B1B4C4"/>
<path d="M392.415 242.625L343.378 214.31C339.22 211.914 335.858 205.475 335.858 199.939V63.1559C335.879 57.6 339.226 55.0689 343.378 57.4648L392.415 85.7799C396.573 88.1811 399.941 94.6154 399.941 100.151V236.945C399.941 242.48 396.573 245.026 392.415 242.625Z" fill="#616E84"/>
<path d="M399.416 100.499V237.287C399.416 242.833 396.053 245.375 391.895 242.979L372.665 231.877L366.683 228.421L342.853 214.663C338.695 212.262 335.338 205.828 335.338 200.293V63.504C335.359 57.9585 338.701 55.417 342.853 57.8129L391.895 86.128C396.053 88.5292 399.416 94.9583 399.416 100.499Z" fill="#20232D"/>
<path d="M395.877 99.1111V232.34C395.877 235.697 393.522 237.059 390.622 235.375L388.024 233.868L379.115 228.728L375.285 226.513L373.934 225.729L373.482 225.464L370.181 223.567L360.592 218.037L356.642 215.755L355.041 214.83L345.478 209.31L344.174 208.557C341.263 206.878 338.914 202.798 338.914 199.435V66.1963C338.914 62.8389 341.263 61.4772 344.174 63.1559L363.279 74.2314V74.2834C363.356 75.7054 363.767 77.0893 364.478 78.3228C365.19 79.5564 366.182 80.6048 367.375 81.383C369.641 82.6823 371.475 81.6272 371.475 79.0182C371.475 79.0182 371.475 78.9766 371.475 78.961L390.628 90.0157C393.523 91.6737 395.877 95.7536 395.877 99.1111Z" fill="white"/>
<path d="M369.01 80.088C369.619 79.7378 369.621 78.5976 369.014 77.5413C368.407 76.4849 367.421 75.9125 366.812 76.2627C366.202 76.6128 366.2 77.7531 366.807 78.8094C367.415 79.8657 368.401 80.4382 369.01 80.088Z" fill="#2B303F"/>
<path opacity="0.1" d="M367.375 78.831C367.185 78.7073 367.028 78.5407 366.915 78.3447C366.802 78.1488 366.737 77.929 366.725 77.7032C366.725 77.2874 367.016 77.1211 367.375 77.329C367.565 77.4516 367.724 77.6178 367.838 77.8139C367.952 78.01 368.018 78.2304 368.029 78.4568C368.029 78.8726 367.738 79.0389 367.375 78.831Z" fill="white"/>
<path d="M401.407 118.497C401.007 118.731 400.684 118.497 400.684 117.977V112.12C400.688 111.849 400.755 111.583 400.88 111.342C401.006 111.102 401.186 110.895 401.407 110.738C401.807 110.504 402.129 110.738 402.129 111.283V117.115C402.126 117.386 402.059 117.652 401.933 117.892C401.808 118.132 401.627 118.34 401.407 118.497Z" fill="#757B89"/>
<path d="M401.407 128.055C401.007 128.284 400.684 128.055 400.684 127.509V121.673C400.689 121.402 400.757 121.136 400.882 120.896C401.007 120.656 401.187 120.449 401.407 120.29C401.807 120.062 402.129 120.29 402.129 120.841V126.673C402.125 126.944 402.058 127.21 401.933 127.45C401.807 127.69 401.627 127.897 401.407 128.055Z" fill="#757B89"/>
<path d="M385.17 144.66L348.269 123.351C346.71 122.447 345.431 120.02 345.431 117.925V76.3466C345.431 74.2677 346.7 73.2958 348.269 74.2001L385.17 95.5092C386.729 96.4136 388.008 98.8407 388.008 100.93V142.509C388.008 144.603 386.74 145.565 385.17 144.66Z" fill="#E9EAF2"/>
<path d="M385.17 200.298L348.269 178.989C346.71 178.085 345.431 175.658 345.431 173.568V131.989C345.431 129.911 346.7 128.939 348.269 129.843L385.17 151.152C386.729 152.056 388.008 154.484 388.008 156.578V198.157C388.008 200.241 386.74 201.202 385.17 200.298Z" fill="#E9EAF2"/>
<path d="M388.013 212.2V233.868L375.285 226.513L373.934 225.729L373.482 225.464L370.181 223.567L360.592 218.037L356.616 215.745L355.016 214.819L345.452 209.3V187.627C345.452 185.548 346.726 184.581 348.29 185.486L385.191 206.795C386.74 207.683 388.013 210.111 388.013 212.2Z" fill="#E9EAF2"/>
<path opacity="0.1" d="M391.183 106.382L345.109 79.9486V63.6238L391.183 90.0522V106.382Z" fill="black"/>
<path d="M335.619 78.5556L329.943 75.2761L345.27 63.8108L350.946 67.0851L335.619 78.5556Z" fill="#2D83AE"/>
<path d="M341.3 81.8301L335.619 78.5557L350.946 67.0852L356.621 70.3647L341.3 81.8301Z" fill="#F4F5F9"/>
<path d="M346.975 85.1096L341.299 81.8301L356.621 70.3647L362.297 73.6391L346.975 85.1096Z" fill="#2D83AE"/>
<path d="M352.65 88.3838L346.975 85.1094L362.297 73.6389L367.972 76.9184L352.65 88.3838Z" fill="#F4F5F9"/>
<path d="M358.326 91.6636L352.651 88.384L367.972 76.9187L373.648 80.193L358.326 91.6636Z" fill="#2D83AE"/>
<path d="M364.001 94.9377L358.326 91.6634L373.648 80.1929L379.323 83.4724L364.001 94.9377Z" fill="#F4F5F9"/>
<path d="M369.677 98.2173L364.001 94.9377L379.323 83.4724L384.999 86.7467L369.677 98.2173Z" fill="#2D83AE"/>
<path d="M375.352 101.492L369.677 98.2174L384.998 86.7468L390.679 90.0263L375.352 101.492Z" fill="#F4F5F9"/>
<path d="M332.823 80.1513C334.382 81.0556 335.661 80.3228 335.661 78.5141L329.985 75.2346C330.039 76.2193 330.324 77.1775 330.817 78.0317C331.31 78.8858 331.997 79.612 332.823 80.1513Z" fill="#2D83AE"/>
<path d="M338.503 83.4256C340.063 84.3352 341.341 83.5972 341.341 81.7885L335.66 78.5142C335.715 79.4987 336 80.4567 336.494 81.3101C336.988 82.1635 337.677 82.8883 338.503 83.4256Z" fill="#F4F5F9"/>
<path d="M344.195 86.7053C345.754 87.6096 347.032 86.8768 347.032 85.0681L341.357 81.7886C341.41 82.7736 341.694 83.7323 342.187 84.5866C342.68 85.4409 343.368 86.1668 344.195 86.7053Z" fill="#2D83AE"/>
<path d="M349.854 89.9848C351.414 90.8891 352.692 90.1511 352.692 88.3424L347.017 85.0681C347.07 86.0529 347.355 87.0113 347.848 87.8655C348.341 88.7197 349.028 89.4458 349.854 89.9848Z" fill="#F4F5F9"/>
<path d="M355.53 93.259C357.089 94.1633 358.368 93.4305 358.368 91.6218L352.692 88.3423C352.745 89.3273 353.029 90.286 353.522 91.1403C354.015 91.9946 354.703 92.7205 355.53 93.259Z" fill="#2D83AE"/>
<path d="M361.205 96.5385C362.764 97.4428 364.043 96.71 364.043 94.8962L358.367 91.6218C358.421 92.6067 358.706 93.565 359.199 94.4192C359.692 95.2734 360.379 95.9995 361.205 96.5385Z" fill="#F4F5F9"/>
<path d="M366.881 99.8127C368.44 100.717 369.718 99.9842 369.718 98.1755L364.043 94.896C364.093 95.8816 364.377 96.8412 364.87 97.6959C365.363 98.5506 366.052 99.2761 366.881 99.8127Z" fill="#2D83AE"/>
<path d="M372.556 103.092C374.116 103.997 375.394 103.264 375.394 101.45L369.719 98.1758C369.772 99.1606 370.057 100.119 370.55 100.973C371.043 101.827 371.73 102.553 372.556 103.092Z" fill="#F4F5F9"/>
<path opacity="0.4" d="M335.307 230.166L305.734 213.103L309.445 210.947L339.018 228.015L335.307 230.166Z" fill="#D6D8E5"/>
<path d="M346.731 223.727L317.044 206.586L320.755 172.73L343.02 185.589L346.731 223.727Z" fill="#1D3A58"/>
<path d="M339.018 228.014L309.326 210.874L313.036 177.018L335.307 189.871L339.018 228.014Z" fill="#3994C1"/>
<path d="M339.018 228.015L346.731 223.727L343.02 185.589L335.307 189.871L339.018 228.015Z" fill="#2D83AE"/>
<path d="M313.037 177.018L320.755 172.73L319.85 180.953L313.037 177.018Z" fill="#1D3A58"/>
<path d="M329.736 186.581L328.364 185.765C328.364 182.569 326.482 178.884 324.174 177.554C321.867 176.223 319.98 177.73 319.98 180.927L318.608 180.137C318.608 176.067 321.103 174.196 324.174 175.979C327.246 177.762 329.736 182.512 329.736 186.581Z" fill="#20232D"/>
<path d="M336.976 182.158L335.603 181.363C335.603 178.167 333.722 174.482 331.414 173.146C329.107 171.81 327.22 173.328 327.22 176.524L325.848 175.734C325.848 171.66 328.348 169.794 331.414 171.577C334.481 173.359 336.976 178.084 336.976 182.158Z" fill="#20232D"/>
<path opacity="0.4" d="M390.087 259.443L380.057 253.689L391.345 247.172L401.376 252.93L390.087 259.443Z" fill="#D6D8E5"/>
<path d="M391.74 246.21L380.982 239.999L391.74 233.789L402.499 239.999L391.74 246.21Z" fill="#2D83AE"/>
<path d="M401.771 252.697L391.74 258.487V246.902L401.771 241.112V252.697Z" fill="#2D83AE"/>
<path d="M391.74 258.487L381.709 252.697V241.112L391.74 246.902V258.487Z" fill="#326690"/>
<path opacity="0.1" d="M381.709 241.112V244.142L391.74 249.869V246.917L381.709 241.112Z" fill="black"/>
<path opacity="0.1" d="M401.771 241.112V244.36L391.74 249.869V246.917L401.771 241.112Z" fill="black"/>
<path d="M380.982 240V243.211L391.74 249.339V246.21L380.982 240Z" fill="#326690"/>
<path d="M391.74 249.339L402.499 243.461V240L391.74 246.21V249.339Z" fill="#2D83AE"/>
<path opacity="0.4" d="M228.501 319.477C245.347 319.477 259.003 311.594 259.003 301.869C259.003 292.144 245.347 284.261 228.501 284.261C211.656 284.261 198 292.144 198 301.869C198 311.594 211.656 319.477 228.501 319.477Z" fill="#D6D8E5"/>
<path d="M206.136 169.971C205.793 172.937 202.26 185.726 203.016 190.105C203.771 194.484 215.853 201.809 215.853 201.809L217.532 194.309L210.837 187.761L212.649 175.365L206.136 169.971Z" fill="#FFCEA9"/>
<path d="M215.489 157.372C214.314 156.826 212.98 156.733 211.74 157.108C210.5 157.483 209.441 158.302 208.766 159.408C206.99 162.346 205.143 172.448 204.975 174.169C204.975 174.169 207.472 177.618 211.208 177.037L215.489 157.372Z" fill="#EDEDED"/>
<path d="M229.278 299.938C231.905 300.667 234.714 300.327 237.092 298.994C238.974 299.05 249.195 294.677 250.587 298.35C251.804 301.568 247.383 304.548 244.99 305.122C239.827 306.374 236.008 308.949 233.937 309.382C232.391 309.711 230.39 309.921 229.159 308.683C227.704 307.249 227.83 301.862 229.278 299.938Z" fill="#2B2A30"/>
<path d="M233.958 308.494C236.057 308.053 239.849 305.479 245.011 304.226C246.998 303.751 250.412 301.582 250.755 298.994C251.217 301.96 247.257 304.59 245.011 305.122C239.849 306.374 236.029 308.949 233.958 309.382C232.412 309.711 230.411 309.921 229.18 308.683C228.853 308.331 228.613 307.906 228.48 307.444C230.299 308.984 232.412 308.816 233.958 308.494Z" fill="#8E714E"/>
<path d="M212.691 292.494C215.318 293.223 218.127 292.883 220.505 291.55C222.387 291.606 232.608 287.227 234 290.906C235.217 294.124 230.796 297.105 228.404 297.678C223.241 298.931 219.421 301.505 217.35 301.939C215.804 302.268 213.803 302.477 212.572 301.239C211.124 299.805 211.25 294.411 212.691 292.494Z" fill="#2B2A30"/>
<path d="M217.378 301.044C219.477 300.61 223.269 298.035 228.432 296.783C230.418 296.307 233.832 294.132 234.175 291.55C234.637 294.516 230.642 297.147 228.432 297.679C223.269 298.931 219.449 301.505 217.378 301.939C215.832 302.268 213.831 302.478 212.6 301.239C212.272 300.891 212.032 300.469 211.901 300.008C213.72 301.526 215.832 301.372 217.378 301.044Z" fill="#8E714E"/>
<path d="M212.495 264.722C212.933 260.926 213.722 257.179 214.853 253.528C214.853 253.528 214.153 243.867 213.796 234.71C213.391 224.335 209.788 215.157 212.635 206.846L244.71 213.982C244.71 213.982 242.773 255.438 242.339 260.454C242.104 264.361 241.625 268.248 240.905 272.095C239.436 280.14 237.057 299.281 237.057 299.281C233.664 301.246 229.215 300.155 229.215 300.155C229.215 300.155 229.46 275.957 229.677 270.157C229.942 263.078 230.159 263.616 230.159 263.616L229.103 246.022L228.403 237.249C228.403 237.249 227.515 243.685 226.941 249.436C226.438 254.452 225.227 258.985 223.87 268.324C222.702 276.419 220.799 292.691 220.799 292.691C217.406 294.663 212.803 293.026 212.803 293.026C212.803 293.026 211.572 271.745 212.495 264.722Z" fill="#0B4F71"/>
<path d="M217.175 157.547C219.617 157.666 221.436 158.295 221.744 157.547C222.004 156.286 222.191 155.01 222.303 153.727C222.016 153.028 221.778 152.258 221.778 152.258C218.707 150.369 217.742 147.053 217.336 143.164C216.637 136.567 220.211 130.795 226.815 130.103C233.014 129.459 237.582 133.817 238.799 139.799C239.457 142.758 240.758 148.34 238.995 153.203C238.009 155.924 236.735 158.1 235.462 158.498C234.235 158.467 233.01 158.36 231.796 158.176C231.796 158.176 231.468 160.009 231.244 161.185C231.02 162.36 231.104 162.983 233.447 164.424C235.791 165.865 229.908 168.831 226.06 168.544C222.212 168.257 217.889 165.928 216.707 163.444C215.384 160.73 215.489 157.47 217.175 157.547Z" fill="#FFCEA9"/>
<path d="M220.708 157.911C220.009 159.597 221.75 161.66 226.305 163.102C230.859 164.543 231.307 162.689 231.307 162.689C231.307 162.689 238.037 165.753 240.226 167.285C242.976 169.209 244.2 174.777 244.571 184.18C244.997 195.065 245.039 211.211 244.676 213.996C244.676 213.996 239.527 219.123 232.944 218.585C226.361 218.046 215.279 212.212 212.586 207.713C212.663 198.171 213.782 196.618 212.236 191.119C208.696 178.527 206.836 173.385 208.557 165.025C209.956 158.135 211.956 157.274 214.678 157.33C216.697 157.413 218.71 157.607 220.708 157.911Z" fill="#F4F4F4"/>
<path d="M254.959 193.183C249.552 194.54 248.285 191.133 247.572 188.286C245.851 181.451 244.927 175.281 243.647 171.405C242.136 166.83 240.555 166.103 238.33 165.214C235.721 164.165 233.475 166.368 234.35 172.21C235.371 179.101 236.721 183.935 239.296 192.078C239.995 194.177 241.479 197.989 243.738 199.815C246.536 202.068 250.734 201.97 257.079 200.396C259.786 199.696 262.76 198.101 267.887 195.709C269.287 195.065 270.336 194.638 272.973 193.407C275.611 192.176 278.36 190.126 279.745 188.118C281.13 186.11 280.893 184.844 280.606 184.39C280.249 183.816 280.053 184.271 279.312 185.089C278.243 186.513 276.925 187.731 275.422 188.685C275.422 188.685 277.129 186.922 278.059 185.775C278.885 184.758 279.572 183.636 280.102 182.438C280.592 181.269 279.584 179.681 278.815 180.514C278.045 181.346 277.688 182.193 276.289 183.872C275.553 184.764 274.712 185.565 273.785 186.257C274.651 185.084 275.423 183.845 276.093 182.55C276.982 180.738 273.995 181.682 272.323 183.445C271.085 184.725 270.035 185.467 270.007 185.11C269.979 184.753 267.566 187.342 266.341 188.608C265.012 190.091 260.094 191.889 254.959 193.183Z" fill="#FFCEA9"/>
<path d="M236.33 164.305C239.939 163.773 242.493 165.396 244.081 170.867C245.669 176.338 246.795 180.822 246.795 180.822C245.367 182.886 243.201 184.324 240.744 184.837C236.428 185.887 234.875 183.823 234.875 183.823C234.875 183.823 233.678 178.093 232.93 174.19C232.181 170.286 231.866 164.969 236.33 164.305Z" fill="#EDEDED"/>
<path d="M238.575 138.987C238.575 138.987 244.277 130.313 231.922 128.55C223.01 127.276 217.287 132.999 216.623 139.211C215.993 145.151 219.645 151.314 222.289 153.755C223.576 154.217 226.347 154.455 229.985 152.825C230.133 151.209 230.191 149.585 230.159 147.963C230.159 147.963 225.829 138.826 238.575 138.987Z" fill="#424956"/>
<path d="M267.538 186.369C267.538 186.369 266.139 183.816 267.02 183.179C267.902 182.542 269.182 184.935 269.441 185.872C269.699 186.81 269.343 185.586 269.343 185.586C269.343 185.586 268.384 182.703 269.007 182.151C269.629 181.598 270.469 182.85 271.301 184.641C272.134 186.432 271.511 184.48 271.511 184.48C271.511 184.48 270.112 181.591 270.721 181.192C271.511 180.654 272.82 182.368 273.596 183.914C274.373 185.46 272.554 187.286 272.554 187.286L267.538 186.369Z" fill="#FFCEA9"/>
<path d="M270.238 190.931L264.998 187.901C264.557 187.65 264.613 187.202 265.124 186.908L277.751 179.597C278.014 179.451 278.307 179.369 278.607 179.357C278.907 179.344 279.206 179.403 279.479 179.528L284.719 182.55C285.16 182.808 285.104 183.249 284.593 183.55L271.938 190.854C271.679 190.996 271.392 191.078 271.097 191.091C270.802 191.104 270.508 191.049 270.238 190.931Z" fill="#B1B4C4"/>
<path d="M264.697 187.468V186.985L265.264 187.195L264.697 187.468Z" fill="#B1B4C4"/>
<path d="M285.041 182.97V182.508L284.593 182.795L285.041 182.97Z" fill="#B1B4C4"/>
<path d="M270.238 190.517L264.998 187.495C264.557 187.236 264.613 186.795 265.124 186.495L277.751 179.191C278.014 179.045 278.307 178.962 278.607 178.95C278.907 178.938 279.206 178.996 279.479 179.121L284.719 182.143C285.16 182.402 285.104 182.843 284.593 183.144L271.938 190.447C271.679 190.589 271.391 190.669 271.096 190.681C270.801 190.693 270.508 190.637 270.238 190.517Z" fill="#616E84"/>
<path d="M265.897 188.987C265.924 188.972 265.924 188.921 265.897 188.874C265.87 188.827 265.826 188.802 265.799 188.817C265.773 188.832 265.773 188.883 265.8 188.93C265.827 188.977 265.87 189.002 265.897 188.987Z" fill="#757B89"/>
<path d="M265.882 188.262C265.909 188.246 265.908 188.196 265.881 188.149C265.854 188.102 265.811 188.076 265.784 188.092C265.757 188.107 265.757 188.158 265.784 188.205C265.811 188.252 265.855 188.277 265.882 188.262Z" fill="#757B89"/>
<path d="M266.132 188.41C266.158 188.394 266.158 188.344 266.131 188.297C266.104 188.25 266.06 188.225 266.034 188.24C266.007 188.256 266.007 188.306 266.034 188.353C266.061 188.4 266.105 188.425 266.132 188.41Z" fill="#757B89"/>
<path d="M266.388 188.558C266.415 188.542 266.415 188.492 266.388 188.445C266.361 188.398 266.317 188.373 266.29 188.388C266.263 188.404 266.264 188.454 266.291 188.501C266.318 188.548 266.361 188.573 266.388 188.558Z" fill="#757B89"/>
<path d="M268.551 189.807C268.577 189.791 268.577 189.741 268.55 189.694C268.523 189.647 268.479 189.622 268.453 189.637C268.426 189.653 268.426 189.703 268.453 189.75C268.48 189.797 268.524 189.822 268.551 189.807Z" fill="#757B89"/>
<path d="M268.797 189.949C268.823 189.934 268.823 189.883 268.796 189.836C268.769 189.789 268.726 189.764 268.699 189.779C268.672 189.795 268.672 189.845 268.699 189.892C268.726 189.939 268.77 189.964 268.797 189.949Z" fill="#757B89"/>
<path d="M269.053 190.097C269.08 190.082 269.08 190.031 269.053 189.984C269.026 189.937 268.982 189.912 268.955 189.927C268.928 189.943 268.929 189.993 268.956 190.04C268.983 190.087 269.026 190.112 269.053 190.097Z" fill="#757B89"/>
<path d="M269.585 191.121C269.612 191.106 269.612 191.056 269.585 191.009C269.558 190.962 269.515 190.936 269.488 190.952C269.461 190.967 269.461 191.018 269.488 191.064C269.515 191.111 269.559 191.137 269.585 191.121Z" fill="#757B89"/>
<path d="M267.768 189.399L267.069 189C267.045 188.982 267.026 188.959 267.012 188.932C266.999 188.905 266.992 188.876 266.992 188.846C266.992 188.79 267.027 188.762 267.069 188.79L267.768 189.189C267.792 189.205 267.811 189.227 267.825 189.253C267.838 189.279 267.845 189.307 267.845 189.336C267.845 189.399 267.81 189.427 267.768 189.399Z" fill="#757B89"/>
<path d="M283.46 184.117L282.816 184.488C282.774 184.488 282.739 184.488 282.739 184.432C282.741 184.404 282.749 184.377 282.762 184.353C282.776 184.329 282.794 184.308 282.816 184.292L283.46 183.921C283.502 183.921 283.53 183.921 283.53 183.977C283.531 184.004 283.525 184.031 283.513 184.056C283.501 184.08 283.482 184.101 283.46 184.117Z" fill="#757B89"/>
<path d="M282.473 184.69L281.83 185.061C281.788 185.061 281.753 185.061 281.753 185.005C281.753 184.977 281.76 184.95 281.773 184.925C281.787 184.901 281.806 184.88 281.83 184.865L282.473 184.487C282.515 184.487 282.543 184.487 282.543 184.543C282.543 184.571 282.537 184.599 282.525 184.625C282.513 184.65 282.495 184.672 282.473 184.69Z" fill="#757B89"/>
<path d="M270.238 190.448L264.998 187.419C264.558 187.167 264.614 186.719 265.124 186.425L277.752 179.115C278.015 178.97 278.307 178.888 278.607 178.876C278.907 178.864 279.206 178.922 279.48 179.045L284.719 182.067C285.16 182.326 285.104 182.767 284.593 183.067L271.938 190.371C271.68 190.514 271.392 190.595 271.097 190.608C270.802 190.622 270.508 190.567 270.238 190.448Z" fill="#20232D"/>
<path d="M284.18 182.193L282.138 181.011C282.002 181.08 281.852 181.115 281.7 181.115C281.548 181.115 281.399 181.08 281.263 181.011C281.211 180.993 281.165 180.959 281.132 180.914C281.1 180.869 281.082 180.815 281.082 180.759C281.082 180.703 281.1 180.649 281.132 180.604C281.165 180.559 281.211 180.525 281.263 180.507L279.22 179.325C279.046 179.235 278.853 179.188 278.657 179.188C278.461 179.188 278.268 179.235 278.094 179.325L265.768 186.439C265.699 186.462 265.64 186.506 265.598 186.564C265.556 186.623 265.533 186.693 265.533 186.765C265.533 186.837 265.556 186.907 265.598 186.965C265.64 187.024 265.699 187.067 265.768 187.09L270.735 189.951C270.909 190.041 271.102 190.088 271.298 190.088C271.494 190.088 271.687 190.041 271.861 189.951L284.18 182.837C284.25 182.816 284.311 182.774 284.354 182.716C284.397 182.658 284.42 182.587 284.42 182.515C284.42 182.443 284.397 182.372 284.354 182.314C284.311 182.256 284.25 182.214 284.18 182.193Z" fill="#2B303F"/>
<path opacity="0.5" d="M284.18 182.193L282.138 181.011C282.002 181.08 281.852 181.115 281.7 181.115C281.548 181.115 281.399 181.08 281.263 181.011C281.211 180.993 281.165 180.959 281.132 180.914C281.1 180.869 281.082 180.815 281.082 180.759C281.082 180.703 281.1 180.649 281.132 180.604C281.165 180.559 281.211 180.525 281.263 180.507L279.22 179.325C279.046 179.235 278.853 179.188 278.657 179.188C278.461 179.188 278.268 179.235 278.094 179.325L265.768 186.439C265.699 186.462 265.64 186.506 265.598 186.564C265.556 186.623 265.533 186.693 265.533 186.765C265.533 186.837 265.556 186.907 265.598 186.965C265.64 187.024 265.699 187.067 265.768 187.09L270.735 189.951C270.909 190.041 271.102 190.088 271.298 190.088C271.494 190.088 271.687 190.041 271.861 189.951L284.18 182.837C284.25 182.816 284.311 182.774 284.354 182.716C284.397 182.658 284.42 182.587 284.42 182.515C284.42 182.443 284.397 182.372 284.354 182.314C284.311 182.256 284.25 182.214 284.18 182.193Z" fill="url(#paint0_linear)"/>
<path d="M281.564 180.969C281.695 180.969 281.802 180.909 281.802 180.836C281.802 180.762 281.695 180.703 281.564 180.703C281.433 180.703 281.326 180.762 281.326 180.836C281.326 180.909 281.433 180.969 281.564 180.969Z" fill="#2B303F"/>
<path opacity="0.1" d="M281.494 180.878C281.452 180.878 281.452 180.822 281.494 180.801C281.515 180.787 281.539 180.78 281.564 180.78C281.589 180.78 281.613 180.787 281.634 180.801C281.641 180.804 281.648 180.809 281.652 180.816C281.657 180.823 281.659 180.831 281.659 180.839C281.659 180.847 281.657 180.855 281.652 180.862C281.648 180.869 281.641 180.874 281.634 180.878C281.612 180.888 281.588 180.894 281.564 180.894C281.54 180.894 281.516 180.888 281.494 180.878Z" fill="white"/>
<path d="M278.381 189.72C278.381 189.72 281.179 187.223 281.018 183.914C280.85 181.605 279.458 183.27 279.458 183.27L278.059 185.81C278.059 185.81 276.66 187.621 275.373 188.034C274.389 188.129 273.411 188.274 272.442 188.468C270.721 188.804 269.007 190.951 269.007 190.951L271.224 192.651L278.381 189.72Z" fill="#FFCEA9"/>
<path d="M374.24 103.915L362.027 96.8462C361.828 96.7123 361.602 96.6257 361.365 96.5933C361.128 96.5608 360.887 96.5834 360.66 96.6591C360.561 96.6995 360.468 96.7537 360.384 96.8202L358.144 98.104L359.703 100.266V111.872C359.703 113.576 360.743 115.557 362.021 116.295L372.796 122.531L373.149 124.969C373.222 124.933 375.077 123.867 375.665 123.524C375.721 123.498 375.775 123.467 375.826 123.431C376.076 123.205 376.269 122.924 376.391 122.61C376.513 122.296 376.56 121.957 376.527 121.622V108.338C376.553 106.633 375.519 104.642 374.24 103.915Z" fill="#D9DAE2"/>
<path d="M371.714 124.813L359.501 117.761C358.222 117.022 357.188 115.042 357.188 113.338V100.058C357.188 98.3536 358.227 97.574 359.501 98.3121L371.714 105.36C372.993 106.098 374.032 108.083 374.032 109.788V123.062C374.032 124.767 372.993 125.551 371.714 124.813Z" fill="#EFF0F9"/>
<path d="M360.79 105.032C360.79 104.284 361.003 103.8 361.424 103.577C361.845 103.353 362.396 103.436 363.077 103.831C363.766 104.229 364.34 104.799 364.745 105.484C365.157 106.157 365.374 106.93 365.374 107.719V108.322C365.374 109.076 365.166 109.559 364.745 109.777C364.324 109.995 363.773 109.902 363.092 109.507C362.402 109.11 361.827 108.541 361.424 107.854C361.011 107.184 360.791 106.412 360.79 105.624V105.032ZM362.183 106.482C362.183 106.815 362.269 107.143 362.432 107.433C362.583 107.72 362.812 107.957 363.092 108.119C363.362 108.275 363.576 108.296 363.737 108.182C363.827 108.092 363.895 107.984 363.937 107.864C363.978 107.744 363.992 107.616 363.976 107.49V106.872C363.976 106.54 363.893 106.213 363.737 105.921C363.588 105.632 363.358 105.392 363.077 105.23C362.99 105.162 362.886 105.12 362.777 105.108C362.668 105.096 362.557 105.115 362.458 105.162C362.292 105.271 362.209 105.505 362.209 105.869L362.183 106.482ZM363.498 115.557L362.458 114.33L367.655 107.761L368.695 108.987L363.498 115.557ZM365.831 114.829C365.831 114.075 366.044 113.592 366.47 113.374C366.897 113.155 367.448 113.249 368.123 113.639C368.808 114.037 369.38 114.602 369.786 115.281C370.204 115.957 370.424 116.737 370.42 117.532V118.134C370.42 118.878 370.213 119.366 369.797 119.585C369.381 119.803 368.83 119.714 368.139 119.314C367.446 118.917 366.869 118.346 366.465 117.656C366.056 116.992 365.837 116.228 365.831 115.447V114.829ZM367.224 116.284C367.231 116.615 367.32 116.938 367.484 117.225C367.634 117.514 367.861 117.757 368.139 117.927C368.726 118.27 369.022 118.062 369.022 117.308V116.669C369.022 116.338 368.938 116.013 368.778 115.723C368.628 115.438 368.401 115.201 368.123 115.037C368.033 114.964 367.924 114.918 367.808 114.906C367.693 114.895 367.577 114.916 367.474 114.969C367.378 115.054 367.306 115.161 367.262 115.281C367.219 115.401 367.206 115.529 367.224 115.655V116.284Z" fill="#2D83AE"/>
<path d="M276.94 164.853C275.438 163.987 274.06 163.845 273.023 164.31C272.862 164.382 272.708 164.47 272.563 164.571L270.458 165.761C270.458 165.761 270.859 166.036 271.313 166.335C271.116 166.957 271.02 167.606 271.027 168.258C271.03 168.928 271.105 169.597 271.249 170.252L270.64 170.298C270.64 170.36 271.603 175.44 271.714 175.644C271.825 175.848 273.628 178.017 273.675 177.999C273.783 177.839 273.883 177.674 273.972 177.503C274.7 179.126 275.414 180.604 275.965 181.683L274.127 182.529L274.791 184.787L277.168 183.429C277.182 183.423 277.194 183.417 277.206 183.409C278.039 182.771 280.873 180.465 282.352 177.582C282.719 176.806 282.896 175.953 282.869 175.094C282.853 171.328 280.201 166.736 276.94 164.853ZM276.94 175.225C275.248 174.248 273.87 171.862 273.87 169.908C273.87 168.276 274.831 167.456 276.132 167.797L275.875 167.912C276.047 168.116 278.879 173.083 279.005 173.621C279.153 174.07 279.378 174.49 279.67 174.862C279.171 175.719 278.145 175.916 276.94 175.225Z" fill="#2D83AE"/>
<path d="M274.567 166.209C271.309 164.326 268.657 165.859 268.657 169.623C268.667 170.672 268.842 171.713 269.173 172.709C270.651 177.297 273.493 182.879 274.319 184.477C274.375 184.59 274.461 184.686 274.567 184.754C274.603 184.781 274.646 184.796 274.691 184.798C274.736 184.8 274.78 184.788 274.818 184.765C275.651 184.127 278.486 181.82 279.964 178.938C280.33 178.163 280.506 177.312 280.48 176.455C280.48 172.689 277.828 168.092 274.567 166.209ZM274.567 176.583C272.875 175.604 271.497 173.218 271.497 171.266C271.497 169.315 272.875 168.517 274.567 169.494C276.26 170.471 277.64 172.857 277.64 174.811C277.64 176.765 276.262 177.562 274.567 176.583Z" fill="#3994C1"/>
<path d="M373.201 158.471L360.987 151.418C360.789 151.284 360.562 151.198 360.325 151.165C360.088 151.133 359.847 151.155 359.62 151.231C359.522 151.274 359.43 151.328 359.345 151.392L357.105 152.676L358.664 154.838V166.444C358.664 168.148 359.703 170.129 360.977 170.867L371.751 177.103L372.109 179.546L374.62 178.096C374.675 178.07 374.729 178.04 374.781 178.008C375.033 177.784 375.229 177.503 375.352 177.188C375.474 176.874 375.521 176.535 375.488 176.199V162.894C375.519 161.189 374.479 159.209 373.201 158.471Z" fill="#D9DAE2"/>
<path d="M370.68 179.37L358.466 172.327C357.188 171.589 356.148 169.609 356.148 167.904V154.62C356.148 152.915 357.188 152.13 358.466 152.868L370.68 159.921C371.958 160.659 372.993 162.639 372.993 164.344V177.618C372.993 179.323 371.958 180.123 370.68 179.37Z" fill="#EFF0F9"/>
<path d="M364.573 159.848L366.226 164.677L369.931 167.437L367.25 168.907L367.884 173.528L364.573 169.609L361.257 169.703L361.891 165.81L359.209 161.246L362.915 162.764L364.573 159.848Z" fill="#2D83AE"/>
<defs>
<linearGradient id="paint0_linear" x1="262.37" y1="194.535" x2="269.077" y2="182.864" gradientUnits="userSpaceOnUse">
<stop offset="0.21" stop-color="white" stop-opacity="0"/>
<stop offset="1" stop-color="white" stop-opacity="0.2"/>
</linearGradient>
</defs>
</svg>
