<svg width="559" height="382" viewBox="0 0 559 382" fill="none" xmlns="http://www.w3.org/2000/svg">
<g opacity="0.2">
<path fill-rule="evenodd" clip-rule="evenodd" d="M468.008 49.1186V43.34H465.119V49.1186H459.34V52.0079H465.119V57.7866H468.008V52.0079H473.787V49.1186H468.008ZM468.008 5.77866V0H465.119V5.77866H459.34V8.66799H465.119V14.4467H468.008V8.66799H473.787V5.77866H468.008ZM424.668 49.1186V43.34H421.779V49.1186H416V52.0079H421.779V57.7866H424.668V52.0079H430.447V49.1186H424.668ZM424.668 5.77866V0H421.779V5.77866H416V8.66799H421.779V14.4467H424.668V8.66799H430.447V5.77866H424.668Z" fill="#2D83AE"/>
<path fill-rule="evenodd" clip-rule="evenodd" d="M552.221 49.1186V43.34H549.332V49.1186H543.553V52.0079H549.332V57.7866H552.221V52.0079H558V49.1186H552.221ZM552.221 5.77866V0H549.332V5.77866H543.553V8.66799H549.332V14.4467H552.221V8.66799H558V5.77866H552.221ZM508.881 49.1186V43.34H505.992V49.1186H500.213V52.0079H505.992V57.7866H508.881V52.0079H514.66V49.1186H508.881ZM508.881 5.77866V0H505.992V5.77866H500.213V8.66799H505.992V14.4467H508.881V8.66799H514.66V5.77866H508.881Z" fill="#2D83AE"/>
<path fill-rule="evenodd" clip-rule="evenodd" d="M468.008 133.332V127.553H465.119V133.332H459.34V136.221H465.119V142H468.008V136.221H473.787V133.332H468.008ZM468.008 89.992V84.2134H465.119V89.992H459.34V92.8814H465.119V98.66H468.008V92.8814H473.787V89.992H468.008ZM424.668 133.332V127.553H421.779V133.332H416V136.221H421.779V142H424.668V136.221H430.447V133.332H424.668ZM424.668 89.992V84.2134H421.779V89.992H416V92.8814H421.779V98.66H424.668V92.8814H430.447V89.992H424.668Z" fill="#2D83AE"/>
<path fill-rule="evenodd" clip-rule="evenodd" d="M552.221 133.332V127.553H549.332V133.332H543.553V136.221H549.332V142H552.221V136.221H558V133.332H552.221ZM552.221 89.992V84.2134H549.332V89.992H543.553V92.8814H549.332V98.66H552.221V92.8814H558V89.992H552.221ZM508.881 133.332V127.553H505.992V133.332H500.213V136.221H505.992V142H508.881V136.221H514.66V133.332H508.881ZM508.881 89.992V84.2134H505.992V89.992H500.213V92.8814H505.992V98.66H508.881V92.8814H514.66V89.992H508.881Z" fill="#2D83AE"/>
</g>
<g opacity="0.2">
<path fill-rule="evenodd" clip-rule="evenodd" d="M52.0079 289.119V283.34H49.1186V289.119H43.3399V292.008H49.1186V297.787H52.0079V292.008H57.7866V289.119H52.0079ZM52.0079 245.779V240H49.1186V245.779H43.3399V248.668H49.1186V254.447H52.0079V248.668H57.7866V245.779H52.0079ZM8.66798 289.119V283.34H5.77866V289.119H0V292.008H5.77866V297.787H8.66798V292.008H14.4466V289.119H8.66798ZM8.66798 245.779V240H5.77866V245.779H0V248.668H5.77866V254.447H8.66798V248.668H14.4466V245.779H8.66798Z" fill="#2D83AE"/>
<path fill-rule="evenodd" clip-rule="evenodd" d="M136.221 289.119V283.34H133.332V289.119H127.553V292.008H133.332V297.787H136.221V292.008H142V289.119H136.221ZM136.221 245.779V240H133.332V245.779H127.553V248.668H133.332V254.447H136.221V248.668H142V245.779H136.221ZM92.8814 289.119V283.34H89.992V289.119H84.2134V292.008H89.992V297.787H92.8814V292.008H98.66V289.119H92.8814ZM92.8814 245.779V240H89.992V245.779H84.2134V248.668H89.992V254.447H92.8814V248.668H98.66V245.779H92.8814Z" fill="#2D83AE"/>
<path fill-rule="evenodd" clip-rule="evenodd" d="M52.0079 373.332V367.553H49.1186V373.332H43.3399V376.221H49.1186V382H52.0079V376.221H57.7866V373.332H52.0079ZM52.0079 329.992V324.213H49.1186V329.992H43.3399V332.881H49.1186V338.66H52.0079V332.881H57.7866V329.992H52.0079ZM8.66798 373.332V367.553H5.77866V373.332H0V376.221H5.77866V382H8.66798V376.221H14.4466V373.332H8.66798ZM8.66798 329.992V324.213H5.77866V329.992H0V332.881H5.77866V338.66H8.66798V332.881H14.4466V329.992H8.66798Z" fill="#2D83AE"/>
<path fill-rule="evenodd" clip-rule="evenodd" d="M136.221 373.332V367.553H133.332V373.332H127.553V376.221H133.332V382H136.221V376.221H142V373.332H136.221ZM136.221 329.992V324.213H133.332V329.992H127.553V332.881H133.332V338.66H136.221V332.881H142V329.992H136.221ZM92.8814 373.332V367.553H89.992V373.332H84.2134V376.221H89.992V382H92.8814V376.221H98.66V373.332H92.8814ZM92.8814 329.992V324.213H89.992V329.992H84.2134V332.881H89.992V338.66H92.8814V332.881H98.66V329.992H92.8814Z" fill="#2D83AE"/>
</g>
<path d="M558.243 146.504C558.243 210.017 436.743 396.347 389.242 302.847C341.742 209.347 182.245 374.004 90.7441 374.004C-0.756851 374.004 108.244 123.656 190.244 146.504C351.744 191.504 558.243 82.9914 558.243 146.504Z" fill="#F5F7FA" fill-opacity="0.5"/>
<path opacity="0.4" d="M306.62 280.83L263.993 256.218C260.918 254.446 261.306 251.341 264.857 249.298L292.472 233.349L346.251 264.354L318.637 280.303C315.092 282.383 309.725 282.603 306.62 280.83Z" fill="#D6D8E5"/>
<path d="M349.371 262.56V260.927L346.888 262.362L349.371 262.56Z" fill="#B1B4C4"/>
<path d="M265.062 251.451V249.803L267.611 250.858L265.062 251.451Z" fill="#B1B4C4"/>
<path d="M309.761 277.367L267.135 252.762C264.059 250.982 264.447 247.885 267.999 245.834L295.635 229.893L349.385 260.927L321.771 276.869C318.205 278.919 312.837 279.146 309.761 277.367Z" fill="#D6D8E5"/>
<path d="M295.76 229.966L289.104 207.895L343.447 239.061L349.371 260.927L295.76 229.966Z" fill="#9EA1AF"/>
<path d="M294.039 230.793L287.39 208.722L341.733 239.896L347.789 261.835L294.039 230.793Z" fill="#B1B4C4"/>
<path d="M431.987 299.035L221.674 177.593C218.745 175.894 216.329 171.317 216.329 167.384V4.67756C216.329 0.745176 218.723 -1.06357 221.674 0.642655L431.987 122.085C434.916 123.784 437.333 128.354 437.333 132.286V295C437.333 298.933 434.938 300.741 431.987 299.035Z" fill="#C4C7D6"/>
<path d="M433.071 300.712L435.4 299.372L434.396 292.459L433.071 300.712Z" fill="#C4C7D6"/>
<path d="M430.061 300.148L219.712 178.676C216.783 176.977 214.374 172.408 214.374 168.468V5.7906C214.374 1.85821 216.768 0.049463 219.712 1.75569L430.061 123.198C432.991 124.897 435.4 129.467 435.4 133.406V296.113C435.4 300.046 433.013 301.854 430.061 300.148Z" fill="#E4E7F2"/>
<path d="M429.688 300.361L219.346 178.918C216.417 177.212 214 172.642 214 168.71V6.003C214 2.07061 216.395 0.261865 219.346 1.96809L429.688 123.411C432.617 125.11 435.034 129.679 435.034 133.611V296.326C435.034 300.236 432.639 302.067 429.688 300.361Z" fill="#D6D8E5"/>
<path d="M432.141 290.467L216.673 166.066L216.783 6.65474C216.783 5.02174 217.932 4.36268 219.346 5.19016L429.688 126.618C430.433 127.105 431.054 127.76 431.499 128.531C431.944 129.302 432.202 130.167 432.251 131.056L432.141 290.467Z" fill="white"/>
<path d="M347.789 261.835L349.363 260.927L347.027 259.06L347.789 261.835Z" fill="#9EA1AF"/>
<path d="M309.761 279L267.135 254.388C264.059 252.615 264.447 249.51 267.999 247.467L295.635 231.518L349.385 262.553L321.771 278.502C318.205 280.552 312.837 280.772 309.761 279Z" fill="#B1B4C4"/>
<path d="M215.926 1.63855L218.218 0.320435L221.513 2.19509C221.513 2.19509 218.005 2.72966 217.918 2.71501C217.83 2.70037 215.926 1.63855 215.926 1.63855Z" fill="#B1B4C4"/>
<path d="M270.334 104.675L235.666 84.3061C234.201 83.4417 233 81.1217 233 79.1195V39.3754C233 37.3882 234.191 36.4592 235.666 37.3236L270.334 57.6925C271.799 58.5569 273 60.877 273 62.8741V102.618C273 104.62 271.809 105.539 270.334 104.675Z" fill="#E9EAF2"/>
<path d="M261.694 71.3832L257.038 62.8414C256.861 62.5016 256.605 62.2152 256.295 62.009C256.254 61.983 256.21 61.9609 256.165 61.9431C256.123 61.9091 256.078 61.8785 256.031 61.8517L254.736 61.06C254.381 60.8417 254.051 60.857 253.859 61.1056C253.446 61.6132 252.516 61.5675 251.49 60.9382C250.457 60.306 249.63 59.3551 249.121 58.2127C248.946 57.7494 248.637 57.3566 248.239 57.0911L246.968 56.3044C246.927 56.2768 246.883 56.253 246.838 56.2333C246.723 56.1198 246.58 56.0436 246.425 56.0139C246.27 55.9842 246.111 56.0023 245.966 56.0659L241.309 58.9131C240.897 59.1669 240.897 59.9738 241.309 60.725L243.856 65.3943C244.025 65.7301 244.271 66.0161 244.57 66.2266C244.677 66.3071 244.802 66.3565 244.932 66.3699C245.063 66.3832 245.194 66.3601 245.313 66.3028L245.898 65.9424V77.3619C245.924 77.7454 246.034 78.1172 246.22 78.4476C246.406 78.7781 246.662 79.058 246.968 79.2651L256.031 84.848C256.611 85.2032 257.076 84.9139 257.076 84.2085V72.789L257.666 73.865C257.841 74.2033 258.095 74.4883 258.405 74.6923C258.511 74.7727 258.636 74.8221 258.767 74.8355C258.897 74.8489 259.029 74.8257 259.148 74.7684L261.694 73.2103C262.102 72.9413 262.102 72.1597 261.694 71.3832Z" fill="#2D83AE"/>
<path d="M265.601 162.704L234.399 144.132C233.081 143.344 232 141.229 232 139.403V103.166C232 101.354 233.072 100.507 234.399 101.295L265.601 119.867C266.919 120.655 268 122.77 268 124.591V160.828C268 162.654 266.928 163.492 265.601 162.704Z" fill="#E9EAF2"/>
<path d="M257.723 132.322L253.511 124.37C253.351 124.053 253.119 123.787 252.838 123.595C252.801 123.57 252.762 123.55 252.721 123.533C252.682 123.502 252.642 123.473 252.599 123.448L251.428 122.711C251.107 122.508 250.808 122.522 250.634 122.754C250.261 123.226 249.419 123.184 248.491 122.598C247.556 122.009 246.808 121.124 246.347 120.06C246.19 119.629 245.91 119.263 245.549 119.016L244.399 118.283C244.362 118.258 244.323 118.236 244.282 118.217C244.178 118.112 244.049 118.041 243.909 118.013C243.769 117.985 243.624 118.002 243.493 118.061L239.28 120.712C238.907 120.948 238.907 121.7 239.28 122.399L241.584 126.746C241.737 127.059 241.959 127.325 242.23 127.521C242.327 127.596 242.44 127.642 242.558 127.655C242.676 127.667 242.795 127.646 242.903 127.592L243.432 127.257V137.889C243.455 138.246 243.555 138.592 243.723 138.9C243.891 139.207 244.123 139.468 244.399 139.661L252.599 144.858C253.124 145.189 253.545 144.92 253.545 144.263V133.631L254.079 134.633C254.237 134.948 254.467 135.213 254.747 135.403C254.844 135.478 254.957 135.524 255.075 135.537C255.193 135.549 255.312 135.527 255.42 135.474L257.723 134.023C258.092 133.773 258.092 133.045 257.723 132.322Z" fill="#2D83AE"/>
<path d="M322.467 132.689L289.533 113.218C288.141 112.391 287 110.173 287 108.264V70.2708C287 68.3711 288.132 67.483 289.533 68.3094L322.467 87.781C323.859 88.6073 325 90.8252 325 92.7391V130.733C325 132.637 323.868 133.516 322.467 132.689Z" fill="#E9EAF2"/>
<path d="M313.398 99.9036L298.615 90C298.225 91.4714 298.017 93.0002 298 94.5398V105.267L304.774 109.807L306.009 101.557L307.239 111.46L314 116V105.267C313.967 103.459 313.765 101.661 313.398 99.9036Z" fill="#2D83AE"/>
<path d="M314 96.1989L298 85V87.8011L314 99V96.1989Z" fill="#2D83AE"/>
<path d="M272.936 131.795L262.06 126.582C260.921 126.036 260 124.572 260 123.312V113.497C260 112.236 260.926 111.66 262.06 112.206L272.936 117.415C274.074 117.961 275 119.428 275 120.688V130.5C275 131.76 274.074 132.34 272.936 131.795Z" fill="#EFF0F9"/>
<path d="M263 117.165C263 116.612 263.199 116.255 263.593 116.09C263.986 115.925 264.501 115.986 265.137 116.278C265.781 116.572 266.318 116.993 266.696 117.499C267.081 117.996 267.284 118.567 267.284 119.15V119.595C267.284 120.152 267.09 120.509 266.696 120.67C266.303 120.831 265.788 120.762 265.152 120.47C264.507 120.177 263.969 119.757 263.593 119.25C263.207 118.754 263.001 118.184 263 117.603V117.165ZM264.302 118.236C264.302 118.482 264.382 118.724 264.535 118.939C264.676 119.15 264.89 119.326 265.152 119.445C265.404 119.56 265.603 119.576 265.754 119.491C265.838 119.426 265.902 119.345 265.941 119.257C265.98 119.168 265.992 119.074 265.977 118.981V118.524C265.977 118.279 265.9 118.038 265.754 117.821C265.615 117.608 265.4 117.431 265.137 117.311C265.056 117.261 264.959 117.23 264.857 117.221C264.755 117.212 264.652 117.226 264.559 117.261C264.404 117.342 264.326 117.514 264.326 117.783L264.302 118.236ZM265.53 124.939L264.559 124.033L269.416 119.18L270.387 120.086L265.53 124.939ZM267.711 124.401C267.711 123.845 267.91 123.488 268.309 123.327C268.707 123.165 269.222 123.234 269.853 123.522C270.493 123.816 271.028 124.234 271.407 124.735C271.798 125.235 272.003 125.811 272 126.398V126.843C272 127.392 271.806 127.753 271.417 127.914C271.029 128.075 270.514 128.01 269.868 127.714C269.22 127.421 268.681 126.999 268.304 126.49C267.921 125.999 267.716 125.435 267.711 124.858V124.401ZM269.013 125.476C269.019 125.72 269.103 125.959 269.256 126.171C269.396 126.385 269.608 126.564 269.868 126.689C270.417 126.943 270.693 126.789 270.693 126.233V125.76C270.693 125.516 270.615 125.276 270.465 125.062C270.324 124.851 270.113 124.676 269.853 124.555C269.769 124.501 269.667 124.468 269.559 124.459C269.451 124.45 269.342 124.466 269.246 124.505C269.157 124.568 269.089 124.647 269.049 124.735C269.008 124.824 268.996 124.919 269.013 125.012V125.476Z" fill="#3994C1"/>
<path d="M276.936 69.7949L266.06 64.5816C264.921 64.0361 264 62.5724 264 61.3123V51.4966C264 50.2365 264.926 49.6602 266.06 50.2058L276.936 55.4152C278.074 55.9607 279 57.4283 279 58.6884V68.5002C279 69.7603 278.074 70.3404 276.936 69.7949Z" fill="#EFF0F9"/>
<path d="M267 55.165C267 54.6121 267.199 54.2551 267.593 54.09C267.986 53.925 268.501 53.9864 269.137 54.2782C269.781 54.5722 270.318 54.9927 270.696 55.4989C271.081 55.9959 271.284 56.5672 271.284 57.1497V57.595C271.284 58.1517 271.09 58.5087 270.696 58.6699C270.303 58.8312 269.788 58.7621 269.152 58.4703C268.507 58.1774 267.969 57.7567 267.593 57.2495C267.207 56.7543 267.001 56.1843 267 55.6026V55.165ZM268.302 56.236C268.302 56.4822 268.382 56.7241 268.535 56.9386C268.676 57.1501 268.89 57.3258 269.152 57.4453C269.404 57.5605 269.603 57.5758 269.754 57.4914C269.838 57.4255 269.902 57.3452 269.941 57.2567C269.98 57.1682 269.992 57.0737 269.977 56.9808V56.524C269.977 56.2788 269.9 56.0375 269.754 55.8214C269.615 55.608 269.4 55.4307 269.137 55.3108C269.056 55.261 268.959 55.2299 268.857 55.2211C268.755 55.2123 268.652 55.2261 268.559 55.2609C268.404 55.3416 268.326 55.5143 268.326 55.783L268.302 56.236ZM269.53 62.9389L268.559 62.0329L273.416 57.1804L274.387 58.0864L269.53 62.9389ZM271.711 62.4014C271.711 61.8448 271.91 61.4878 272.309 61.3265C272.707 61.1653 273.222 61.2344 273.853 61.5223C274.493 61.8162 275.028 62.2336 275.407 62.7354C275.798 63.2348 276.003 63.8107 276 64.3977V64.843C276 65.392 275.806 65.7529 275.417 65.9141C275.029 66.0753 274.514 66.0101 273.868 65.7145C273.22 65.4213 272.681 64.9991 272.304 64.4898C271.921 63.999 271.716 63.4347 271.711 62.8583V62.4014ZM273.013 63.4763C273.019 63.7203 273.103 63.9592 273.256 64.1712C273.396 64.3848 273.608 64.564 273.868 64.6895C274.417 64.9428 274.693 64.7893 274.693 64.2326V63.7604C274.693 63.516 274.615 63.2757 274.465 63.0617C274.324 62.8513 274.113 62.6759 273.853 62.555C273.769 62.501 273.667 62.4675 273.559 62.4587C273.451 62.4498 273.342 62.4659 273.246 62.5051C273.157 62.5677 273.089 62.6468 273.049 62.7352C273.008 62.8237 272.996 62.9187 273.013 63.0118V63.4763Z" fill="#3994C1"/>
<path d="M401.96 337.599L362.31 314.699L367.27 269.479L397.01 286.649L401.96 337.599Z" fill="#326690"/>
<path d="M391.66 343.319L352 320.429L356.96 275.209L386.7 292.379L391.66 343.319Z" fill="#2D83AE"/>
<path d="M391.66 343.319L401.96 337.599L397.01 286.649L386.7 292.379L391.66 343.319Z" fill="#2D83AE"/>
<path d="M356.96 275.209L367.27 269.479L366.06 280.459L356.96 275.209Z" fill="#326690"/>
<path d="M379.26 287.979L377.43 286.919C377.43 282.649 374.92 277.729 371.83 275.919C368.74 274.109 366.24 276.159 366.24 280.429L364.4 279.369C364.4 273.939 367.74 271.439 371.83 273.799C375.92 276.159 379.26 282.549 379.26 287.979Z" fill="#20232D"/>
<path d="M388.92 282.069L387.09 281.009C387.09 276.739 384.58 271.819 381.49 270.009C378.4 268.199 375.9 270.249 375.9 274.519L374.06 273.459C374.06 268.029 377.4 265.529 381.49 267.889C385.58 270.249 388.92 276.689 388.92 282.069Z" fill="#20232D"/>
<path d="M342.96 334.12L303.31 311.22L308.27 266L338.01 283.17L342.96 334.12Z" fill="#326690"/>
<path d="M332.66 339.84L293 316.95L297.96 271.73L327.7 288.9L332.66 339.84Z" fill="#2D83AE"/>
<path d="M332.66 339.84L342.96 334.12L338.01 283.17L327.7 288.9L332.66 339.84Z" fill="#2D83AE"/>
<path d="M297.96 271.73L308.27 266L307.06 276.98L297.96 271.73Z" fill="#326690"/>
<path d="M320.26 284.5L318.43 283.44C318.43 279.17 315.92 274.25 312.83 272.44C309.74 270.63 307.24 272.68 307.24 276.95L305.4 275.89C305.4 270.46 308.74 267.96 312.83 270.32C316.92 272.68 320.26 279.07 320.26 284.5Z" fill="#20232D"/>
<path d="M330.86 279.069L329.03 278.009C329.03 273.739 326.52 268.819 323.43 267.009C320.34 265.199 317.84 267.249 317.84 271.519L316 270.459C316 265.029 319.34 262.529 323.43 264.889C327.52 267.249 330.86 273.689 330.86 279.069Z" fill="#20232D"/>
<path d="M330.936 98.7949L320.06 93.5816C318.921 93.0361 318 91.5724 318 90.3123V80.4966C318 79.2365 318.926 78.6602 320.06 79.2058L330.936 84.4152C332.074 84.9607 333 86.4283 333 87.6884V97.5002C333 98.7603 332.074 99.3404 330.936 98.7949Z" fill="#EFF0F9"/>
<path d="M321 84.165C321 83.6121 321.199 83.2551 321.593 83.09C321.986 82.925 322.501 82.9864 323.137 83.2782C323.781 83.5722 324.318 83.9927 324.696 84.4989C325.081 84.9959 325.284 85.5672 325.284 86.1497V86.595C325.284 87.1517 325.09 87.5087 324.696 87.6699C324.303 87.8312 323.788 87.7621 323.152 87.4703C322.507 87.1774 321.969 86.7567 321.593 86.2495C321.207 85.7543 321.001 85.1843 321 84.6026V84.165ZM322.302 85.236C322.302 85.4822 322.382 85.7241 322.535 85.9386C322.676 86.1501 322.89 86.3258 323.152 86.4453C323.404 86.5605 323.603 86.5758 323.754 86.4914C323.838 86.4255 323.902 86.3452 323.941 86.2567C323.98 86.1682 323.992 86.0737 323.977 85.9808V85.524C323.977 85.2788 323.9 85.0375 323.754 84.8214C323.615 84.608 323.4 84.4307 323.137 84.3108C323.056 84.261 322.959 84.2299 322.857 84.2211C322.755 84.2123 322.652 84.2261 322.559 84.2609C322.404 84.3416 322.326 84.5143 322.326 84.783L322.302 85.236ZM323.53 91.9389L322.559 91.0329L327.416 86.1804L328.387 87.0864L323.53 91.9389ZM325.711 91.4014C325.711 90.8448 325.91 90.4878 326.309 90.3265C326.707 90.1653 327.222 90.2344 327.853 90.5223C328.493 90.8162 329.028 91.2336 329.407 91.7354C329.798 92.2348 330.003 92.8107 330 93.3977V93.843C330 94.392 329.806 94.7529 329.417 94.9141C329.029 95.0753 328.514 95.0101 327.868 94.7145C327.22 94.4213 326.681 93.9991 326.304 93.4898C325.921 92.999 325.716 92.4347 325.711 91.8583V91.4014ZM327.013 92.4763C327.019 92.7203 327.103 92.9592 327.256 93.1712C327.396 93.3848 327.608 93.564 327.868 93.6895C328.417 93.9428 328.693 93.7893 328.693 93.2326V92.7604C328.693 92.516 328.615 92.2757 328.465 92.0617C328.324 91.8513 328.113 91.6759 327.853 91.555C327.769 91.501 327.667 91.4675 327.559 91.4587C327.451 91.4498 327.342 91.4659 327.246 91.5051C327.157 91.5677 327.089 91.6468 327.049 91.7352C327.008 91.8237 326.996 91.9187 327.013 92.0118V92.4763Z" fill="#3994C1"/>
<path d="M420.185 216.891L342.815 172.045C342.566 171.867 342.363 171.633 342.222 171.362C342.08 171.091 342.004 170.79 342 170.484V166.716C342 166.113 342.364 165.839 342.815 166.097L420.185 210.97C420.434 211.148 420.637 211.382 420.778 211.653C420.92 211.924 420.996 212.225 421 212.531V216.299C421 216.891 420.636 217.171 420.185 216.891Z" fill="#E9EAF2"/>
<path d="M412.187 221.904L342.813 182.094C342.565 181.919 342.362 181.687 342.221 181.42C342.08 181.152 342.004 180.855 342 180.552V178.707C342 178.112 342.364 177.841 342.813 178.096L412.187 217.901C412.434 218.078 412.637 218.31 412.778 218.579C412.919 218.847 412.995 219.145 413 219.448V221.293C413 221.888 412.636 222.159 412.187 221.904Z" fill="#E9EAF2"/>
<path d="M412.187 228.892L342.813 188.192C342.566 188.01 342.363 187.773 342.222 187.498C342.081 187.224 342.005 186.919 342 186.61V184.723C342 184.114 342.364 183.837 342.813 184.098L412.187 224.826C412.435 225.005 412.638 225.242 412.779 225.516C412.92 225.789 412.996 226.093 413 226.403V228.289C413 228.876 412.636 229.175 412.187 228.892Z" fill="#E9EAF2"/>
<path d="M399.189 228.901L342.811 195.253C342.564 195.069 342.363 194.828 342.222 194.55C342.081 194.271 342.005 193.962 342 193.648V191.734C342 191.116 342.363 190.835 342.811 191.099L399.189 224.747C399.435 224.93 399.637 225.17 399.778 225.448C399.919 225.725 399.995 226.033 400 226.347V228.261C400 228.884 399.632 229.165 399.189 228.901Z" fill="#2D83AE"/>
<path d="M420.185 203.915L342.815 158.928C342.566 158.75 342.363 158.516 342.222 158.244C342.08 157.972 342.004 157.67 342 157.364V131.72C342 131.116 342.364 130.835 342.815 131.1L420.185 176.06C420.433 176.239 420.636 176.475 420.777 176.748C420.919 177.02 420.995 177.322 421 177.629V203.273C421 203.877 420.636 204.152 420.185 203.915Z" fill="#E9EAF2"/>
<path d="M353.003 127.418C346.386 123.718 341 114.692 341 107.291C341 99.8906 346.397 96.8854 353.003 100.58C359.608 104.276 365 113.312 365 120.707C365 128.103 359.614 131.118 353.003 127.418ZM353.003 104.458C348.297 101.845 344.47 103.972 344.47 109.23C344.47 114.488 348.297 120.911 353.003 123.54C357.709 126.169 361.535 124.031 361.535 118.768C361.535 113.505 357.698 107.113 353.003 104.458Z" fill="#E9EAF2"/>
<path d="M353.003 127.417C346.386 123.717 341 114.691 341 107.291C341 99.8905 346.397 96.8854 353.003 100.58V104.458C348.297 101.845 344.47 103.972 344.47 109.23C344.47 114.488 348.297 120.911 353.003 123.539C357.709 126.168 361.535 124.031 361.535 118.768L365 120.707C364.995 128.107 359.614 131.118 353.003 127.417Z" fill="#2D83AE"/>
<path d="M381 144.365C374.382 140.541 369 131.21 369 123.568C369 115.927 374.398 112.811 381 116.634C387.602 120.458 393 129.784 393 137.431C393 145.077 387.618 148.188 381 144.365ZM381 120.641C376.293 117.941 372.466 120.134 372.466 125.572C372.466 131.01 376.293 137.636 381 140.358C385.707 143.079 389.534 140.865 389.534 135.427C389.534 129.989 385.707 123.358 381 120.641Z" fill="#E9EAF2"/>
<path d="M381.102 144.349C374.428 140.527 369 131.201 369 123.564C369 115.926 374.444 112.812 381.102 116.634V120.638C376.355 117.94 372.495 120.131 372.495 125.566C372.495 131.001 376.355 137.624 381.102 140.344C382.866 141.353 384.559 141.715 386.002 141.423L388 145.854C385.969 146.281 383.585 145.768 381.102 144.349Z" fill="#2D83AE"/>
<path d="M408.989 160.365C402.377 156.541 397 147.21 397 139.568C397 131.927 402.393 128.811 408.989 132.634C415.585 136.458 421 145.784 421 153.431C421 161.077 415.607 164.188 408.989 160.365ZM408.989 136.641C404.292 133.941 400.462 136.134 400.462 141.572C400.462 147.01 404.292 153.636 408.989 156.358C413.687 159.079 417.516 156.865 417.516 151.427C417.516 145.989 413.692 139.358 408.989 136.641Z" fill="#E9EAF2"/>
<path d="M398.425 147C397.53 144.582 397.047 142.011 397 139.41C397 131.905 401.948 128.853 408 132.605V136.538C403.69 133.888 400.177 136.039 400.177 141.377C400.214 143.225 400.563 145.051 401.206 146.767L398.425 147Z" fill="#2D83AE"/>
<path d="M315.467 190.689L282.533 171.218C281.141 170.391 280 168.173 280 166.264V128.271C280 126.371 281.132 125.483 282.533 126.309L315.467 145.781C316.859 146.607 318 148.825 318 150.739V188.733C318 190.637 316.868 191.516 315.467 190.689Z" fill="#E9EAF2"/>
<path d="M306.398 157.904L291.615 148C291.225 149.471 291.017 151 291 152.54V163.267L297.774 167.807L299.009 159.557L300.239 169.46L307 174V163.267C306.967 161.459 306.765 159.661 306.398 157.904Z" fill="#2D83AE"/>
<path d="M307 154.199L291 143V145.801L307 157V154.199Z" fill="#2D83AE"/>
<path d="M323.936 156.795L313.06 151.582C311.921 151.036 311 149.572 311 148.312V138.497C311 137.236 311.926 136.66 313.06 137.206L323.936 142.415C325.074 142.961 326 144.428 326 145.688V155.5C326 156.76 325.074 157.34 323.936 156.795Z" fill="#EFF0F9"/>
<path d="M314 142.165C314 141.612 314.199 141.255 314.593 141.09C314.986 140.925 315.501 140.986 316.137 141.278C316.781 141.572 317.318 141.993 317.696 142.499C318.081 142.996 318.284 143.567 318.284 144.15V144.595C318.284 145.152 318.09 145.509 317.696 145.67C317.303 145.831 316.788 145.762 316.152 145.47C315.507 145.177 314.969 144.757 314.593 144.25C314.207 143.754 314.001 143.184 314 142.603V142.165ZM315.302 143.236C315.302 143.482 315.382 143.724 315.535 143.939C315.676 144.15 315.89 144.326 316.152 144.445C316.404 144.56 316.603 144.576 316.754 144.491C316.838 144.426 316.902 144.345 316.941 144.257C316.98 144.168 316.992 144.074 316.977 143.981V143.524C316.977 143.279 316.9 143.038 316.754 142.821C316.615 142.608 316.4 142.431 316.137 142.311C316.056 142.261 315.959 142.23 315.857 142.221C315.755 142.212 315.652 142.226 315.559 142.261C315.404 142.342 315.326 142.514 315.326 142.783L315.302 143.236ZM316.53 149.939L315.559 149.033L320.416 144.18L321.387 145.086L316.53 149.939ZM318.711 149.401C318.711 148.845 318.91 148.488 319.309 148.327C319.707 148.165 320.222 148.234 320.853 148.522C321.493 148.816 322.028 149.234 322.407 149.735C322.798 150.235 323.003 150.811 323 151.398V151.843C323 152.392 322.806 152.753 322.417 152.914C322.029 153.075 321.514 153.01 320.868 152.714C320.22 152.421 319.681 151.999 319.304 151.49C318.921 150.999 318.716 150.435 318.711 149.858V149.401ZM320.013 150.476C320.019 150.72 320.103 150.959 320.256 151.171C320.396 151.385 320.608 151.564 320.868 151.689C321.417 151.943 321.693 151.789 321.693 151.233V150.76C321.693 150.516 321.615 150.276 321.465 150.062C321.324 149.851 321.113 149.676 320.853 149.555C320.769 149.501 320.667 149.468 320.559 149.459C320.451 149.45 320.342 149.466 320.246 149.505C320.157 149.568 320.089 149.647 320.049 149.735C320.008 149.824 319.996 149.919 320.013 150.012V150.476Z" fill="#3994C1"/>
<path d="M257.93 280.48L235 267.24L257.93 254L280.86 267.24L257.93 280.48Z" fill="#2D83AE"/>
<path d="M279.31 294.3L257.93 306.64V281.95L279.31 269.61V294.3Z" fill="#2D83AE"/>
<path d="M257.93 306.64L236.55 294.3V269.61L257.93 281.95V306.64Z" fill="#0B4F71"/>
<path opacity="0.1" d="M236.55 269.61V276.07L257.93 288.27V281.98L236.55 269.61Z" fill="black"/>
<path opacity="0.1" d="M279.31 269.61V276.53L257.93 288.27V281.98L279.31 269.61Z" fill="black"/>
<path d="M235 267.24V274.08L257.93 287.14V280.48L235 267.24Z" fill="#0B4F71"/>
<path d="M257.93 287.14L280.86 274.62V267.24L257.93 280.48V287.14Z" fill="#2D83AE"/>
</svg>
