<svg width="196" height="281" viewBox="0 0 196 281" fill="none" xmlns="http://www.w3.org/2000/svg">
<path fill-rule="evenodd" clip-rule="evenodd" d="M17.917 97.1995V85.7643H12.1994V97.1995H0.76416V102.917H12.1994V114.352H17.917V102.917H29.3522V97.1995H17.917ZM17.917 11.4352V0H12.1994V11.4352H0.76416V17.1529H12.1994V28.5881H17.917V17.1529H29.3522V11.4352H17.917Z" fill="#2D83AE" fill-opacity="0.2"/>
<path fill-rule="evenodd" clip-rule="evenodd" d="M184.565 97.1995V85.7643H178.847V97.1995H167.412V102.917H178.847V114.352H184.565V102.917H196V97.1995H184.565ZM184.565 11.4352V0H178.847V11.4352H167.412V17.1529H178.847V28.5881H184.565V17.1529H196V11.4352H184.565ZM98.8005 97.1995V85.7643H93.0829V97.1995H81.6477V102.917H93.0829V114.352H98.8005V102.917H110.236V97.1995H98.8005ZM98.8005 11.4352V0H93.0829V11.4352H81.6477V17.1529H93.0829V28.5881H98.8005V17.1529H110.236V11.4352H98.8005Z" fill="#2D83AE" fill-opacity="0.2"/>
<path fill-rule="evenodd" clip-rule="evenodd" d="M17.917 263.847V252.412H12.1994V263.847H0.76416V269.565H12.1994V281H17.917V269.565H29.3522V263.847H17.917ZM17.917 178.083V166.648H12.1994V178.083H0.76416V183.8H12.1994V195.236H17.917V183.8H29.3522V178.083H17.917Z" fill="#2D83AE" fill-opacity="0.2"/>
<path fill-rule="evenodd" clip-rule="evenodd" d="M184.565 263.847V252.412H178.847V263.847H167.412V269.565H178.847V281H184.565V269.565H196V263.847H184.565ZM184.565 178.083V166.648H178.847V178.083H167.412V183.8H178.847V195.236H184.565V183.8H196V178.083H184.565ZM98.8005 263.847V252.412H93.0829V263.847H81.6477V269.565H93.0829V281H98.8005V269.565H110.236V263.847H98.8005ZM98.8005 178.083V166.648H93.0829V178.083H81.6477V183.8H93.0829V195.236H98.8005V183.8H110.236V178.083H98.8005Z" fill="#2D83AE" fill-opacity="0.2"/>
</svg>
