<svg width="744" viewBox="0 0 744 718" fill="none" xmlns="http://www.w3.org/2000/svg">
<path d="M11.6647 555.46C112.143 866.157 351.343 635.895 562.546 635.895C661.027 635.895 714.729 574.871 744 496.722V292V166.654C685.381 148.615 558.641 203.232 406.08 203.232C194.876 203.232 -57.531 341.495 11.6647 555.46Z" fill="#102A43"/>
<path d="M218.05 365.679L207.33 359.489C204 357.569 204.42 354.199 208.27 351.979L220.89 344.689C224.74 342.469 230.56 342.229 233.89 344.149L244.61 350.339C247.95 352.269 247.53 355.629 243.68 357.849L231.06 365.139C227.21 367.359 221.38 367.599 218.05 365.679Z" fill="#B1B4C4"/>
<path d="M246.86 353.309C246.86 353.219 246.86 349.789 246.86 349.789L243.22 351.749L246.86 353.309Z" fill="#B1B4C4"/>
<path d="M278.73 328.839V327.319L276.31 328.079L278.73 328.839Z" fill="#B1B4C4"/>
<path opacity="0.4" d="M220.29 366.559C219.695 366.396 219.113 366.189 218.55 365.939L211.19 359.939L213.11 358.089L206.11 357.189C206.108 357.71 205.984 358.223 205.748 358.687C205.512 359.15 205.17 359.552 204.75 359.859L165.31 381.129C161.58 383.279 160.64 387.279 164.38 389.439C167.7 391.759 173.43 391.569 177.17 389.439L218.22 367.749H218.3C219.66 366.969 222.84 367.029 222.84 367.029C221.979 366.941 221.126 366.784 220.29 366.559V366.559ZM202.44 369.019C202.576 369.068 202.694 369.157 202.778 369.275C202.862 369.393 202.906 369.535 202.906 369.679C202.906 369.824 202.862 369.965 202.778 370.084C202.694 370.202 202.576 370.291 202.44 370.339C202.086 370.522 201.693 370.617 201.295 370.617C200.896 370.617 200.504 370.522 200.15 370.339C200.008 370.296 199.884 370.209 199.796 370.09C199.708 369.971 199.661 369.827 199.661 369.679C199.661 369.532 199.708 369.388 199.796 369.269C199.884 369.15 200.008 369.063 200.15 369.019C200.504 368.837 200.896 368.742 201.295 368.742C201.693 368.742 202.086 368.837 202.44 369.019ZM198.8 371.119C198.936 371.168 199.054 371.257 199.138 371.375C199.222 371.493 199.266 371.635 199.266 371.779C199.266 371.924 199.222 372.065 199.138 372.184C199.054 372.302 198.936 372.391 198.8 372.439C198.446 372.622 198.053 372.717 197.655 372.717C197.256 372.717 196.864 372.622 196.51 372.439C196.368 372.396 196.244 372.309 196.156 372.19C196.068 372.071 196.021 371.927 196.021 371.779C196.021 371.632 196.068 371.488 196.156 371.369C196.244 371.25 196.368 371.163 196.51 371.119C196.864 370.937 197.256 370.842 197.655 370.842C198.053 370.842 198.446 370.937 198.8 371.119V371.119ZM195.16 373.219C195.296 373.268 195.414 373.357 195.498 373.475C195.582 373.593 195.626 373.735 195.626 373.879C195.626 374.024 195.582 374.165 195.498 374.284C195.414 374.402 195.296 374.491 195.16 374.539C194.804 374.722 194.41 374.817 194.01 374.817C193.61 374.817 193.216 374.722 192.86 374.539C192.723 374.491 192.605 374.402 192.521 374.284C192.438 374.165 192.393 374.024 192.393 373.879C192.393 373.735 192.438 373.593 192.521 373.475C192.605 373.357 192.723 373.268 192.86 373.219C193.217 373.042 193.611 372.949 194.01 372.949C194.409 372.949 194.802 373.042 195.16 373.219V373.219ZM191.52 375.319C191.66 375.365 191.782 375.455 191.868 375.574C191.955 375.693 192.001 375.837 192.001 375.984C192.001 376.132 191.955 376.275 191.868 376.395C191.782 376.514 191.66 376.603 191.52 376.649C191.162 376.827 190.769 376.92 190.37 376.92C189.971 376.92 189.577 376.827 189.22 376.649C189.08 376.603 188.958 376.514 188.871 376.395C188.785 376.275 188.738 376.132 188.738 375.984C188.738 375.837 188.785 375.693 188.871 375.574C188.958 375.455 189.08 375.365 189.22 375.319C189.577 375.142 189.971 375.049 190.37 375.049C190.769 375.049 191.162 375.142 191.52 375.319V375.319ZM187.88 377.419C188.02 377.465 188.142 377.555 188.228 377.674C188.315 377.793 188.361 377.937 188.361 378.084C188.361 378.232 188.315 378.375 188.228 378.495C188.142 378.614 188.02 378.703 187.88 378.749C187.522 378.927 187.129 379.02 186.73 379.02C186.331 379.02 185.937 378.927 185.58 378.749C185.44 378.703 185.318 378.614 185.231 378.495C185.145 378.375 185.098 378.232 185.098 378.084C185.098 377.937 185.145 377.793 185.231 377.674C185.318 377.555 185.44 377.465 185.58 377.419C185.937 377.242 186.331 377.149 186.73 377.149C187.129 377.149 187.522 377.242 187.88 377.419V377.419ZM178.42 383.009C177.73 382.689 177.63 382.099 178.2 381.699C178.542 381.498 178.927 381.381 179.324 381.359C179.72 381.336 180.117 381.408 180.48 381.569C181.17 381.899 181.27 382.489 180.7 382.889C180.356 383.087 179.97 383.2 179.574 383.221C179.178 383.242 178.783 383.17 178.42 383.009V383.009ZM182.06 380.909C181.37 380.579 181.27 379.989 181.84 379.589C182.183 379.39 182.569 379.275 182.965 379.254C183.362 379.233 183.757 379.307 184.12 379.469C184.81 379.789 184.91 380.379 184.34 380.779C183.997 380.981 183.612 381.097 183.215 381.12C182.819 381.143 182.423 381.07 182.06 380.909V380.909Z" fill="#D6D8E5"/>
<path d="M221.46 361.219L218.25 362.319L211.25 358.319L213.17 356.469L206.17 355.569C206.169 356.09 206.046 356.603 205.809 357.067C205.573 357.531 205.231 357.933 204.81 358.239L166.16 380.559C162.43 382.719 162.43 386.209 166.16 388.369C168.256 389.428 170.572 389.979 172.92 389.979C175.268 389.979 177.584 389.428 179.68 388.369L218.3 366.069H218.39C219.75 365.289 223.01 365.289 223.01 365.289L221.46 361.219ZM202.53 367.379C202.666 367.428 202.784 367.517 202.868 367.635C202.952 367.753 202.997 367.895 202.997 368.039C202.997 368.184 202.952 368.325 202.868 368.444C202.784 368.562 202.666 368.651 202.53 368.699C202.174 368.882 201.78 368.977 201.38 368.977C200.98 368.977 200.586 368.882 200.23 368.699C200.093 368.651 199.975 368.562 199.892 368.444C199.808 368.325 199.763 368.184 199.763 368.039C199.763 367.895 199.808 367.753 199.892 367.635C199.975 367.517 200.093 367.428 200.23 367.379C200.586 367.197 200.98 367.102 201.38 367.102C201.78 367.102 202.174 367.197 202.53 367.379V367.379ZM198.89 369.479C199.026 369.528 199.144 369.617 199.228 369.735C199.312 369.853 199.357 369.995 199.357 370.139C199.357 370.284 199.312 370.425 199.228 370.544C199.144 370.662 199.026 370.751 198.89 370.799C198.534 370.982 198.14 371.077 197.74 371.077C197.34 371.077 196.946 370.982 196.59 370.799C196.453 370.751 196.335 370.662 196.252 370.544C196.168 370.425 196.123 370.284 196.123 370.139C196.123 369.995 196.168 369.853 196.252 369.735C196.335 369.617 196.453 369.528 196.59 369.479C196.946 369.297 197.34 369.202 197.74 369.202C198.14 369.202 198.534 369.297 198.89 369.479V369.479ZM195.24 371.579C195.38 371.625 195.502 371.715 195.588 371.834C195.675 371.953 195.721 372.097 195.721 372.244C195.721 372.392 195.675 372.535 195.588 372.655C195.502 372.774 195.38 372.863 195.24 372.909C194.883 373.087 194.489 373.18 194.09 373.18C193.691 373.18 193.297 373.087 192.94 372.909C192.8 372.863 192.678 372.774 192.591 372.655C192.505 372.535 192.458 372.392 192.458 372.244C192.458 372.097 192.505 371.953 192.591 371.834C192.678 371.715 192.8 371.625 192.94 371.579C193.297 371.4 193.69 371.307 194.09 371.307C194.489 371.307 194.883 371.4 195.24 371.579V371.579ZM191.6 373.679C191.74 373.725 191.862 373.815 191.948 373.934C192.035 374.053 192.081 374.197 192.081 374.344C192.081 374.492 192.035 374.635 191.948 374.755C191.862 374.874 191.74 374.963 191.6 375.009C191.244 375.187 190.852 375.28 190.455 375.28C190.057 375.28 189.665 375.187 189.31 375.009C189.17 374.963 189.048 374.874 188.961 374.755C188.875 374.635 188.828 374.492 188.828 374.344C188.828 374.197 188.875 374.053 188.961 373.934C189.048 373.815 189.17 373.725 189.31 373.679C189.665 373.502 190.057 373.409 190.455 373.409C190.852 373.409 191.244 373.502 191.6 373.679V373.679ZM188 375.749C188.64 376.109 188.64 376.749 188 377.069C187.646 377.252 187.253 377.347 186.855 377.347C186.456 377.347 186.064 377.252 185.71 377.069C185.573 377.021 185.455 376.932 185.372 376.814C185.288 376.695 185.243 376.554 185.243 376.409C185.243 376.265 185.288 376.123 185.372 376.005C185.455 375.887 185.573 375.798 185.71 375.749C186.064 375.567 186.456 375.472 186.855 375.472C187.253 375.472 187.646 375.567 188 375.749V375.749ZM178.55 381.329C177.85 381.009 177.75 380.419 178.32 380.019C178.664 379.818 179.051 379.701 179.449 379.679C179.847 379.656 180.245 379.728 180.61 379.889C181.3 380.219 181.4 380.809 180.83 381.209C180.485 381.422 180.094 381.548 179.69 381.576C179.285 381.603 178.881 381.533 178.51 381.369L178.55 381.329ZM182.19 379.229C181.49 378.899 181.39 378.309 181.96 377.909C182.306 377.712 182.693 377.598 183.091 377.577C183.488 377.557 183.885 377.629 184.25 377.789C184.94 378.109 185.04 378.699 184.47 379.099C184.126 379.314 183.735 379.441 183.331 379.471C182.927 379.5 182.521 379.431 182.15 379.269L182.19 379.229Z" fill="#B1B4C4"/>
<path d="M221.46 359.819L218.25 360.929L211.25 356.929L213.17 355.069L205.33 354.169C205.33 354.169 206.19 356.059 204.83 356.849L166.16 379.169C162.43 381.319 162.43 384.819 166.16 386.969C168.254 388.035 170.57 388.59 172.92 388.59C175.269 388.59 177.586 388.035 179.68 386.969L218.3 364.679H218.39C219.75 363.889 223.01 363.679 223.01 363.679L221.46 359.819ZM202.53 365.979C202.67 366.025 202.792 366.115 202.878 366.234C202.965 366.353 203.011 366.497 203.011 366.644C203.011 366.792 202.965 366.935 202.878 367.055C202.792 367.174 202.67 367.263 202.53 367.309C202.173 367.487 201.779 367.58 201.38 367.58C200.981 367.58 200.587 367.487 200.23 367.309C200.09 367.263 199.968 367.174 199.881 367.055C199.795 366.935 199.748 366.792 199.748 366.644C199.748 366.497 199.795 366.353 199.881 366.234C199.968 366.115 200.09 366.025 200.23 365.979C200.587 365.802 200.981 365.709 201.38 365.709C201.779 365.709 202.173 365.802 202.53 365.979V365.979ZM198.89 368.089C199.026 368.138 199.144 368.227 199.228 368.345C199.312 368.463 199.357 368.605 199.357 368.749C199.357 368.894 199.312 369.035 199.228 369.154C199.144 369.272 199.026 369.361 198.89 369.409C198.534 369.592 198.14 369.687 197.74 369.687C197.34 369.687 196.946 369.592 196.59 369.409C196.453 369.361 196.335 369.272 196.252 369.154C196.168 369.035 196.123 368.894 196.123 368.749C196.123 368.605 196.168 368.463 196.252 368.345C196.335 368.227 196.453 368.138 196.59 368.089C196.946 367.907 197.34 367.812 197.74 367.812C198.14 367.812 198.534 367.907 198.89 368.089ZM195.24 370.189C195.376 370.238 195.494 370.327 195.578 370.445C195.662 370.563 195.707 370.705 195.707 370.849C195.707 370.994 195.662 371.135 195.578 371.254C195.494 371.372 195.376 371.461 195.24 371.509C194.884 371.692 194.49 371.787 194.09 371.787C193.69 371.787 193.296 371.692 192.94 371.509C192.803 371.461 192.685 371.372 192.602 371.254C192.518 371.135 192.473 370.994 192.473 370.849C192.473 370.705 192.518 370.563 192.602 370.445C192.685 370.327 192.803 370.238 192.94 370.189C193.295 370.005 193.69 369.909 194.09 369.909C194.49 369.909 194.884 370.005 195.24 370.189V370.189ZM191.6 372.289C191.741 372.333 191.865 372.42 191.953 372.539C192.041 372.658 192.089 372.802 192.089 372.949C192.089 373.097 192.041 373.241 191.953 373.36C191.865 373.479 191.741 373.566 191.6 373.609C191.246 373.792 190.853 373.887 190.455 373.887C190.056 373.887 189.664 373.792 189.31 373.609C189.173 373.561 189.055 373.472 188.972 373.354C188.888 373.235 188.843 373.094 188.843 372.949C188.843 372.805 188.888 372.663 188.972 372.545C189.055 372.427 189.173 372.338 189.31 372.289C189.664 372.107 190.056 372.012 190.455 372.012C190.853 372.012 191.246 372.107 191.6 372.289V372.289ZM188 374.389C188.152 374.427 188.287 374.514 188.384 374.637C188.481 374.76 188.534 374.913 188.534 375.069C188.534 375.226 188.481 375.378 188.384 375.502C188.287 375.625 188.152 375.712 188 375.749C187.644 375.927 187.252 376.02 186.855 376.02C186.457 376.02 186.065 375.927 185.71 375.749C185.57 375.703 185.448 375.614 185.361 375.495C185.275 375.375 185.228 375.232 185.228 375.084C185.228 374.937 185.275 374.793 185.361 374.674C185.448 374.555 185.57 374.465 185.71 374.419C186.063 374.237 186.454 374.139 186.851 374.134C187.249 374.129 187.642 374.216 188 374.389V374.389ZM178.55 379.979C177.85 379.649 177.75 379.059 178.32 378.659C178.665 378.46 179.052 378.345 179.449 378.322C179.847 378.3 180.244 378.371 180.61 378.529C181.3 378.859 181.4 379.449 180.83 379.849C180.483 380.057 180.09 380.178 179.686 380.2C179.282 380.223 178.878 380.147 178.51 379.979H178.55ZM182.19 377.879C181.49 377.549 181.39 376.959 181.96 376.559C182.304 376.358 182.691 376.241 183.089 376.219C183.487 376.196 183.885 376.268 184.25 376.429C184.94 376.759 185.04 377.349 184.47 377.749C184.123 377.957 183.73 378.078 183.326 378.1C182.922 378.123 182.518 378.047 182.15 377.879H182.19Z" fill="#D6D8E5"/>
<path opacity="0.4" d="M249.3 349.889C249.323 349.894 249.347 349.894 249.37 349.889L276.73 332.329C276.588 330.549 276.321 328.782 275.93 327.039V327.039C273.832 325.979 271.515 325.427 269.165 325.427C266.815 325.427 264.497 325.979 262.4 327.039L235.78 342.369C234.42 343.149 231.15 343.149 231.15 343.149L232.71 347.149L235.92 346.039L242.92 350.039L246.86 350.659V352.369C247.505 351.393 248.334 350.551 249.3 349.889V349.889ZM265.39 336.889L258.78 333.069C258.629 333.019 258.498 332.922 258.406 332.793C258.313 332.663 258.263 332.508 258.263 332.349C258.263 332.19 258.313 332.035 258.406 331.906C258.498 331.777 258.629 331.68 258.78 331.629C259.168 331.437 259.596 331.337 260.03 331.337C260.463 331.337 260.891 331.437 261.28 331.629L267.88 335.439C268.029 335.493 268.158 335.591 268.25 335.721C268.341 335.851 268.39 336.006 268.39 336.164C268.39 336.323 268.341 336.478 268.25 336.608C268.158 336.738 268.029 336.836 267.88 336.889C267.494 337.083 267.068 337.185 266.636 337.186C266.204 337.188 265.777 337.09 265.39 336.899V336.889Z" fill="#D6D8E5"/>
<path d="M249.31 348.179C249.337 348.169 249.361 348.151 249.38 348.129L275.93 332.809C279.66 330.649 279.66 327.159 275.93 324.999C273.833 323.935 271.516 323.38 269.165 323.38C266.814 323.38 264.496 323.935 262.4 324.999L235.78 340.369C234.42 341.149 231.15 341.159 231.15 341.159L232.71 345.159L235.92 344.049L242.92 348.049L241 349.949L246.86 350.709C247.503 349.714 248.336 348.855 249.31 348.179V348.179ZM265.39 334.899L258.78 331.089C258.629 331.039 258.498 330.942 258.406 330.813C258.313 330.683 258.263 330.528 258.263 330.369C258.263 330.21 258.313 330.055 258.406 329.926C258.498 329.797 258.629 329.7 258.78 329.649C259.167 329.452 259.595 329.349 260.03 329.349C260.464 329.349 260.893 329.452 261.28 329.649L267.88 333.459C268.03 333.51 268.161 333.607 268.254 333.736C268.346 333.865 268.396 334.02 268.396 334.179C268.396 334.338 268.346 334.493 268.254 334.623C268.161 334.752 268.03 334.849 267.88 334.899C267.494 335.097 267.068 335.2 266.635 335.2C266.202 335.2 265.775 335.097 265.39 334.899V334.899Z" fill="#B1B4C4"/>
<path d="M249.31 346.749H249.38L275.93 331.419C279.66 329.269 279.66 325.769 275.93 323.619C273.833 322.555 271.516 322 269.165 322C266.814 322 264.496 322.555 262.4 323.619L235.78 338.979C234.42 339.759 231.15 339.759 231.15 339.759L232.71 343.759L235.92 342.649L242.92 346.649L241 348.559L246.68 349.149C247.431 348.222 248.318 347.413 249.31 346.749V346.749ZM265.39 333.469L258.78 329.749C258.629 329.699 258.498 329.602 258.406 329.473C258.313 329.343 258.263 329.188 258.263 329.029C258.263 328.87 258.313 328.715 258.406 328.586C258.498 328.457 258.629 328.36 258.78 328.309C259.167 328.112 259.595 328.009 260.03 328.009C260.464 328.009 260.893 328.112 261.28 328.309L267.88 332.119C268.03 332.17 268.161 332.267 268.254 332.396C268.346 332.525 268.396 332.68 268.396 332.839C268.396 332.998 268.346 333.153 268.254 333.283C268.161 333.412 268.03 333.509 267.88 333.559C267.489 333.744 267.061 333.835 266.629 333.826C266.197 333.818 265.773 333.709 265.39 333.509V333.469Z" fill="#D6D8E5"/>
<path d="M218.05 362.329L207.33 356.139C204 354.219 204.42 350.859 208.27 348.629L220.89 341.349C224.74 339.119 230.56 338.879 233.89 340.809L244.61 346.999C247.95 348.919 247.53 352.279 243.68 354.509L231.06 361.749C227.21 364.019 221.38 364.259 218.05 362.329Z" fill="#20232D"/>
<path d="M209.08 349.279L222 341.819C225.24 339.949 230.13 339.749 232.93 341.369L243.65 347.549C246.45 349.169 246.1 351.999 242.86 353.859L229.94 361.319C226.71 363.189 221.82 363.389 219.02 361.779L208.3 355.589C205.5 353.969 205.85 351.139 209.08 349.279Z" fill="#2B303F"/>
<path opacity="0.5" d="M209.08 349.279L222 341.819C225.24 339.949 230.13 339.749 232.93 341.369L243.65 347.549C246.45 349.169 246.1 351.999 242.86 353.859L229.94 361.319C226.71 363.189 221.82 363.389 219.02 361.779L208.3 355.589C205.5 353.969 205.85 351.139 209.08 349.279Z" fill="url(#paint0_linear)"/>
<path d="M243.963 357.432C244.675 356.198 244.675 354.864 243.962 354.453C243.25 354.041 242.094 354.708 241.382 355.942C240.669 357.176 240.67 358.51 241.382 358.921C242.095 359.333 243.25 358.666 243.963 357.432Z" fill="#696F7C"/>
<path d="M243.86 354.409L244.8 354.939L243.67 355.659L243.86 354.409Z" fill="#696F7C"/>
<path d="M242.36 359.479L241.33 358.899L242.57 358.229L242.36 359.479Z" fill="#696F7C"/>
<path d="M244.863 357.943C245.575 356.709 245.575 355.375 244.862 354.963C244.15 354.552 242.995 355.219 242.282 356.453C241.57 357.687 241.57 359.021 242.282 359.432C242.995 359.844 244.15 359.177 244.863 357.943Z" fill="#757B89"/>
<path d="M635.808 452.565L385.738 308.165C382.228 306.165 379.388 300.705 379.388 296.035V102.565C379.388 97.8849 382.228 95.7349 385.738 97.7649L635.808 242.165C639.318 244.165 642.158 249.625 642.158 254.295V447.765C642.198 452.445 639.358 454.595 635.808 452.565Z" fill="#B1B4C4"/>
<path d="M637.138 454.565L639.908 452.965L638.708 444.755L637.138 454.565Z" fill="#B1B4C4"/>
<path d="M378.938 98.9349L381.668 97.3549L385.588 99.5949C385.588 99.5949 381.408 100.225 381.308 100.205C381.208 100.185 378.938 98.9349 378.938 98.9349Z" fill="#B1B4C4"/>
<path d="M633.558 453.935L383.448 309.495C379.938 307.495 377.088 302.035 377.088 297.355V103.935C377.088 99.2549 379.938 97.1049 383.448 99.1349L633.558 243.535C637.068 245.535 639.908 250.995 639.908 255.675V449.095C639.908 453.765 637.068 455.935 633.558 453.935Z" fill="#E4E7F2"/>
<path d="M633.118 454.145L383.008 309.745C379.498 307.745 376.648 302.285 376.648 297.605V104.135C376.648 99.4649 379.498 97.3149 383.008 99.3349L633.118 243.735C636.618 245.735 639.468 251.195 639.468 255.875V449.345C639.468 454.025 636.618 456.175 633.118 454.145Z" fill="#D6D8E5"/>
<path d="M636.028 442.375L379.808 294.465L379.958 104.935C379.958 102.995 381.318 102.205 382.958 103.175L633.068 247.575C633.946 248.157 634.675 248.937 635.196 249.852C635.717 250.768 636.016 251.793 636.068 252.845L636.028 442.375Z" fill="white"/>
<path opacity="0.5" d="M635.948 442.385L379.808 294.475L379.888 104.935C379.888 102.995 381.248 102.205 382.888 103.175L632.998 247.575C633.876 248.157 634.604 248.938 635.125 249.853C635.646 250.768 635.945 251.793 635.998 252.845L635.948 442.385Z" fill="url(#paint1_linear)"/>
<path opacity="0.4" d="M444.478 566.565L194.368 422.165C190.858 420.165 191.298 416.605 195.368 414.265L362.918 317.525C366.918 315.195 373.098 314.935 376.598 316.965L626.718 461.365C630.218 463.365 629.778 466.925 625.718 469.265L458.158 566.005C454.108 568.335 447.978 568.595 444.478 566.565Z" fill="#D6D8E5"/>
<path d="M449.938 563.285L199.808 418.935C196.298 416.935 196.738 413.375 200.808 411.035L368.358 314.305C372.358 311.965 378.538 311.705 382.048 313.735L632.158 458.135C635.668 460.135 635.228 463.695 631.158 466.035L463.628 562.725C459.578 565.055 453.448 565.315 449.938 563.285Z" fill="#B1B4C4"/>
<path d="M197.458 415.625V410.905L202.758 413.125L197.458 415.625Z" fill="#B1B4C4"/>
<path d="M634.528 461.615V457.005L630.608 458.355L633.208 462.175L634.528 461.615Z" fill="#B1B4C4"/>
<path d="M449.938 559.315L199.808 414.935C196.298 412.935 196.738 409.375 200.808 407.035L368.358 310.295C372.358 307.955 378.538 307.705 382.048 309.735L632.158 454.135C635.668 456.135 635.228 459.695 631.158 462.035L463.628 558.745C459.578 561.085 453.448 561.345 449.938 559.315Z" fill="#E4E7F2"/>
<path d="M449.938 558.705L199.808 414.305C196.298 412.305 196.738 408.735 200.808 406.405L368.358 309.665C372.358 307.325 378.538 307.075 382.048 309.095L632.158 453.505C635.668 455.505 635.228 459.065 631.158 461.405L463.628 558.135C459.578 560.475 453.448 560.725 449.938 558.705Z" fill="#D6D8E5"/>
<path d="M363.718 342.295L352.078 335.575C351.078 335.025 351.248 334.065 352.338 333.435L363.458 327.015C364.02 326.702 364.648 326.526 365.29 326.5C365.933 326.474 366.573 326.599 367.158 326.865L378.808 333.585C379.758 334.135 379.638 335.095 378.538 335.725L367.428 342.145C366.864 342.458 366.235 342.634 365.591 342.66C364.947 342.686 364.305 342.561 363.718 342.295V342.295Z" fill="#2B303F"/>
<path d="M380.208 351.815L368.558 345.085C367.608 344.545 367.728 343.585 368.828 342.945L379.938 336.535C380.502 336.222 381.131 336.046 381.775 336.019C382.419 335.993 383.061 336.119 383.648 336.385L395.288 343.105C396.288 343.655 396.118 344.615 395.028 345.245L383.908 351.655C383.348 351.972 382.72 352.151 382.077 352.179C381.434 352.207 380.794 352.082 380.208 351.815Z" fill="#2B303F"/>
<path d="M396.878 361.445L385.238 354.715C384.238 354.165 384.408 353.205 385.498 352.575L396.618 346.165C397.178 345.848 397.806 345.669 398.449 345.641C399.092 345.613 399.732 345.738 400.318 346.005L411.968 352.735C412.968 353.275 412.798 354.235 411.698 354.875L400.588 361.285C400.024 361.596 399.396 361.773 398.752 361.801C398.108 361.828 397.467 361.707 396.878 361.445V361.445Z" fill="#2B303F"/>
<path d="M413.178 370.845L401.528 364.125C400.578 363.575 400.698 362.615 401.798 361.985L412.908 355.565C413.472 355.252 414.101 355.076 414.745 355.049C415.39 355.023 416.031 355.149 416.618 355.415L428.268 362.135C429.218 362.685 429.098 363.645 427.998 364.275L416.888 370.695C416.324 371.008 415.695 371.184 415.051 371.21C414.407 371.236 413.765 371.111 413.178 370.845V370.845Z" fill="#2B303F"/>
<path d="M429.668 380.365L418.018 373.645C417.018 373.095 417.188 372.135 418.288 371.505L429.398 365.085C429.962 364.772 430.591 364.596 431.235 364.569C431.879 364.543 432.521 364.669 433.108 364.935L444.748 371.655C445.698 372.205 445.578 373.165 444.478 373.795L433.368 380.215C432.806 380.528 432.179 380.704 431.536 380.73C430.893 380.756 430.253 380.631 429.668 380.365V380.365Z" fill="#2B303F"/>
<path d="M446.148 389.935L434.508 383.215C433.558 382.665 433.668 381.705 434.768 381.075L445.878 374.655C446.442 374.342 447.071 374.166 447.715 374.139C448.359 374.113 449.001 374.239 449.588 374.505L461.238 381.225C462.188 381.775 462.068 382.735 460.968 383.365L449.858 389.785C449.294 390.098 448.665 390.274 448.021 390.3C447.377 390.326 446.735 390.201 446.148 389.935V389.935Z" fill="#2B303F"/>
<path d="M462.638 399.405L450.988 392.685C450.038 392.135 450.158 391.175 451.258 390.545L462.368 384.125C462.932 383.812 463.561 383.636 464.205 383.609C464.85 383.583 465.491 383.709 466.078 383.975L477.718 390.695C478.668 391.245 478.548 392.205 477.458 392.835L466.338 399.245C465.778 399.562 465.15 399.741 464.507 399.769C463.864 399.797 463.224 399.672 462.638 399.405Z" fill="#2B303F"/>
<path d="M479.118 408.935L467.478 402.205C466.528 401.655 466.648 400.705 467.738 400.065L478.858 393.655C479.418 393.338 480.046 393.159 480.689 393.131C481.332 393.103 481.972 393.228 482.558 393.495L494.208 400.225C495.208 400.775 495.038 401.725 493.938 402.365L482.808 408.765C482.249 409.08 481.624 409.259 480.983 409.289C480.342 409.319 479.704 409.197 479.118 408.935V408.935Z" fill="#2B303F"/>
<path d="M495.608 418.435L483.958 411.715C483.008 411.165 483.128 410.205 484.228 409.575L495.338 403.165C495.9 402.848 496.529 402.669 497.174 402.641C497.819 402.613 498.461 402.738 499.048 403.005L510.688 409.735C511.638 410.275 511.518 411.235 510.428 411.875L499.318 418.285C498.754 418.598 498.125 418.774 497.481 418.8C496.837 418.826 496.195 418.701 495.608 418.435V418.435Z" fill="#2B303F"/>
<path d="M512.088 427.935L500.448 421.215C499.498 420.665 499.618 419.705 500.708 419.075L511.808 412.675C512.37 412.362 512.998 412.186 513.64 412.16C514.283 412.134 514.923 412.259 515.508 412.525L527.158 419.245C528.108 419.795 527.988 420.755 526.888 421.385L515.808 427.805C515.242 428.116 514.61 428.29 513.964 428.313C513.318 428.335 512.675 428.206 512.088 427.935V427.935Z" fill="#2B303F"/>
<path d="M528.578 437.475L516.928 430.755C515.978 430.205 516.098 429.245 517.198 428.615L528.308 422.195C528.872 421.882 529.501 421.706 530.145 421.679C530.789 421.653 531.431 421.779 532.018 422.045L543.668 428.765C544.618 429.315 544.498 430.275 543.398 430.905L532.288 437.325C531.724 437.638 531.095 437.814 530.451 437.84C529.807 437.866 529.165 437.741 528.578 437.475Z" fill="#2B303F"/>
<path d="M545.068 446.995L533.418 440.275C532.468 439.725 532.588 438.765 533.688 438.135L544.808 431.715C545.372 431.402 546.001 431.226 546.645 431.199C547.289 431.173 547.931 431.299 548.518 431.565L560.158 438.285C561.158 438.835 560.988 439.795 559.888 440.425L548.808 446.845C548.241 447.164 547.606 447.344 546.956 447.37C546.306 447.396 545.659 447.268 545.068 446.995V446.995Z" fill="#2B303F"/>
<path d="M561.548 456.515L549.908 449.785C548.908 449.235 549.068 448.285 550.168 447.645L561.278 441.235C561.841 440.92 562.47 440.742 563.114 440.714C563.758 440.687 564.4 440.81 564.988 441.075L576.638 447.805C577.588 448.355 577.468 449.305 576.368 449.945L565.258 456.355C564.696 456.672 564.067 456.851 563.422 456.879C562.778 456.907 562.136 456.782 561.548 456.515V456.515Z" fill="#2B303F"/>
<path d="M585.978 470.615L566.388 459.305C565.438 458.755 565.558 457.795 566.658 457.165L577.808 450.755C578.37 450.438 578.999 450.259 579.644 450.231C580.289 450.203 580.931 450.328 581.518 450.595L601.058 461.935C602.008 462.485 601.888 463.445 600.798 464.075L589.678 470.495C589.114 470.803 588.485 470.974 587.842 470.995C587.2 471.016 586.561 470.886 585.978 470.615V470.615Z" fill="#2B303F"/>
<path d="M372.198 365.635L360.548 358.935C359.548 358.385 359.718 357.425 360.818 356.795L371.928 350.375C372.492 350.062 373.121 349.886 373.765 349.859C374.41 349.833 375.051 349.959 375.638 350.225L387.278 356.935C388.228 357.485 388.108 358.445 387.018 359.075L375.898 365.495C375.335 365.806 374.707 365.981 374.065 366.005C373.422 366.029 372.783 365.903 372.198 365.635V365.635Z" fill="#2B303F"/>
<path d="M388.708 375.175L377.068 368.455C376.118 367.905 376.238 366.945 377.328 366.315L388.448 359.935C389.01 359.622 389.638 359.446 390.28 359.42C390.923 359.394 391.563 359.519 392.148 359.785L403.808 366.465C404.758 367.015 404.638 367.975 403.538 368.605L392.428 375.025C391.863 375.339 391.232 375.517 390.586 375.543C389.94 375.569 389.297 375.443 388.708 375.175V375.175Z" fill="#2B303F"/>
<path d="M405.228 384.705L393.578 377.985C392.578 377.435 392.748 376.475 393.848 375.845L404.958 369.425C405.522 369.112 406.151 368.936 406.795 368.91C407.44 368.883 408.081 369.009 408.668 369.275L420.308 375.995C421.258 376.545 421.138 377.505 420.048 378.135L408.928 384.555C408.366 384.868 407.739 385.044 407.096 385.07C406.453 385.096 405.814 384.971 405.228 384.705V384.705Z" fill="#2B303F"/>
<path d="M421.738 394.245L410.088 387.515C409.138 386.975 409.258 386.015 410.358 385.375L421.468 378.935C422.031 378.62 422.66 378.442 423.304 378.414C423.948 378.387 424.59 378.51 425.178 378.775L436.808 385.535C437.758 386.085 437.638 387.035 436.538 387.675L425.428 394.085C424.868 394.398 424.243 394.576 423.602 394.604C422.961 394.632 422.323 394.509 421.738 394.245V394.245Z" fill="#2B303F"/>
<path d="M438.118 403.705L426.478 396.935C425.528 396.385 425.648 395.435 426.738 394.795L437.858 388.385C438.418 388.068 439.046 387.889 439.689 387.861C440.332 387.833 440.972 387.958 441.558 388.225L453.208 394.955C454.208 395.495 454.038 396.455 452.938 397.095L441.808 403.545C441.248 403.856 440.622 404.033 439.982 404.06C439.341 404.088 438.703 403.966 438.118 403.705Z" fill="#2B303F"/>
<path d="M454.638 413.235L442.988 406.515C442.038 405.965 442.158 405.005 443.258 404.375L454.368 397.935C454.932 397.622 455.561 397.446 456.205 397.419C456.85 397.393 457.491 397.519 458.078 397.785L469.718 404.505C470.668 405.055 470.548 406.015 469.458 406.645L458.338 413.065C457.778 413.381 457.151 413.561 456.508 413.59C455.866 413.62 455.225 413.498 454.638 413.235Z" fill="#2B303F"/>
<path d="M471.148 422.765L459.498 416.045C458.548 415.495 458.668 414.535 459.768 413.905L470.878 407.495C471.44 407.178 472.069 406.999 472.714 406.971C473.359 406.943 474.001 407.068 474.588 407.335L486.238 414.065C487.188 414.605 487.068 415.565 485.968 416.205L474.858 422.615C474.294 422.928 473.665 423.104 473.021 423.13C472.377 423.156 471.735 423.031 471.148 422.765Z" fill="#2B303F"/>
<path d="M487.658 432.305L476.018 425.585C475.068 425.035 475.188 424.075 476.288 423.445L487.398 417.025C487.96 416.712 488.588 416.536 489.23 416.51C489.873 416.484 490.513 416.609 491.098 416.875L502.748 423.595C503.698 424.145 503.578 425.105 502.478 425.735L491.368 432.155C490.804 432.468 490.175 432.644 489.531 432.67C488.887 432.696 488.245 432.571 487.658 432.305Z" fill="#2B303F"/>
<path d="M504.178 441.835L492.528 435.115C491.528 434.565 491.698 433.605 492.798 432.975L503.908 426.555C504.472 426.242 505.101 426.066 505.745 426.039C506.389 426.013 507.031 426.139 507.618 426.405L519.258 433.125C520.208 433.675 520.098 434.635 518.998 435.265L507.888 441.685C507.324 441.998 506.695 442.174 506.051 442.2C505.407 442.226 504.765 442.101 504.178 441.835V441.835Z" fill="#2B303F"/>
<path d="M520.688 451.375L509.048 444.645C508.098 444.105 508.218 443.145 509.308 442.505L520.428 436.095C520.99 435.783 521.617 435.606 522.259 435.578C522.901 435.55 523.541 435.672 524.128 435.935L535.808 442.665C536.758 443.215 536.638 444.175 535.538 444.805L524.428 451.215C523.862 451.537 523.228 451.719 522.577 451.747C521.927 451.774 521.279 451.647 520.688 451.375Z" fill="#2B303F"/>
<path d="M537.208 460.935L525.558 454.215C524.608 453.665 524.728 452.705 525.828 452.075L536.938 445.655C537.502 445.342 538.131 445.166 538.775 445.139C539.42 445.113 540.061 445.239 540.648 445.505L552.288 452.225C553.238 452.775 553.118 453.735 552.028 454.365L540.908 460.785C540.346 461.098 539.719 461.274 539.076 461.3C538.433 461.326 537.794 461.201 537.208 460.935Z" fill="#2B303F"/>
<path d="M553.718 470.445L542.078 463.715C541.128 463.165 541.238 462.215 542.338 461.575L553.448 455.165C554.011 454.85 554.64 454.672 555.284 454.644C555.928 454.617 556.57 454.74 557.158 455.005L568.808 461.735C569.758 462.285 569.638 463.235 568.538 463.875L557.428 470.285C556.866 470.602 556.237 470.781 555.592 470.809C554.948 470.837 554.305 470.712 553.718 470.445Z" fill="#2B303F"/>
<path d="M355.678 356.105L336.098 344.795C335.148 344.245 335.268 343.295 336.358 342.655L347.478 336.245C348.039 335.928 348.666 335.749 349.309 335.721C349.952 335.693 350.593 335.818 351.178 336.085L370.808 347.395C371.758 347.945 371.638 348.905 370.538 349.535L359.388 355.935C358.826 356.251 358.198 356.431 357.553 356.46C356.909 356.49 356.267 356.368 355.678 356.105V356.105Z" fill="#2B303F"/>
<path d="M585.178 471.225L573.538 464.505C573.003 464.231 572.41 464.088 571.808 464.088C571.207 464.088 570.614 464.231 570.078 464.505L558.338 471.285C557.338 471.835 557.338 472.725 558.338 473.285L559.268 473.825C560.148 474.325 560.138 475.155 559.268 475.665L546.808 482.825C545.808 483.385 545.808 484.275 546.808 484.825L554.218 489.105C554.753 489.376 555.344 489.518 555.943 489.518C556.543 489.518 557.134 489.376 557.668 489.105L569.288 482.405L571.688 481.015L573.418 480.015L575.158 479.015L585.158 473.245C586.128 472.665 586.128 471.775 585.178 471.225Z" fill="#2B303F"/>
<path d="M299.868 379.235L288.228 372.515C287.228 371.965 287.398 371.005 288.488 370.375L299.608 363.935C300.17 363.622 300.798 363.446 301.44 363.42C302.083 363.394 302.723 363.519 303.308 363.785L314.958 370.505C315.908 371.055 315.788 372.015 314.688 372.645L303.578 379.065C303.016 379.381 302.388 379.561 301.743 379.59C301.099 379.62 300.457 379.498 299.868 379.235V379.235Z" fill="#2B303F"/>
<path d="M316.308 388.725L304.668 382.005C303.668 381.455 303.838 380.495 304.928 379.865L316.048 373.445C316.61 373.132 317.238 372.956 317.88 372.93C318.523 372.904 319.163 373.029 319.748 373.295L331.398 380.015C332.348 380.565 332.228 381.525 331.128 382.155L320.018 388.575C319.454 388.888 318.825 389.064 318.181 389.09C317.537 389.116 316.895 388.991 316.308 388.725V388.725Z" fill="#2B303F"/>
<path d="M332.748 398.215L321.108 391.495C320.108 390.945 320.268 389.985 321.368 389.355L332.478 382.935C333.042 382.622 333.671 382.446 334.315 382.419C334.96 382.393 335.601 382.519 336.188 382.785L347.808 389.505C348.758 390.055 348.638 391.015 347.538 391.645L336.428 398.065C335.868 398.373 335.244 398.547 334.606 398.573C333.967 398.599 333.331 398.476 332.748 398.215V398.215Z" fill="#2B303F"/>
<path d="M472.748 479.045L461.098 472.315C460.098 471.775 460.268 470.815 461.368 470.175L472.478 463.765C473.041 463.45 473.67 463.272 474.314 463.244C474.958 463.217 475.6 463.34 476.188 463.605L487.808 470.335C488.808 470.885 488.638 471.835 487.538 472.475L476.448 478.935C475.884 479.244 475.254 479.415 474.611 479.434C473.968 479.453 473.33 479.32 472.748 479.045V479.045Z" fill="#2B303F"/>
<path d="M489.178 488.535L477.538 481.815C476.538 481.265 476.708 480.305 477.798 479.675L488.918 473.255C489.48 472.942 490.108 472.766 490.75 472.74C491.393 472.714 492.033 472.839 492.618 473.105L504.268 479.825C505.268 480.375 505.098 481.335 503.998 481.965L492.888 488.385C492.324 488.698 491.695 488.874 491.051 488.9C490.407 488.926 489.765 488.801 489.178 488.535Z" fill="#2B303F"/>
<path d="M505.618 498.025L493.978 491.305C493.028 490.755 493.148 489.795 494.238 489.165L505.358 482.745C505.92 482.432 506.548 482.256 507.19 482.23C507.833 482.204 508.473 482.329 509.058 482.595L520.708 489.315C521.708 489.865 521.538 490.825 520.438 491.455L509.328 497.875C508.764 498.188 508.135 498.364 507.491 498.39C506.847 498.416 506.205 498.291 505.618 498.025Z" fill="#2B303F"/>
<path d="M522.058 507.515L510.418 500.795C509.468 500.245 509.588 499.285 510.678 498.655L521.808 492.235C522.37 491.922 522.998 491.746 523.64 491.72C524.283 491.694 524.923 491.819 525.508 492.085L537.158 498.805C538.158 499.355 537.988 500.315 536.888 500.945L525.808 507.365C525.239 507.684 524.603 507.864 523.951 507.89C523.299 507.917 522.651 507.788 522.058 507.515V507.515Z" fill="#2B303F"/>
<path d="M353.418 410.155L337.538 400.985C336.588 400.435 336.708 399.475 337.808 398.845L348.918 392.425C349.482 392.112 350.111 391.936 350.755 391.91C351.4 391.883 352.041 392.009 352.628 392.275L368.508 401.445C369.508 401.995 369.338 402.945 368.238 403.585L357.128 409.995C356.566 410.312 355.937 410.491 355.292 410.519C354.648 410.547 354.006 410.422 353.418 410.155Z" fill="#2B303F"/>
<path d="M456.308 469.555L440.428 460.385C439.428 459.835 439.598 458.875 440.688 458.245L451.808 451.825C452.37 451.512 452.998 451.336 453.64 451.31C454.283 451.284 454.923 451.409 455.508 451.675L471.388 460.845C472.338 461.395 472.218 462.345 471.128 462.985L460.008 469.395C459.448 469.712 458.82 469.891 458.177 469.919C457.534 469.947 456.894 469.822 456.308 469.555Z" fill="#2B303F"/>
<path d="M435.628 457.615L358.218 412.935C357.268 412.385 357.388 411.425 358.478 410.795L369.598 404.375C370.16 404.062 370.788 403.886 371.43 403.86C372.073 403.834 372.713 403.959 373.298 404.225L450.718 448.935C451.668 449.485 451.548 450.445 450.448 451.075L439.338 457.495C438.772 457.803 438.142 457.974 437.497 457.995C436.853 458.016 436.213 457.886 435.628 457.615V457.615Z" fill="#2B303F"/>
<path d="M360.698 377.455L349.058 370.735C348.108 370.185 348.228 369.225 349.328 368.595L360.438 362.175C361 361.862 361.628 361.686 362.27 361.66C362.913 361.634 363.553 361.759 364.138 362.025L375.808 368.745C376.808 369.295 376.638 370.255 375.538 370.885L364.428 377.305C363.862 377.621 363.229 377.799 362.581 377.825C361.933 377.851 361.288 377.725 360.698 377.455Z" fill="#2B303F"/>
<path d="M377.168 386.935L365.528 380.205C364.578 379.655 364.698 378.705 365.788 378.065L376.908 371.655C377.469 371.341 378.096 371.162 378.739 371.135C379.382 371.107 380.022 371.23 380.608 371.495L392.258 378.225C393.258 378.775 393.088 379.725 391.988 380.365L380.878 386.775C380.316 387.092 379.687 387.271 379.042 387.299C378.398 387.327 377.755 387.202 377.168 386.935V386.935Z" fill="#2B303F"/>
<path d="M393.638 396.465L381.988 389.745C380.988 389.195 381.158 388.235 382.258 387.605L393.368 381.185C393.932 380.872 394.561 380.696 395.205 380.669C395.85 380.643 396.491 380.769 397.078 381.035L408.718 387.755C409.718 388.305 409.558 389.265 408.458 389.895L397.348 396.315C396.784 396.628 396.155 396.804 395.511 396.83C394.867 396.856 394.225 396.731 393.638 396.465Z" fill="#2B303F"/>
<path d="M410.108 405.935L398.458 399.215C397.458 398.665 397.628 397.705 398.728 397.075L409.808 390.695C410.372 390.382 411.001 390.206 411.645 390.179C412.29 390.153 412.931 390.279 413.518 390.545L425.158 397.265C426.158 397.815 425.988 398.775 424.898 399.405L413.808 405.825C413.243 406.131 412.614 406.301 411.971 406.32C411.329 406.339 410.69 406.207 410.108 405.935V405.935Z" fill="#2B303F"/>
<path d="M426.568 415.485L414.928 408.765C413.928 408.215 414.098 407.255 415.188 406.625L426.308 400.205C426.87 399.892 427.498 399.716 428.14 399.69C428.783 399.664 429.423 399.789 430.008 400.055L441.658 406.775C442.658 407.325 442.488 408.285 441.388 408.915L430.278 415.335C429.714 415.648 429.085 415.824 428.441 415.85C427.797 415.876 427.155 415.751 426.568 415.485V415.485Z" fill="#2B303F"/>
<path d="M443.038 424.995L431.398 418.265C430.398 417.715 430.558 416.765 431.658 416.125L442.808 409.715C443.37 409.398 443.999 409.219 444.644 409.191C445.289 409.163 445.931 409.288 446.518 409.555L458.168 416.285C459.118 416.835 458.998 417.785 457.898 418.425L446.788 424.835C446.221 425.158 445.585 425.341 444.933 425.369C444.28 425.397 443.631 425.269 443.038 424.995V424.995Z" fill="#2B303F"/>
<path d="M459.508 434.495L447.858 427.775C446.908 427.225 447.028 426.265 448.128 425.635L459.238 419.215C459.802 418.902 460.431 418.726 461.075 418.699C461.72 418.673 462.361 418.799 462.948 419.065L474.588 425.785C475.588 426.335 475.418 427.295 474.328 427.925L463.208 434.345C462.646 434.658 462.019 434.834 461.376 434.86C460.733 434.886 460.094 434.761 459.508 434.495Z" fill="#2B303F"/>
<path d="M475.978 444.005L464.328 437.285C463.378 436.735 463.498 435.775 464.598 435.145L475.708 428.725C476.272 428.412 476.901 428.236 477.545 428.209C478.189 428.183 478.831 428.309 479.418 428.575L491.058 435.295C492.008 435.845 491.888 436.805 490.788 437.435L479.678 443.855C479.116 444.168 478.489 444.344 477.846 444.37C477.203 444.396 476.564 444.271 475.978 444.005V444.005Z" fill="#2B303F"/>
<path d="M492.438 453.515L480.808 446.795C479.858 446.245 479.978 445.285 481.068 444.655L492.188 438.235C492.75 437.922 493.378 437.746 494.02 437.72C494.663 437.694 495.303 437.819 495.888 438.085L507.538 444.805C508.488 445.355 508.368 446.315 507.268 446.945L496.158 453.365C495.593 453.679 494.962 453.857 494.316 453.883C493.67 453.909 493.027 453.783 492.438 453.515V453.515Z" fill="#2B303F"/>
<path d="M508.908 463.025L497.258 456.295C496.308 455.745 496.428 454.795 497.528 454.155L508.638 447.745C509.2 447.428 509.829 447.249 510.474 447.221C511.119 447.193 511.761 447.318 512.348 447.585L523.998 454.315C524.948 454.855 524.828 455.815 523.728 456.455L512.618 462.865C512.055 463.179 511.426 463.358 510.782 463.385C510.138 463.413 509.496 463.29 508.908 463.025Z" fill="#2B303F"/>
<path d="M525.378 472.525L513.728 465.805C512.778 465.255 512.898 464.295 513.998 463.665L525.108 457.245C525.672 456.932 526.301 456.756 526.945 456.729C527.59 456.703 528.231 456.829 528.818 457.095L540.458 463.815C541.458 464.365 541.288 465.325 540.198 465.955L529.078 472.375C528.516 472.688 527.889 472.864 527.246 472.89C526.603 472.916 525.964 472.791 525.378 472.525V472.525Z" fill="#2B303F"/>
<path d="M541.808 482.035L530.168 475.315C529.218 474.765 529.338 473.805 530.438 473.175L541.548 466.755C542.11 466.442 542.738 466.266 543.38 466.24C544.023 466.214 544.663 466.339 545.248 466.605L556.898 473.325C557.848 473.875 557.728 474.835 556.628 475.465L545.548 481.935C544.977 482.245 544.34 482.415 543.69 482.433C543.04 482.45 542.395 482.314 541.808 482.035V482.035Z" fill="#2B303F"/>
<path d="M344.238 367.935L320.148 354.035C319.148 353.485 319.318 352.525 320.418 351.895L331.528 345.475C332.092 345.162 332.721 344.986 333.365 344.959C334.01 344.933 334.651 345.059 335.238 345.325L359.318 359.225C360.318 359.775 360.148 360.735 359.058 361.365L347.938 367.785C347.376 368.098 346.749 368.274 346.106 368.3C345.463 368.326 344.824 368.201 344.238 367.935V367.935Z" fill="#2B303F"/>
<path d="M336.548 381.935L324.908 375.235C323.958 374.685 324.068 373.735 325.168 373.095L336.278 366.685C336.84 366.368 337.469 366.189 338.114 366.161C338.759 366.133 339.401 366.258 339.988 366.525L351.638 373.255C352.588 373.795 352.468 374.755 351.368 375.395L340.258 381.805C339.693 382.115 339.063 382.288 338.418 382.31C337.774 382.333 337.134 382.204 336.548 381.935V381.935Z" fill="#2B303F"/>
<path d="M353.018 391.465L341.368 384.745C340.418 384.195 340.538 383.235 341.638 382.605L352.748 376.185C353.312 375.872 353.941 375.696 354.585 375.669C355.23 375.643 355.871 375.769 356.458 376.035L368.098 382.755C369.098 383.305 368.928 384.265 367.838 384.895L356.718 391.315C356.156 391.628 355.529 391.804 354.886 391.83C354.243 391.856 353.604 391.731 353.018 391.465V391.465Z" fill="#2B303F"/>
<path d="M369.478 400.935L357.808 394.245C356.808 393.695 356.978 392.745 358.078 392.105L369.188 385.695C369.751 385.38 370.38 385.202 371.024 385.174C371.668 385.147 372.31 385.27 372.898 385.535L384.548 392.265C385.548 392.815 385.378 393.765 384.278 394.405L373.168 400.815C372.605 401.122 371.978 401.293 371.337 401.314C370.696 401.335 370.06 401.205 369.478 400.935Z" fill="#2B303F"/>
<path d="M385.938 410.475L374.298 403.755C373.298 403.205 373.468 402.245 374.568 401.615L385.678 395.195C386.24 394.882 386.868 394.706 387.51 394.68C388.153 394.654 388.793 394.779 389.378 395.045L401.028 401.765C401.978 402.315 401.858 403.275 400.758 403.905L389.648 410.325C389.084 410.638 388.455 410.814 387.811 410.84C387.167 410.866 386.525 410.741 385.938 410.475V410.475Z" fill="#2B303F"/>
<path d="M402.408 419.985L390.808 413.265C389.858 412.715 389.978 411.755 391.078 411.125L402.188 404.705C402.752 404.392 403.381 404.216 404.025 404.189C404.669 404.163 405.311 404.289 405.898 404.555L417.538 411.275C418.488 411.825 418.378 412.785 417.278 413.415L406.168 419.825C405.6 420.15 404.962 420.334 404.307 420.362C403.653 420.39 403.002 420.26 402.408 419.985Z" fill="#2B303F"/>
<path d="M418.868 429.485L407.228 422.765C406.278 422.215 406.398 421.255 407.488 420.625L418.608 414.205C419.17 413.892 419.798 413.716 420.44 413.69C421.083 413.664 421.723 413.789 422.308 414.055L433.958 420.775C434.908 421.325 434.788 422.285 433.688 422.915L422.578 429.335C422.014 429.648 421.385 429.824 420.741 429.85C420.097 429.876 419.455 429.751 418.868 429.485V429.485Z" fill="#2B303F"/>
<path d="M435.338 438.995L423.688 432.275C422.738 431.725 422.858 430.765 423.958 430.135L435.068 423.715C435.632 423.402 436.261 423.226 436.905 423.199C437.549 423.173 438.191 423.299 438.778 423.565L450.418 430.285C451.368 430.835 451.248 431.795 450.158 432.425L439.048 438.845C438.484 439.158 437.855 439.334 437.211 439.36C436.567 439.386 435.925 439.261 435.338 438.995V438.995Z" fill="#2B303F"/>
<path d="M451.808 448.505L440.168 441.775C439.218 441.225 439.338 440.275 440.428 439.635L451.548 433.225C452.108 432.908 452.736 432.729 453.379 432.701C454.022 432.673 454.662 432.798 455.248 433.065L466.898 439.795C467.848 440.335 467.728 441.295 466.628 441.935L455.518 448.345C454.955 448.659 454.326 448.838 453.682 448.865C453.038 448.893 452.396 448.77 451.808 448.505Z" fill="#2B303F"/>
<path d="M468.268 458.005L456.618 451.285C455.668 450.735 455.788 449.775 456.888 449.145L467.998 442.725C468.562 442.412 469.191 442.236 469.835 442.209C470.48 442.183 471.121 442.309 471.708 442.575L483.348 449.295C484.298 449.845 484.178 450.805 483.088 451.435L471.968 457.855C471.406 458.168 470.779 458.344 470.136 458.37C469.493 458.396 468.854 458.271 468.268 458.005V458.005Z" fill="#2B303F"/>
<path d="M484.728 467.515L473.088 460.785C472.138 460.245 472.258 459.285 473.348 458.645L484.468 452.235C485.029 451.921 485.656 451.742 486.299 451.715C486.942 451.687 487.582 451.81 488.168 452.075L499.808 458.805C500.758 459.355 500.638 460.305 499.538 460.945L488.428 467.355C487.867 467.67 487.24 467.849 486.597 467.876C485.954 467.904 485.314 467.78 484.728 467.515Z" fill="#2B303F"/>
<path d="M501.198 477.015L489.548 470.295C488.598 469.745 488.718 468.785 489.818 468.155L500.928 461.735C501.492 461.422 502.121 461.246 502.765 461.219C503.41 461.193 504.051 461.319 504.638 461.585L516.278 468.305C517.228 468.855 517.108 469.815 516.018 470.445L504.898 476.865C504.336 477.178 503.709 477.354 503.066 477.38C502.423 477.406 501.784 477.281 501.198 477.015V477.015Z" fill="#2B303F"/>
<path d="M538.038 498.295L506.038 479.805C505.088 479.255 505.198 478.295 506.298 477.665L517.408 471.245C517.972 470.932 518.601 470.756 519.245 470.729C519.889 470.703 520.531 470.829 521.118 471.095L553.118 489.585C554.068 490.125 553.948 491.085 552.848 491.725L541.738 498.135C541.176 498.448 540.549 498.625 539.907 498.653C539.265 498.681 538.625 498.558 538.038 498.295V498.295Z" fill="#2B303F"/>
<path d="M320.088 372.455L304.208 363.285C303.208 362.735 303.378 361.775 304.468 361.145L315.588 354.735C316.149 354.418 316.776 354.239 317.419 354.211C318.062 354.183 318.703 354.308 319.288 354.575L335.168 363.745C336.118 364.295 335.998 365.255 334.908 365.885L323.808 372.305C323.244 372.621 322.613 372.799 321.966 372.825C321.32 372.851 320.676 372.724 320.088 372.455Z" fill="#2B303F"/>
<path d="M602.518 461.065L368.678 326.065C367.678 325.525 367.848 324.565 368.948 323.925L374.508 320.725C375.069 320.411 375.696 320.232 376.339 320.205C376.982 320.177 377.622 320.3 378.208 320.565L612.048 455.565C612.998 456.115 612.878 457.065 611.778 457.705L606.228 460.935C605.663 461.245 605.033 461.418 604.389 461.44C603.744 461.463 603.104 461.334 602.518 461.065V461.065Z" fill="#2B303F"/>
<path d="M457.658 476.415C457.324 477.142 456.753 477.735 456.038 478.095L391.698 515.245C390.615 515.847 389.406 516.187 388.168 516.237C386.929 516.288 385.697 516.047 384.568 515.535L274.568 452.045C274.098 451.801 273.719 451.412 273.488 450.935C273.088 449.935 273.648 448.825 275.108 447.985L339.458 410.825C340.541 410.223 341.75 409.883 342.989 409.833C344.227 409.782 345.46 410.023 346.588 410.535L456.588 474.025C457.033 474.218 457.389 474.57 457.587 475.012C457.785 475.454 457.81 475.955 457.658 476.415V476.415Z" fill="#B1B4C4"/>
<path d="M457.658 476.415C457.324 477.142 456.753 477.735 456.038 478.095L391.698 515.245C390.615 515.847 389.406 516.187 388.168 516.237C386.929 516.288 385.697 516.047 384.568 515.535L274.568 452.045C274.098 451.801 273.719 451.412 273.488 450.935C273.829 450.215 274.399 449.628 275.108 449.265L339.458 412.115C340.541 411.512 341.749 411.171 342.988 411.119C344.226 411.067 345.459 411.305 346.588 411.815L456.588 475.315C457.055 475.555 457.431 475.941 457.658 476.415V476.415Z" fill="#C3C6D1"/>
<path d="M620.318 450.825L386.478 315.825C385.963 315.444 385.544 314.948 385.254 314.377C384.964 313.806 384.812 313.175 384.808 312.535V309.785C384.808 308.515 385.578 307.935 386.528 308.485L620.368 443.485C620.892 443.858 621.321 444.35 621.62 444.92C621.918 445.489 622.079 446.122 622.088 446.765V449.515C622.038 450.795 621.268 451.375 620.318 450.825Z" fill="#2B303F"/>
<path d="M421.808 302.495L398.708 289.185C395.818 287.515 393.468 283.025 393.468 279.185V254.415C393.468 250.555 395.818 248.785 398.708 250.415L421.808 263.765C424.708 265.435 427.048 269.925 427.048 273.765V298.535C427.008 302.395 424.668 304.165 421.808 302.495Z" fill="#E9EAF2"/>
<path d="M421.718 245.765L398.658 232.455C395.768 230.785 393.418 223.955 393.418 220.615V191.695C393.418 187.835 395.768 186.065 398.658 187.695L421.718 201.005C424.618 202.675 426.958 207.165 426.958 211.005V239.925C426.958 243.325 424.618 247.435 421.718 245.765Z" fill="#E9EAF2"/>
<path d="M410.318 226.445C405.628 223.735 401.808 217.115 401.808 211.695C401.808 206.275 405.628 204.065 410.318 206.775C415.008 209.485 418.838 216.105 418.838 221.525C418.838 226.945 415.018 229.155 410.318 226.445ZM410.318 209.295C406.828 207.295 403.988 208.925 403.988 212.955C404.102 215.157 404.735 217.302 405.835 219.213C406.935 221.125 408.471 222.75 410.318 223.955C413.818 225.955 416.658 224.335 416.658 220.305C416.544 218.1 415.911 215.953 414.809 214.039C413.707 212.126 412.168 210.5 410.318 209.295V209.295Z" fill="#2D83AE"/>
<path d="M412.658 222.435L408.798 216.295V211.185L410.978 212.445V216.415L414.098 221.365L412.658 222.435Z" fill="#2D83AE"/>
<path d="M421.688 184.595L398.628 171.285C395.738 169.605 393.388 162.085 393.388 158.735V132.115C393.388 128.775 395.738 127.415 398.628 129.115L421.688 142.435C423.214 143.427 424.484 144.766 425.394 146.342C426.305 147.918 426.83 149.687 426.928 151.505V178.135C426.928 181.445 424.588 186.265 421.688 184.595Z" fill="#E9EAF2"/>
<path d="M410.158 152.685C408.768 151.885 407.648 152.535 407.648 154.145C407.694 155.016 407.946 155.865 408.382 156.621C408.818 157.377 409.427 158.019 410.158 158.495C411.548 159.295 412.678 158.645 412.678 157.045C412.628 156.172 412.375 155.322 411.937 154.565C411.499 153.808 410.89 153.164 410.158 152.685V152.685ZM416.868 153.685L414.868 152.525C414.544 152.304 414.31 151.974 414.208 151.595L413.688 149.485C413.579 149.107 413.342 148.778 413.018 148.555L407.318 145.265C407.038 145.105 406.748 145.175 406.658 145.435L406.138 146.935C406.112 146.995 406.073 147.049 406.023 147.092C405.973 147.135 405.914 147.166 405.85 147.182C405.786 147.199 405.719 147.2 405.655 147.187C405.591 147.173 405.53 147.145 405.478 147.105L403.478 145.945C402.558 145.405 401.808 145.845 401.808 146.945V155.665C401.84 156.245 402.007 156.81 402.298 157.314C402.588 157.818 402.992 158.246 403.478 158.565L416.898 166.315C417.818 166.845 418.578 166.415 418.578 165.315V156.565C418.542 155.98 418.368 155.411 418.071 154.905C417.774 154.4 417.362 153.971 416.868 153.655V153.685ZM410.158 160.465C408.94 159.668 407.926 158.595 407.198 157.334C406.47 156.073 406.049 154.659 405.968 153.205C405.968 150.525 407.848 149.445 410.158 150.785C411.379 151.579 412.396 152.651 413.124 153.912C413.852 155.174 414.271 156.59 414.348 158.045C414.348 160.685 412.478 161.775 410.158 160.435V160.465ZM416.278 156.635C416.11 156.525 415.97 156.378 415.869 156.204C415.768 156.03 415.71 155.835 415.698 155.635C415.698 155.255 415.958 155.105 416.278 155.295C416.448 155.403 416.59 155.55 416.693 155.724C416.796 155.898 416.856 156.094 416.868 156.295C416.868 156.645 416.608 156.795 416.278 156.605V156.635Z" fill="#2D83AE"/>
<path d="M417.438 278.285C417.438 282.795 410.368 288.655 410.368 288.655C410.368 288.655 403.288 274.655 403.288 270.115C403.288 265.575 406.458 263.775 410.368 266.025C412.427 267.369 414.14 269.18 415.368 271.31C416.596 273.44 417.306 275.83 417.438 278.285Z" fill="#2D83AE"/>
<path d="M413.638 279.557C415.446 278.513 415.447 275.131 413.641 272.003C411.835 268.875 408.906 267.185 407.098 268.229C405.29 269.273 405.288 272.655 407.094 275.783C408.9 278.911 411.83 280.6 413.638 279.557Z" fill="#E9EAF2"/>
<path d="M584.938 338.935L445.328 258.325C442.968 256.975 441.068 253.325 441.068 250.195V156.365C441.068 153.235 442.968 151.795 445.328 153.155L584.938 233.755C587.288 235.115 589.188 238.755 589.188 241.895V335.715C589.188 338.855 587.288 340.295 584.938 338.935Z" fill="#E9EAF2"/>
<path d="M568.808 270.725L460.598 208.255C457.978 206.735 455.848 202.675 455.848 199.185V192.115C455.848 188.615 457.978 187.015 460.598 188.525L568.808 250.995C571.428 252.505 573.548 256.565 573.548 260.065V267.135C573.548 270.635 571.428 272.235 568.808 270.725Z" fill="white"/>
<path d="M509.958 268.535L460.598 240.035C457.978 238.525 455.848 234.465 455.848 230.965V223.935C455.848 220.435 457.978 218.835 460.598 220.345L509.958 248.845C512.578 250.355 514.698 254.415 514.698 257.915V264.935C514.698 268.435 512.578 270.045 509.958 268.535Z" fill="#2D83AE"/>
<path d="M613.668 359.575C613.668 359.575 561.038 371.175 518.488 323.915C475.938 276.655 441.228 282.715 441.228 282.715V312.215L613.668 411.765V359.575Z" fill="url(#paint2_linear)"/>
<path d="M613.668 359.575C613.668 359.575 561.038 371.175 518.488 323.915C475.938 276.655 441.228 282.715 441.228 282.715" stroke="#CCCEDD" stroke-width="1.06" stroke-miterlimit="10"/>
<path d="M645.208 379.085L561.688 330.865C556.438 327.865 552.188 319.715 552.188 312.725V181.315C552.188 174.315 556.438 171.115 561.688 174.135L645.208 222.365C650.448 225.365 654.698 233.515 654.698 240.505V371.935C654.698 378.935 650.448 382.115 645.208 379.085Z" fill="#B1B4C4"/>
<path d="M648.548 381.005L651.408 379.595L649.478 375.805L648.548 381.005Z" fill="#B1B4C4"/>
<path d="M553.748 174.505C554.589 174.005 555.473 173.58 556.388 173.235L558.508 177.425L553.748 174.505Z" fill="#B1B4C4"/>
<path d="M643.018 380.185L559.488 331.935C554.248 328.935 549.998 320.785 549.998 313.795V182.415C549.998 175.415 554.248 172.205 559.488 175.235L643.018 223.465C648.258 226.465 652.508 234.605 652.508 241.595V373.005C652.508 379.995 648.258 383.215 643.018 380.185Z" fill="#FAFAFA"/>
<path d="M574.678 202.635L559.488 193.865V188.385L574.678 197.155V202.635Z" fill="#D6D8E5"/>
<path d="M642.068 241.545L577.528 204.275V198.805L642.068 236.065V241.545Z" fill="#2D83AE"/>
<path d="M574.678 220.175L559.488 211.405V205.925L574.678 214.695V220.175Z" fill="#D6D8E5"/>
<path d="M620.238 246.475L577.528 221.815V216.335L620.238 240.995V246.475Z" fill="#98B1C5"/>
<path d="M574.678 228.935L559.488 220.175V214.695L574.678 223.455V228.935Z" fill="#D6D8E5"/>
<path d="M630.678 261.275L577.528 230.585V225.105L630.678 255.795V261.275Z" fill="#879EB3"/>
<path d="M574.678 237.705L559.488 228.935V223.455L574.678 232.225V237.705Z" fill="#D6D8E5"/>
<path d="M614.548 260.725L577.528 239.355V233.875L614.548 255.245V260.725Z" fill="#D6D8E5"/>
<path d="M574.678 211.405L559.488 202.635V197.155L574.678 205.925V211.405Z" fill="#D6D8E5"/>
<path d="M609.798 231.685L577.528 213.045V207.565L609.798 226.195V231.685Z" fill="#2D83AE"/>
<path d="M574.678 246.475L559.488 237.705V232.225L574.678 240.995V246.475Z" fill="#D6D8E5"/>
<path d="M596.508 259.075L577.528 248.115V242.635L596.508 253.595V259.075Z" fill="#2D83AE"/>
<path d="M574.678 264.005L559.488 255.245V249.765L574.678 258.535V264.005Z" fill="#D6D8E5"/>
<path d="M637.328 300.175L577.528 265.655V260.175L637.328 294.695V300.175Z" fill="#98B1C5"/>
<path d="M574.678 272.775L559.488 264.005V258.525L574.678 267.295V272.775Z" fill="#D6D8E5"/>
<path d="M595.558 284.835L577.528 274.425V268.945L595.558 279.355V284.835Z" fill="#879EB3"/>
<path d="M574.678 281.545L559.488 272.775V267.295L574.678 276.065V281.545Z" fill="#D6D8E5"/>
<path d="M630.678 313.875L577.528 283.185V277.715L630.678 308.395V313.875Z" fill="#D6D8E5"/>
<path d="M574.678 255.245L559.488 246.475V240.995L574.678 249.765V255.245Z" fill="#D6D8E5"/>
<path d="M627.828 285.935L577.528 256.885V251.405L627.828 280.455V285.935Z" fill="#2D83AE"/>
<path d="M574.678 290.315L559.488 281.545V276.065L574.678 284.835V290.315Z" fill="#D6D8E5"/>
<path d="M584.168 295.795L577.528 291.955V286.475L584.168 290.315V295.795Z" fill="#2D83AE"/>
<path d="M574.678 307.845L559.488 299.085V293.605L574.678 302.375V307.845Z" fill="#D6D8E5"/>
<path d="M589.868 316.615L577.528 309.495V304.015L589.868 311.135V316.615Z" fill="#98B1C5"/>
<path d="M574.678 316.615L559.488 307.845V302.365L574.678 311.135V316.615Z" fill="#D6D8E5"/>
<path d="M609.798 336.895L577.528 318.265V312.785L609.798 331.415V336.895Z" fill="#879EB3"/>
<path d="M574.678 325.385L559.488 316.615V311.135L574.678 319.905V325.385Z" fill="#D6D8E5"/>
<path d="M628.778 356.625L577.528 327.025V321.545L628.778 351.145V356.625Z" fill="#D6D8E5"/>
<path d="M574.678 299.085L559.488 290.315V284.835L574.678 293.605V299.085Z" fill="#D6D8E5"/>
<path d="M642.068 337.995L577.528 300.725V295.245L642.068 332.505V337.995Z" fill="#2D83AE"/>
<path opacity="0.5" d="M280.1 297.36C302.258 297.36 320.22 286.991 320.22 274.2C320.22 261.409 302.258 251.04 280.1 251.04C257.942 251.04 239.98 261.409 239.98 274.2C239.98 286.991 257.942 297.36 280.1 297.36Z" fill="#EDEFF9"/>
<path d="M279.72 272.59C286.038 272.59 291.16 269.63 291.16 265.98C291.16 262.329 286.038 259.37 279.72 259.37C273.402 259.37 268.28 262.329 268.28 265.98C268.28 269.63 273.402 272.59 279.72 272.59Z" fill="#EDEFF9"/>
<path d="M291.1 178.35H269.1V264.81H291.1V178.35Z" fill="#EDEFF9"/>
<path d="M268.05 177.37C268.05 177.37 268.65 195.15 281.3 227.04C281.3 227.04 293.08 201.36 294.3 176.83C295.52 152.3 268.05 177.37 268.05 177.37Z" fill="#55AAD4"/>
<path d="M252.6 110.43L223.33 138.91L219.85 176.1L255.25 158.35L261.69 112.99L252.6 110.43Z" fill="#2D83AE"/>
<path d="M310 110.43L339.26 138.91L342.75 176.1L307.22 157.12L300.91 112.99L310 110.43Z" fill="#2D83AE"/>
<path d="M280.93 181.86C288.966 181.86 295.48 178.099 295.48 173.46C295.48 168.821 288.966 165.06 280.93 165.06C272.894 165.06 266.38 168.821 266.38 173.46C266.38 178.099 272.894 181.86 280.93 181.86Z" fill="#424956"/>
<path d="M258.87 165.06V157.5H302.94V165.34L258.87 165.06Z" fill="#494949"/>
<path d="M280.93 177.79C293.114 177.79 302.99 172.086 302.99 165.05C302.99 158.014 293.114 152.31 280.93 152.31C268.747 152.31 258.87 158.014 258.87 165.05C258.87 172.086 268.747 177.79 280.93 177.79Z" fill="#2B303F"/>
<path d="M280.86 169.12C295.727 169.12 307.78 162.163 307.78 153.58C307.78 144.998 295.727 138.04 280.86 138.04C265.992 138.04 253.94 144.998 253.94 153.58C253.94 162.163 265.992 169.12 280.86 169.12Z" fill="#EDEFF9"/>
<path d="M309.93 125.9C309.93 127.15 309.93 128.38 309.93 129.57C309.93 130.57 309.93 131.57 309.93 132.57C309.93 133.92 309.86 135.21 309.81 136.47C309.81 138.04 309.7 139.53 309.62 140.96C309.54 142.39 309.47 143.79 309.37 145.08C308.96 150.73 308.97 154.89 308.27 156.52C304.46 165.43 291.57 160.52 285.21 157.32C282.86 156.14 281.31 155.17 281.31 155.17H280.73C280.73 155.17 278.89 156.17 276.17 157.25C269.5 159.95 257.61 164.74 254.31 156.49C253.72 155.01 253.13 150.12 252.77 145C252.68 143.72 252.6 142.35 252.52 140.89C252.44 139.43 252.4 137.98 252.34 136.41C252.34 135.16 252.27 133.87 252.24 132.53C252.24 131.53 252.24 130.53 252.24 129.53V125.86C252.06 90.97 255.76 35.18 267.98 11.37C271.51 4.48002 275.75 0.27002 280.82 0.0200195H281.4C286.4 0.28002 290.69 4.47002 294.23 11.33C306.28 35.05 310.15 90.62 309.93 125.9Z" fill="#EDEFF9"/>
<path d="M281 92.9999C286.617 92.9999 291.17 88.4466 291.17 82.8299C291.17 77.2132 286.617 72.6599 281 72.6599C275.383 72.6599 270.83 77.2132 270.83 82.8299C270.83 88.4466 275.383 92.9999 281 92.9999Z" fill="#2B303F"/>
<path d="M281 94.4899C278.694 94.4899 276.439 93.8061 274.522 92.5249C272.604 91.2437 271.11 89.4226 270.227 87.292C269.345 85.1614 269.114 82.817 269.564 80.5552C270.014 78.2934 271.124 76.2157 272.755 74.5851C274.386 72.9544 276.463 71.8439 278.725 71.394C280.987 70.9441 283.331 71.175 285.462 72.0575C287.593 72.94 289.414 74.4345 290.695 76.352C291.976 78.2695 292.66 80.5238 292.66 82.8299C292.657 85.9215 291.428 88.8858 289.242 91.0719C287.056 93.258 284.091 94.4873 281 94.4899V94.4899ZM281 74.1499C279.283 74.148 277.604 74.6553 276.175 75.6079C274.746 76.5605 273.632 77.9154 272.973 79.5013C272.315 81.0872 272.142 82.8328 272.475 84.5172C272.809 86.2016 273.635 87.7492 274.849 88.9641C276.062 90.179 277.609 91.0067 279.293 91.3424C280.977 91.6781 282.723 91.5068 284.309 90.8502C285.896 90.1935 287.252 89.081 288.206 87.6533C289.161 86.2257 289.67 84.5471 289.67 82.8299C289.667 80.5304 288.753 78.3256 287.128 76.6987C285.503 75.0717 283.299 74.1552 281 74.1499V74.1499Z" fill="#424956"/>
<path d="M281 63.1C286.617 63.1 291.17 58.5467 291.17 52.93C291.17 47.3133 286.617 42.76 281 42.76C275.383 42.76 270.83 47.3133 270.83 52.93C270.83 58.5467 275.383 63.1 281 63.1Z" fill="#2B303F"/>
<path d="M281 64.62C278.692 64.622 276.436 63.9398 274.516 62.6595C272.596 61.3793 271.098 59.5586 270.213 57.4275C269.328 55.2964 269.094 52.9507 269.541 50.6868C269.989 48.4229 271.098 46.3426 272.727 44.7087C274.357 43.0748 276.434 41.9608 278.697 41.5074C280.96 41.0541 283.306 41.2818 285.44 42.1617C287.573 43.0416 289.397 44.5342 290.683 46.4509C291.968 48.3677 292.656 50.6223 292.66 52.93C292.662 56.026 291.436 58.9964 289.249 61.1884C287.063 63.3804 284.096 64.6147 281 64.62V64.62ZM281 44.28C279.282 44.2781 277.603 44.7857 276.174 45.7387C274.745 46.6917 273.631 48.0472 272.972 49.6337C272.314 51.2202 272.142 52.9663 272.476 54.651C272.811 56.3356 273.638 57.8832 274.852 59.0977C276.067 60.3122 277.614 61.1391 279.299 61.4737C280.984 61.8083 282.73 61.6356 284.316 60.9774C285.903 60.3192 287.258 59.2051 288.211 57.7761C289.164 56.3472 289.672 54.6676 289.67 52.95C289.671 51.8102 289.448 50.6812 289.013 49.6276C288.578 48.574 287.94 47.6164 287.135 46.8094C286.329 46.0025 285.373 45.362 284.321 44.9246C283.268 44.4872 282.14 44.2613 281 44.26V44.28Z" fill="#424956"/>
<path d="M309.93 146.01C309.93 147.26 309.93 148.49 309.93 149.69C308.93 152.99 306.21 156.15 301.79 158.69C290.33 165.3 271.79 165.3 260.28 158.69C255.86 156.13 253.15 152.96 252.14 149.69V146.02C253.14 149.38 255.84 152.58 260.32 155.17C271.79 161.78 290.37 161.78 301.83 155.17C306.22 152.55 309 149.36 309.93 146.01Z" fill="#2D83AE"/>
<path d="M309.84 151.83C309.84 153.17 309.77 154.47 309.72 155.72C308.6 158.84 305.94 161.81 301.72 164.23C290.26 170.85 271.72 170.85 260.21 164.23C256 161.79 253.34 158.8 252.21 155.66C252.21 154.41 252.14 153.12 252.11 151.79C253.11 155.05 255.84 158.15 260.2 160.67C271.67 167.29 290.25 167.29 301.71 160.67C306.09 158.16 308.79 155.07 309.84 151.83Z" fill="#2D83AE"/>
<path d="M309.53 141.5C308.32 144.43 305.72 147.22 301.75 149.5C290.29 156.11 271.75 156.11 260.24 149.5C256.24 147.18 253.64 144.38 252.43 141.42C252.51 142.88 252.59 144.25 252.68 145.53C253.97 148.29 256.49 150.89 260.24 153.06C265.131 155.725 270.528 157.333 276.08 157.78C279.072 158.071 282.084 158.094 285.08 157.85C290.906 157.481 296.581 155.847 301.71 153.06C305.43 150.91 307.94 148.34 309.24 145.61L309.53 141.5Z" fill="#2D83AE"/>
<path d="M294.05 11.35C285.497 13.9753 276.353 13.9753 267.8 11.35C271.33 4.46 275.57 0.25 280.64 0H281.22C286.27 0.3 290.51 4.49 294.05 11.35Z" fill="#2D83AE"/>
<path d="M283.79 110.51H278.8V176.02H283.79V110.51Z" fill="#2D83AE"/>
<path opacity="0.4" d="M524.617 611.594L485.247 588.864C481.917 586.934 482.337 583.574 486.187 581.354L581.267 526.454C585.117 524.234 590.947 523.994 594.267 525.914L633.627 548.644C636.967 550.564 636.547 553.934 632.697 556.154L537.607 611.054C533.767 613.274 527.947 613.514 524.617 611.594Z" fill="#D6D8E5"/>
<path d="M529.597 608.594L490.237 585.874C486.907 583.944 487.317 580.584 491.167 578.364L586.257 523.464C590.107 521.244 595.927 521.004 599.257 522.924L638.617 545.654C641.947 547.574 641.537 550.934 637.687 553.164L542.597 608.054C538.757 610.284 532.937 610.524 529.597 608.594Z" fill="#B1B4C4"/>
<path d="M487.987 582.564V578.934L492.237 580.544L487.987 582.564Z" fill="#B1B4C4"/>
<path d="M640.877 548.794V545.304L637.497 547.484L640.877 548.794Z" fill="#B1B4C4"/>
<path d="M529.597 605.534L490.237 582.804C486.907 580.884 487.317 577.514 491.167 575.294L586.257 520.394C590.107 518.174 595.927 517.934 599.257 519.854L638.617 542.584C641.947 544.504 641.537 547.874 637.687 550.094L542.597 604.994C538.757 607.214 532.937 607.454 529.597 605.534Z" fill="#616E84"/>
<path d="M494.988 587.464C495.189 587.348 495.188 586.971 494.987 586.622C494.785 586.273 494.459 586.084 494.258 586.2C494.057 586.316 494.058 586.693 494.259 587.042C494.461 587.391 494.787 587.58 494.988 587.464Z" fill="#757B89"/>
<path d="M496.875 588.572C497.076 588.456 497.075 588.079 496.874 587.73C496.672 587.381 496.346 587.192 496.145 587.308C495.944 587.424 495.945 587.801 496.146 588.15C496.348 588.499 496.674 588.688 496.875 588.572Z" fill="#757B89"/>
<path d="M498.775 589.656C498.976 589.54 498.976 589.163 498.774 588.814C498.573 588.465 498.246 588.276 498.045 588.392C497.845 588.508 497.845 588.885 498.047 589.234C498.248 589.583 498.574 589.772 498.775 589.656Z" fill="#757B89"/>
<path d="M500.667 590.755C500.868 590.639 500.867 590.262 500.666 589.913C500.464 589.564 500.138 589.375 499.937 589.491C499.736 589.607 499.737 589.984 499.938 590.333C500.14 590.682 500.466 590.871 500.667 590.755Z" fill="#757B89"/>
<path d="M518.431 601.979C518.632 601.863 518.633 601.485 518.431 601.134C518.229 600.784 517.902 600.593 517.701 600.709C517.499 600.825 517.499 601.204 517.7 601.554C517.902 601.905 518.229 602.095 518.431 601.979Z" fill="#757B89"/>
<path d="M518.838 601.235C519.039 601.119 519.038 600.742 518.837 600.392C518.635 600.043 518.309 599.854 518.108 599.97C517.907 600.086 517.908 600.463 518.109 600.812C518.311 601.162 518.637 601.351 518.838 601.235Z" fill="#757B89"/>
<path d="M520.72 602.334C520.92 602.218 520.92 601.841 520.718 601.491C520.517 601.142 520.19 600.953 519.99 601.069C519.789 601.185 519.789 601.562 519.991 601.911C520.192 602.261 520.519 602.45 520.72 602.334Z" fill="#757B89"/>
<path d="M522.616 603.431C522.817 603.315 522.817 602.938 522.615 602.589C522.414 602.24 522.087 602.051 521.886 602.167C521.686 602.283 521.686 602.66 521.888 603.009C522.089 603.358 522.416 603.547 522.616 603.431Z" fill="#757B89"/>
<path d="M511.047 597.124L505.877 594.124C505.697 593.992 505.551 593.82 505.449 593.623C505.346 593.425 505.291 593.206 505.287 592.984V592.984C505.287 592.544 505.557 592.344 505.877 592.534L511.087 595.534C511.269 595.664 511.418 595.834 511.522 596.032C511.626 596.23 511.683 596.45 511.687 596.674C511.647 597.124 511.377 597.294 511.047 597.124Z" fill="#757B89"/>
<path d="M628.967 557.414L624.127 560.214C623.817 560.394 623.567 560.214 623.567 559.794C623.571 559.586 623.623 559.381 623.72 559.197C623.818 559.013 623.957 558.854 624.127 558.734L628.967 555.934C629.267 555.764 629.517 555.934 629.517 556.354C629.514 556.561 629.463 556.765 629.367 556.949C629.272 557.133 629.135 557.292 628.967 557.414Z" fill="#757B89"/>
<path d="M621.547 561.694L616.707 564.494C616.397 564.674 616.157 564.494 616.157 564.074C616.159 563.866 616.209 563.662 616.305 563.478C616.4 563.294 616.538 563.135 616.707 563.014L621.547 560.214C621.857 560.044 622.107 560.214 622.107 560.634C622.104 560.842 622.052 561.047 621.955 561.232C621.858 561.416 621.718 561.574 621.547 561.694V561.694Z" fill="#757B89"/>
<path d="M529.597 604.974L490.237 582.244C486.907 580.324 487.317 576.964 491.167 574.734L586.257 519.844C590.107 517.614 595.927 517.374 599.257 519.304L638.617 542.024C641.947 543.954 641.537 547.314 637.687 549.534L542.597 604.434C538.757 606.654 532.937 606.894 529.597 604.974Z" fill="#20232D"/>
<path d="M634.397 542.934L619.037 534.064C618.017 534.581 616.89 534.851 615.747 534.851C614.603 534.851 613.476 534.581 612.457 534.064C610.647 533.064 610.647 531.314 612.457 530.264L597.087 521.394C595.778 520.728 594.33 520.381 592.862 520.381C591.393 520.381 589.946 520.728 588.637 521.394L496.037 574.854C493.697 576.204 493.697 578.394 496.037 579.734L533.347 601.274C534.656 601.939 536.103 602.286 537.572 602.286C539.04 602.286 540.488 601.939 541.797 601.274L634.397 547.814C636.737 546.464 636.737 544.284 634.397 542.934Z" fill="#2B303F"/>
<path opacity="0.5" d="M634.397 542.934L619.037 534.064C618.017 534.581 616.89 534.851 615.747 534.851C614.603 534.851 613.476 534.581 612.457 534.064C610.647 533.064 610.647 531.314 612.457 530.264L597.087 521.394C595.778 520.728 594.33 520.381 592.862 520.381C591.393 520.381 589.946 520.728 588.637 521.394L496.037 574.854C493.697 576.204 493.697 578.394 496.037 579.734L533.347 601.274C534.656 601.939 536.103 602.286 537.572 602.286C539.04 602.286 540.488 601.939 541.797 601.274L634.397 547.814C636.737 546.464 636.737 544.284 634.397 542.934Z" fill="url(#paint3_linear)"/>
<path d="M614.697 533.784C615.669 533.784 616.457 533.327 616.457 532.764C616.457 532.2 615.669 531.744 614.697 531.744C613.725 531.744 612.937 532.2 612.937 532.764C612.937 533.327 613.725 533.784 614.697 533.784Z" fill="#2B303F"/>
<path opacity="0.1" d="M614.177 533.064C613.887 532.904 613.887 532.634 614.177 532.464C614.339 532.38 614.519 532.336 614.702 532.336C614.884 532.336 615.064 532.38 615.227 532.464C615.288 532.486 615.341 532.527 615.378 532.581C615.415 532.635 615.435 532.698 615.435 532.764C615.435 532.829 615.415 532.893 615.378 532.946C615.341 533 615.288 533.041 615.227 533.064C615.064 533.148 614.884 533.192 614.702 533.192C614.519 533.192 614.339 533.148 614.177 533.064V533.064Z" fill="white"/>
<path d="M613.586 502.594L572.026 478.6C570.899 477.952 569.876 477.847 569.094 478.198C568.986 478.246 568.882 478.304 568.784 478.371L564.446 480.787L567.604 485.218V516.579C567.604 519.398 569.586 522.83 572.034 524.232L588.315 533.628L590.297 538.74L588.218 547.782L592.814 545.229L597.305 538.82L611.402 546.965L611.898 551.19L616.449 548.652C617.396 548.249 618 547.222 618 545.668V510.255C618.008 507.436 616.03 504.004 613.586 502.594Z" fill="#EDEEF7"/>
<path d="M608.99 505.148L567.431 481.154C564.99 479.744 563 480.888 563 483.708V519.152C563 521.972 564.982 525.404 567.431 526.805L583.711 536.202L588.21 547.802L592.709 541.398L608.99 550.799C611.435 552.209 613.42 551.065 613.42 548.245V512.809C613.412 509.989 611.443 506.557 608.99 505.148Z" fill="#F8F9FF"/>
<path d="M597.963 519.63C597.67 515.713 595.394 511.667 592.55 510.004C590.656 508.902 588.917 509.077 587.941 510.417C586.974 507.921 585.31 505.783 583.442 504.694C580.599 503.036 578.323 504.43 578.03 508.006C577.958 508.861 578.016 509.723 578.203 510.56C578.695 513.047 579.637 515.421 580.98 517.564L587.945 529L595.044 525.76C596.441 525.097 597.399 523.793 597.812 521.987C597.993 521.215 598.044 520.419 597.963 519.63V519.63Z" fill="#FF5757"/>
<defs>
<linearGradient id="paint0_linear" x1="-139867" y1="-4718.9" x2="-138770" y2="-4970.47" gradientUnits="userSpaceOnUse">
<stop offset="0.21" stop-color="white" stop-opacity="0"/>
<stop offset="1" stop-color="white" stop-opacity="0.2"/>
</linearGradient>
<linearGradient id="paint1_linear" x1="507.055" y1="357.466" x2="590.159" y2="212.866" gradientUnits="userSpaceOnUse">
<stop offset="0.21" stop-color="white" stop-opacity="0"/>
<stop offset="1" stop-color="white" stop-opacity="0.2"/>
</linearGradient>
<linearGradient id="paint2_linear" x1="528.581" y1="307.763" x2="506.125" y2="346.837" gradientUnits="userSpaceOnUse">
<stop stop-color="#E9EAF2" stop-opacity="0.8"/>
<stop offset="1" stop-color="#E9EAF2" stop-opacity="0"/>
</linearGradient>
<linearGradient id="paint3_linear" x1="-481617" y1="27006.1" x2="-477488" y2="19821.2" gradientUnits="userSpaceOnUse">
<stop offset="0.21" stop-color="white" stop-opacity="0"/>
<stop offset="1" stop-color="white" stop-opacity="0.2"/>
</linearGradient>
</defs>
</svg>
