<svg width="559" viewBox="0 0 559 382" fill="none" xmlns="http://www.w3.org/2000/svg">
<g opacity="0.2">
<path fill-rule="evenodd" clip-rule="evenodd" d="M468.008 49.1186V43.34H465.119V49.1186H459.34V52.0079H465.119V57.7866H468.008V52.0079H473.787V49.1186H468.008ZM468.008 5.77866V0H465.119V5.77866H459.34V8.66799H465.119V14.4467H468.008V8.66799H473.787V5.77866H468.008ZM424.668 49.1186V43.34H421.779V49.1186H416V52.0079H421.779V57.7866H424.668V52.0079H430.447V49.1186H424.668ZM424.668 5.77866V0H421.779V5.77866H416V8.66799H421.779V14.4467H424.668V8.66799H430.447V5.77866H424.668Z" fill="#2D83AE"/>
<path fill-rule="evenodd" clip-rule="evenodd" d="M552.221 49.1186V43.34H549.332V49.1186H543.553V52.0079H549.332V57.7866H552.221V52.0079H558V49.1186H552.221ZM552.221 5.77866V0H549.332V5.77866H543.553V8.66799H549.332V14.4467H552.221V8.66799H558V5.77866H552.221ZM508.881 49.1186V43.34H505.992V49.1186H500.213V52.0079H505.992V57.7866H508.881V52.0079H514.66V49.1186H508.881ZM508.881 5.77866V0H505.992V5.77866H500.213V8.66799H505.992V14.4467H508.881V8.66799H514.66V5.77866H508.881Z" fill="#2D83AE"/>
<path fill-rule="evenodd" clip-rule="evenodd" d="M468.008 133.332V127.553H465.119V133.332H459.34V136.221H465.119V142H468.008V136.221H473.787V133.332H468.008ZM468.008 89.992V84.2134H465.119V89.992H459.34V92.8814H465.119V98.66H468.008V92.8814H473.787V89.992H468.008ZM424.668 133.332V127.553H421.779V133.332H416V136.221H421.779V142H424.668V136.221H430.447V133.332H424.668ZM424.668 89.992V84.2134H421.779V89.992H416V92.8814H421.779V98.66H424.668V92.8814H430.447V89.992H424.668Z" fill="#2D83AE"/>
<path fill-rule="evenodd" clip-rule="evenodd" d="M552.221 133.332V127.553H549.332V133.332H543.553V136.221H549.332V142H552.221V136.221H558V133.332H552.221ZM552.221 89.992V84.2134H549.332V89.992H543.553V92.8814H549.332V98.66H552.221V92.8814H558V89.992H552.221ZM508.881 133.332V127.553H505.992V133.332H500.213V136.221H505.992V142H508.881V136.221H514.66V133.332H508.881ZM508.881 89.992V84.2134H505.992V89.992H500.213V92.8814H505.992V98.66H508.881V92.8814H514.66V89.992H508.881Z" fill="#2D83AE"/>
</g>
<g opacity="0.2">
<path fill-rule="evenodd" clip-rule="evenodd" d="M52.0079 289.119V283.34H49.1186V289.119H43.3399V292.008H49.1186V297.787H52.0079V292.008H57.7866V289.119H52.0079ZM52.0079 245.779V240H49.1186V245.779H43.3399V248.668H49.1186V254.447H52.0079V248.668H57.7866V245.779H52.0079ZM8.66798 289.119V283.34H5.77866V289.119H0V292.008H5.77866V297.787H8.66798V292.008H14.4466V289.119H8.66798ZM8.66798 245.779V240H5.77866V245.779H0V248.668H5.77866V254.447H8.66798V248.668H14.4466V245.779H8.66798Z" fill="#2D83AE"/>
<path fill-rule="evenodd" clip-rule="evenodd" d="M136.221 289.119V283.34H133.332V289.119H127.553V292.008H133.332V297.787H136.221V292.008H142V289.119H136.221ZM136.221 245.779V240H133.332V245.779H127.553V248.668H133.332V254.447H136.221V248.668H142V245.779H136.221ZM92.8814 289.119V283.34H89.992V289.119H84.2134V292.008H89.992V297.787H92.8814V292.008H98.66V289.119H92.8814ZM92.8814 245.779V240H89.992V245.779H84.2134V248.668H89.992V254.447H92.8814V248.668H98.66V245.779H92.8814Z" fill="#2D83AE"/>
<path fill-rule="evenodd" clip-rule="evenodd" d="M52.0079 373.332V367.553H49.1186V373.332H43.3399V376.221H49.1186V382H52.0079V376.221H57.7866V373.332H52.0079ZM52.0079 329.992V324.213H49.1186V329.992H43.3399V332.881H49.1186V338.66H52.0079V332.881H57.7866V329.992H52.0079ZM8.66798 373.332V367.553H5.77866V373.332H0V376.221H5.77866V382H8.66798V376.221H14.4466V373.332H8.66798ZM8.66798 329.992V324.213H5.77866V329.992H0V332.881H5.77866V338.66H8.66798V332.881H14.4466V329.992H8.66798Z" fill="#2D83AE"/>
<path fill-rule="evenodd" clip-rule="evenodd" d="M136.221 373.332V367.553H133.332V373.332H127.553V376.221H133.332V382H136.221V376.221H142V373.332H136.221ZM136.221 329.992V324.213H133.332V329.992H127.553V332.881H133.332V338.66H136.221V332.881H142V329.992H136.221ZM92.8814 373.332V367.553H89.992V373.332H84.2134V376.221H89.992V382H92.8814V376.221H98.66V373.332H92.8814ZM92.8814 329.992V324.213H89.992V329.992H84.2134V332.881H89.992V338.66H92.8814V332.881H98.66V329.992H92.8814Z" fill="#2D83AE"/>
</g>
<path d="M558.243 146.504C558.243 210.017 436.743 396.347 389.242 302.847C341.742 209.347 182.245 374.004 90.7441 374.004C-0.756851 374.004 108.244 123.656 190.244 146.504C351.744 191.504 558.243 82.9914 558.243 146.504Z" fill="#F5F7FA" fill-opacity="0.5"/>
<path d="M431.987 299.035L221.674 177.593C218.745 175.894 216.329 171.317 216.329 167.384V4.67756C216.329 0.745176 218.723 -1.06357 221.674 0.642655L431.987 122.085C434.916 123.784 437.333 128.354 437.333 132.286V295C437.333 298.933 434.938 300.741 431.987 299.035Z" fill="#C4C7D6"/>
<path d="M433.071 300.712L435.4 299.372L434.396 292.459L433.071 300.712Z" fill="#C4C7D6"/>
<path d="M215.926 1.63855L218.218 0.320435L221.513 2.19509C221.513 2.19509 218.005 2.72966 217.918 2.71501C217.83 2.70037 215.926 1.63855 215.926 1.63855Z" fill="#B1B4C4"/>
<path d="M430.061 300.148L219.712 178.676C216.783 176.977 214.374 172.408 214.374 168.468V5.7906C214.374 1.85821 216.768 0.049463 219.712 1.75569L430.061 123.198C432.991 124.897 435.4 129.467 435.4 133.406V296.113C435.4 300.046 433.013 301.854 430.061 300.148Z" fill="#E4E7F2"/>
<path d="M429.688 300.361L219.346 178.918C216.417 177.212 214 172.642 214 168.71V6.003C214 2.07061 216.395 0.261865 219.346 1.96809L429.688 123.411C432.617 125.11 435.034 129.679 435.034 133.611V296.326C435.034 300.236 432.639 302.067 429.688 300.361Z" fill="#D6D8E5"/>
<path d="M432.141 290.467L216.673 166.066L216.783 6.65474C216.783 5.02174 217.932 4.36268 219.346 5.19016L429.688 126.618C430.433 127.105 431.054 127.76 431.499 128.531C431.944 129.302 432.202 130.167 432.251 131.056L432.141 290.467Z" fill="white"/>
<path d="M417.87 258.293L278.26 177.683C275.9 176.333 274 172.683 274 169.553V75.7226C274 72.5926 275.9 71.1526 278.26 72.5126L417.87 153.113C420.22 154.473 422.12 158.113 422.12 161.253V255.073C422.12 258.213 420.22 259.653 417.87 258.293Z" fill="#E9EAF2"/>
<path d="M401.74 190.083L293.53 127.613C290.91 126.093 288.78 122.033 288.78 118.543V111.473C288.78 107.973 290.91 106.373 293.53 107.883L401.74 170.353C404.36 171.863 406.48 175.923 406.48 179.423V186.493C406.48 189.993 404.36 191.593 401.74 190.083Z" fill="white"/>
<path d="M342.89 187.893L293.53 159.393C290.91 157.883 288.78 153.823 288.78 150.323V143.293C288.78 139.793 290.91 138.193 293.53 139.703L342.89 168.203C345.51 169.713 347.63 173.773 347.63 177.273V184.293C347.63 187.793 345.51 189.403 342.89 187.893Z" fill="#2D83AE"/>
<path d="M256.34 161.686L233.24 148.376C230.35 146.706 228 142.216 228 138.376V113.606C228 109.746 230.35 107.976 233.24 109.606L256.34 122.956C259.24 124.626 261.58 129.116 261.58 132.956V157.726C261.54 161.586 259.2 163.356 256.34 161.686Z" fill="#E9EAF2"/>
<path d="M251.97 137.475C251.97 141.985 244.9 147.845 244.9 147.845C244.9 147.845 237.82 133.845 237.82 129.305C237.82 124.765 240.99 122.965 244.9 125.215C246.959 126.56 248.672 128.371 249.9 130.501C251.128 132.631 251.837 135.02 251.97 137.475Z" fill="#2D83AE"/>
<path d="M248.17 138.747C249.977 137.703 249.979 134.321 248.173 131.193C246.367 128.065 243.437 126.376 241.63 127.42C239.822 128.463 239.82 131.845 241.626 134.973C243.432 138.101 246.362 139.791 248.17 138.747Z" fill="#E9EAF2"/>
<path d="M101.08 168.43L91.96 163.75L72.85 174.75C68.52 177.25 65 175.23 65 170.22V149.4C65.1477 146.676 65.9355 144.025 67.2994 141.662C68.6633 139.299 70.5649 137.291 72.85 135.8L186.66 70.0701C190.99 67.5701 194.51 69.6001 194.51 74.6001V95.4901C194.362 98.2144 193.574 100.866 192.211 103.228C190.847 105.591 188.945 107.6 186.66 109.09L110.14 153.23" fill="#B1B4C4"/>
<path d="M114.67 155.04L191.19 110.87C193.473 109.378 195.374 107.369 196.737 105.007C198.101 102.644 198.89 99.9939 199.04 97.2701V76.4201C199.04 71.4201 195.52 69.4201 191.19 71.8801L77.34 137.61C75.056 139.102 73.1552 141.11 71.7915 143.473C70.4277 145.836 69.6393 148.486 69.49 151.21V172.06C69.49 177.06 73.01 179.06 77.34 176.59L96.45 165.59L105.61 170.28L114.67 155.04Z" fill="#E9EAF2"/>
<path d="M188.83 90.0201L79.7 153.02V145.77L188.83 82.7601V90.0201Z" fill="#2D83AE"/>
<path d="M151.15 124.47L79.7 165.72V158.46L151.15 117.21V124.47Z" fill="#2D83AE"/>
<path d="M256.3 108.676L233.24 95.3655C230.35 93.6955 228 86.8655 228 83.5255V54.6055C228 50.7455 230.35 48.9755 233.24 50.6055L256.3 63.9155C259.2 65.5855 261.54 70.0755 261.54 73.9155V102.836C261.54 106.236 259.2 110.346 256.3 108.676Z" fill="#E9EAF2"/>
<path d="M244.51 88.8281C239.82 86.1181 236 79.4981 236 74.0781C236 68.6581 239.82 66.4481 244.51 69.1581C249.2 71.8681 253.03 78.4881 253.03 83.9081C253.03 89.3281 249.21 91.5381 244.51 88.8281ZM244.51 71.6781C241.02 69.6781 238.18 71.3081 238.18 75.3381C238.294 77.5406 238.927 79.685 240.027 81.5966C241.127 83.5081 242.663 85.1328 244.51 86.3381C248.01 88.3381 250.85 86.7181 250.85 82.6881C250.736 80.483 250.103 78.336 249.001 76.4225C247.899 74.509 246.36 72.8833 244.51 71.6781Z" fill="#2D83AE"/>
<path d="M246.85 84.8181L242.99 78.6781V73.5681L245.17 74.8281V78.7981L248.29 83.7481L246.85 84.8181Z" fill="#2D83AE"/>
<path d="M185.06 298.525L154 280.585L185.06 262.655L216.12 280.585L185.06 298.525Z" fill="#D6D8E5"/>
<path d="M185.06 334.385L154 316.455V280.585L185.06 298.525V334.385Z" fill="#B1B6C4"/>
<path d="M216.12 316.455L185.06 334.385V298.525L216.12 280.585V316.455Z" fill="#C4C7D6"/>
<path d="M216.12 307.085V280.445L194.97 292.795L203.12 309.645L216.12 307.085Z" fill="#C4C7D6"/>
<path d="M202.26 281.985L210.38 277.275L216.12 280.585L207.7 285.365L202.26 281.985Z" fill="#D6D8E5"/>
<path d="M226.78 305.165C229.474 305.902 232.35 305.542 234.78 304.165C236.71 304.225 247.17 299.745 248.59 303.505C249.84 306.805 245.31 309.855 242.89 310.435C237.6 311.715 233.69 314.355 231.57 314.795C229.99 315.135 227.94 315.355 226.68 314.105C225.19 312.645 225.32 307.135 226.78 305.165Z" fill="black"/>
<path d="M231.59 313.915C233.71 313.465 237.59 310.835 242.91 309.555C244.91 309.065 248.43 306.845 248.78 304.195C249.25 307.195 245.16 309.925 242.91 310.465C237.62 311.745 233.71 314.385 231.59 314.825C230.01 315.165 227.96 315.385 226.7 314.135C226.371 313.777 226.134 313.345 226.01 312.875C226.795 313.471 227.708 313.875 228.677 314.055C229.646 314.236 230.643 314.188 231.59 313.915Z" fill="#1F3F59"/>
<path d="M207.94 295.125C210.634 295.855 213.508 295.496 215.94 294.125C217.87 294.185 228.32 289.705 229.75 293.465C230.99 296.765 226.46 299.805 224.04 300.395C218.78 301.705 214.85 304.345 212.78 304.775C211.2 305.115 209.15 305.325 207.89 304.085C206.33 302.605 206.46 297.085 207.94 295.125Z" fill="black"/>
<path d="M212.78 303.875C214.9 303.425 218.78 300.795 224.09 299.515C226.09 299.025 229.62 296.805 229.97 294.155C230.44 297.155 226.35 299.875 224.09 300.425C218.78 301.705 214.85 304.345 212.78 304.775C211.2 305.115 209.15 305.325 207.89 304.085C207.566 303.724 207.329 303.293 207.2 302.825C207.984 303.422 208.897 303.828 209.866 304.011C210.834 304.193 211.832 304.146 212.78 303.875Z" fill="#1F3F59"/>
<path d="M178.57 282.105C186.73 285.685 194.42 286.255 200.71 282.875L207.21 279.125C207.6 287.515 207.97 295.575 207.97 295.575C207.97 295.575 212.97 299.345 216.83 295.985C216.83 295.985 217.64 284.205 218.46 272.625L225.28 268.695C225.122 269.313 225.035 269.947 225.02 270.585C225.07 272.785 226.6 305.495 226.6 305.495C226.6 305.495 231.6 308.495 235.5 305.115C235.5 305.115 238.11 267.215 238.71 261.165C239.39 254.355 231.83 250.995 227.04 252.745C225.93 253.145 223.19 254.165 219.73 255.455C219.88 253.565 220 252.085 220.09 251.245C220.76 244.435 213.2 241.085 208.42 242.825C204.06 244.415 174.63 255.455 174.63 255.455C174.804 258.282 175.138 261.096 175.63 263.885L164 262.885C163.34 273.835 170.42 278.515 178.57 282.105ZM198.87 263.265L206.65 258.775C206.522 259.324 206.438 259.882 206.4 260.445L198.87 263.265Z" fill="#0B4F71"/>
<path d="M157.66 229.775C157.66 229.775 158.66 244.235 160.52 246.315C162.38 248.395 168.83 249.775 168.83 249.775L173.78 257.915C173.78 257.915 169.27 232.055 168.29 231.435C167.31 230.815 157.66 229.775 157.66 229.775Z" fill="#FFCEA9"/>
<path d="M167.17 213.675C165.966 213.116 164.598 213.022 163.328 213.409C162.059 213.797 160.977 214.639 160.29 215.775C158.47 218.775 156.58 229.115 156.41 230.885C156.41 230.885 158.96 234.405 162.79 233.815L167.17 213.675Z" fill="#EDEDED"/>
<path d="M168.91 213.855C171.41 213.975 173.27 214.615 173.58 213.855C173.847 212.564 174.037 211.258 174.15 209.945C173.86 209.215 173.61 208.435 173.61 208.435C170.47 206.505 169.48 203.115 169.07 199.165C168.37 192.415 172.01 186.505 178.77 185.795C185.11 185.135 189.77 189.595 191.03 195.725C191.7 198.725 193.03 204.465 191.23 209.435C190.23 212.215 188.92 214.435 187.62 214.855C186.361 214.816 185.106 214.706 183.86 214.525C183.86 214.525 183.52 216.405 183.29 217.605C183.06 218.805 183.15 219.445 185.54 220.925C187.93 222.405 181.92 225.435 177.99 225.135C174.06 224.835 169.63 222.465 168.42 219.925C167.07 217.115 167.19 213.775 168.91 213.855Z" fill="#FFCEA9"/>
<path d="M232.23 258.095C232.235 258.451 232.145 258.801 231.969 259.111C231.793 259.42 231.538 259.677 231.23 259.855L212.17 270.855C211.866 271.031 211.521 271.123 211.17 271.123C210.819 271.123 210.474 271.031 210.17 270.855L183.42 255.435C183.112 255.257 182.857 255 182.681 254.691C182.505 254.382 182.415 254.031 182.42 253.675V253.525L232.23 258.095Z" fill="#E5E5E5"/>
<path d="M231.22 259.855L212.16 270.855C211.856 271.031 211.511 271.124 211.16 271.125V258.125H232.23C232.229 258.477 232.134 258.822 231.957 259.126C231.78 259.429 231.526 259.681 231.22 259.855Z" fill="#E5E5E5"/>
<path d="M211.86 269.855C211.642 269.978 211.395 270.042 211.145 270.042C210.895 270.042 210.648 269.978 210.43 269.855L182.67 253.855C182.32 253.645 182.32 253.315 182.67 253.115L203.12 241.275L232.23 258.095L211.86 269.855Z" fill="#F4F4F4"/>
<path d="M194.08 258.095L194.22 258.175L203.11 263.305L208 260.485L208.13 260.405L199.1 255.195L194.08 258.095Z" fill="#BFBFBF"/>
<path d="M194.22 258.175L203.11 263.305L208 260.485L199.1 255.355L194.22 258.175Z" fill="#E5E5E5"/>
<path d="M224.68 258.925L225.97 259.665C226.034 259.697 226.104 259.713 226.175 259.713C226.246 259.713 226.316 259.697 226.38 259.665L227.6 258.955C227.72 258.885 227.73 258.785 227.6 258.725L226.32 257.985C226.256 257.953 226.186 257.937 226.115 257.937C226.044 257.937 225.974 257.953 225.91 257.985L224.68 258.695C224.59 258.775 224.58 258.865 224.68 258.925Z" fill="#0B4F71"/>
<path d="M222.87 257.875L224.15 258.615C224.214 258.647 224.284 258.663 224.355 258.663C224.426 258.663 224.496 258.647 224.56 258.615L225.78 257.905C225.91 257.835 225.92 257.735 225.78 257.675L224.5 256.935C224.436 256.903 224.366 256.887 224.295 256.887C224.224 256.887 224.154 256.903 224.09 256.935L222.87 257.635C222.78 257.705 222.78 257.775 222.87 257.875Z" fill="#0B4F71"/>
<path d="M221.05 256.825L222.34 257.565C222.402 257.597 222.47 257.613 222.54 257.613C222.609 257.613 222.678 257.597 222.74 257.565L223.97 256.865C224.09 256.795 224.1 256.685 223.97 256.625L222.68 255.885C222.618 255.853 222.549 255.837 222.48 255.837C222.41 255.837 222.342 255.853 222.28 255.885L221.05 256.585C220.96 256.655 220.95 256.775 221.05 256.825Z" fill="#0B4F71"/>
<path d="M219.24 255.775L220.52 256.515C220.584 256.547 220.654 256.563 220.725 256.563C220.796 256.563 220.866 256.547 220.93 256.515L222.15 255.815C222.27 255.745 222.29 255.635 222.15 255.575L220.9 254.775C220.836 254.743 220.766 254.727 220.695 254.727C220.624 254.727 220.554 254.743 220.49 254.775L219.27 255.475C219.14 255.605 219.13 255.715 219.24 255.775Z" fill="#0B4F71"/>
<path d="M217.42 254.775L218.7 255.515C218.764 255.547 218.834 255.563 218.905 255.563C218.976 255.563 219.046 255.547 219.11 255.515L220.34 254.805C220.46 254.735 220.47 254.625 220.34 254.565L219.08 253.775C219.016 253.743 218.946 253.727 218.875 253.727C218.804 253.727 218.734 253.743 218.67 253.775L217.45 254.485C217.33 254.565 217.31 254.665 217.42 254.775Z" fill="#0B4F71"/>
<path d="M215.6 253.675L216.89 254.415C216.952 254.447 217.02 254.463 217.09 254.463C217.16 254.463 217.228 254.447 217.29 254.415L218.52 253.705C218.64 253.635 218.65 253.525 218.52 253.465L217.24 252.725C217.176 252.693 217.106 252.677 217.035 252.677C216.964 252.677 216.894 252.693 216.83 252.725L215.6 253.435C215.51 253.515 215.5 253.615 215.6 253.675Z" fill="#0B4F71"/>
<path d="M213.78 252.625L215.06 253.375C215.124 253.407 215.194 253.423 215.265 253.423C215.336 253.423 215.406 253.407 215.47 253.375L216.69 252.665C216.81 252.595 216.83 252.495 216.69 252.435L215.41 251.685C215.346 251.653 215.276 251.637 215.205 251.637C215.134 251.637 215.064 251.653 215 251.685L213.78 252.395C213.7 252.465 213.68 252.565 213.78 252.625Z" fill="#0B4F71"/>
<path d="M211.97 251.585L213.25 252.325C213.314 252.357 213.384 252.373 213.455 252.373C213.526 252.373 213.596 252.357 213.66 252.325L214.89 251.615C215.01 251.545 215.02 251.445 214.89 251.385L213.6 250.645C213.536 250.613 213.466 250.597 213.395 250.597C213.324 250.597 213.254 250.613 213.19 250.645L211.97 251.355C211.88 251.415 211.87 251.525 211.97 251.585Z" fill="#0B4F71"/>
<path d="M210.15 250.535L211.44 251.275C211.504 251.307 211.574 251.323 211.645 251.323C211.716 251.323 211.786 251.307 211.85 251.275L213.07 250.565C213.19 250.495 213.2 250.395 213.07 250.335L211.78 249.575C211.716 249.543 211.646 249.527 211.575 249.527C211.504 249.527 211.434 249.543 211.37 249.575L210.14 250.285C210.06 250.365 210.05 250.475 210.15 250.535Z" fill="#0B4F71"/>
<path d="M208.34 249.485L209.62 250.225C209.684 250.257 209.754 250.273 209.825 250.273C209.896 250.273 209.966 250.257 210.03 250.225L211.25 249.525C211.37 249.455 211.39 249.345 211.25 249.285L209.97 248.545C209.906 248.513 209.836 248.497 209.765 248.497C209.694 248.497 209.624 248.513 209.56 248.545L208.34 249.245C208.25 249.315 208.23 249.425 208.34 249.485Z" fill="#0B4F71"/>
<path d="M206.52 248.435L207.8 249.175C207.864 249.207 207.934 249.223 208.005 249.223C208.076 249.223 208.146 249.207 208.21 249.175L209.44 248.475C209.56 248.405 209.57 248.295 209.44 248.235L208.15 247.495C208.088 247.463 208.02 247.447 207.95 247.447C207.88 247.447 207.812 247.463 207.75 247.495L206.52 248.195C206.43 248.265 206.42 248.375 206.52 248.435Z" fill="#0B4F71"/>
<path d="M204.71 247.385L205.99 248.125C206.054 248.155 206.124 248.17 206.195 248.17C206.266 248.17 206.336 248.155 206.4 248.125L207.62 247.415C207.74 247.345 207.76 247.235 207.62 247.175L206.34 246.435C206.276 246.403 206.206 246.387 206.135 246.387C206.064 246.387 205.994 246.403 205.93 246.435L204.7 247.145C204.61 247.225 204.6 247.325 204.71 247.385Z" fill="#0B4F71"/>
<path d="M202.89 246.335L204.17 247.075C204.234 247.107 204.304 247.123 204.375 247.123C204.446 247.123 204.516 247.107 204.58 247.075L205.81 246.365C205.93 246.295 205.94 246.185 205.81 246.125L204.53 245.385C204.466 245.353 204.396 245.337 204.325 245.337C204.254 245.337 204.184 245.353 204.12 245.385L202.9 246.095C202.78 246.175 202.78 246.275 202.89 246.335Z" fill="#0B4F71"/>
<path d="M200.2 244.775L202.36 246.015C202.421 246.049 202.49 246.067 202.56 246.067C202.63 246.067 202.699 246.049 202.76 246.015L203.99 245.305C204.11 245.235 204.12 245.135 203.99 245.075L201.83 243.825C201.766 243.793 201.696 243.777 201.625 243.777C201.554 243.777 201.484 243.793 201.42 243.825L200.2 244.525C200.11 244.615 200.09 244.775 200.2 244.775Z" fill="#0B4F71"/>
<path d="M220.23 258.385L221.51 259.125C221.574 259.157 221.644 259.173 221.715 259.173C221.786 259.173 221.856 259.157 221.92 259.125L223.15 258.415C223.27 258.345 223.28 258.245 223.15 258.185L221.86 257.445C221.796 257.413 221.726 257.397 221.655 257.397C221.584 257.397 221.514 257.413 221.45 257.445L220.23 258.155C220.14 258.215 220.13 258.325 220.23 258.385Z" fill="#0B4F71"/>
<path d="M218.41 257.335L219.69 258.075C219.754 258.107 219.824 258.123 219.895 258.123C219.966 258.123 220.036 258.107 220.1 258.075L221.33 257.365C221.45 257.295 221.46 257.195 221.33 257.135L220.04 256.395C219.976 256.363 219.906 256.347 219.835 256.347C219.764 256.347 219.694 256.363 219.63 256.395L218.41 257.105C218.32 257.165 218.31 257.275 218.41 257.335Z" fill="#0B4F71"/>
<path d="M216.59 256.285L217.87 257.025C217.934 257.057 218.004 257.073 218.075 257.073C218.146 257.073 218.216 257.057 218.28 257.025L219.51 256.315C219.63 256.245 219.64 256.145 219.51 256.085L218.22 255.345C218.156 255.313 218.086 255.297 218.015 255.297C217.944 255.297 217.874 255.313 217.81 255.345L216.59 256.055C216.5 256.115 216.49 256.225 216.59 256.285Z" fill="#0B4F71"/>
<path d="M214.78 255.235L216.06 255.975C216.124 256.007 216.194 256.023 216.265 256.023C216.336 256.023 216.406 256.007 216.47 255.975L217.7 255.265C217.82 255.195 217.83 255.095 217.7 255.035L216.41 254.295C216.348 254.263 216.279 254.247 216.21 254.247C216.14 254.247 216.072 254.263 216.01 254.295L214.78 255.005C214.68 255.065 214.67 255.175 214.78 255.235Z" fill="#0B4F71"/>
<path d="M212.97 254.185L214.25 254.925C214.313 254.959 214.383 254.977 214.455 254.977C214.527 254.977 214.597 254.959 214.66 254.925L215.88 254.215C216 254.145 216.02 254.045 215.88 253.985L214.6 253.235C214.536 253.203 214.466 253.187 214.395 253.187C214.324 253.187 214.254 253.203 214.19 253.235L212.97 253.945C212.88 254.025 212.86 254.125 212.97 254.185Z" fill="#0B4F71"/>
<path d="M211.15 253.135L212.43 253.875C212.494 253.907 212.564 253.923 212.635 253.923C212.706 253.923 212.776 253.907 212.84 253.875L214.06 253.165C214.18 253.095 214.2 252.995 214.06 252.925L212.78 252.175C212.716 252.143 212.646 252.127 212.575 252.127C212.504 252.127 212.434 252.143 212.37 252.175L211.15 252.885C211.06 252.975 211.04 253.075 211.15 253.135Z" fill="#0B4F71"/>
<path d="M209.33 252.085L210.61 252.825C210.674 252.857 210.744 252.873 210.815 252.873C210.886 252.873 210.956 252.857 211.02 252.825L212.24 252.115C212.36 252.045 212.38 251.935 212.24 251.875L210.96 251.135C210.896 251.103 210.826 251.087 210.755 251.087C210.684 251.087 210.614 251.103 210.55 251.135L209.33 251.845C209.24 251.925 209.22 252.025 209.33 252.085Z" fill="#0B4F71"/>
<path d="M207.51 251.035L208.78 251.775C208.844 251.807 208.914 251.823 208.985 251.823C209.056 251.823 209.126 251.807 209.19 251.775L210.41 251.065C210.54 250.995 210.55 250.885 210.41 250.825L209.13 250.085C209.066 250.053 208.996 250.037 208.925 250.037C208.854 250.037 208.784 250.053 208.72 250.085L207.5 250.795C207.42 250.875 207.4 250.975 207.51 251.035Z" fill="#0B4F71"/>
<path d="M205.69 249.985L206.97 250.725C207.034 250.757 207.104 250.773 207.175 250.773C207.246 250.773 207.316 250.757 207.38 250.725L208.61 250.015C208.73 249.945 208.74 249.835 208.61 249.775L207.33 249.035C207.266 249.003 207.196 248.987 207.125 248.987C207.054 248.987 206.984 249.003 206.92 249.035L205.7 249.745C205.6 249.825 205.58 249.925 205.69 249.985Z" fill="#0B4F71"/>
<path d="M203.87 248.935L205.15 249.675C205.214 249.707 205.284 249.723 205.355 249.723C205.426 249.723 205.496 249.707 205.56 249.675L206.79 248.965C206.91 248.895 206.92 248.785 206.79 248.725L205.5 247.985C205.436 247.953 205.366 247.937 205.295 247.937C205.224 247.937 205.154 247.953 205.09 247.985L203.87 248.695C203.78 248.775 203.78 248.875 203.87 248.935Z" fill="#0B4F71"/>
<path d="M202.05 247.885L203.33 248.625C203.394 248.657 203.464 248.673 203.535 248.673C203.606 248.673 203.676 248.657 203.74 248.625L204.97 247.925C205.09 247.855 205.1 247.745 204.97 247.685L203.68 246.945C203.616 246.913 203.546 246.897 203.475 246.897C203.404 246.897 203.334 246.913 203.27 246.945L202.05 247.655C201.96 247.775 201.95 247.825 202.05 247.885Z" fill="#0B4F71"/>
<path d="M200.23 246.835L201.51 247.575C201.574 247.607 201.644 247.623 201.715 247.623C201.786 247.623 201.856 247.607 201.92 247.575L203.15 246.875C203.27 246.805 203.28 246.695 203.15 246.635L201.86 245.895C201.796 245.863 201.726 245.847 201.655 245.847C201.584 245.847 201.514 245.863 201.45 245.895L200.23 246.595C200.14 246.665 200.13 246.775 200.23 246.835Z" fill="#0B4F71"/>
<path d="M222.05 259.435L224.21 260.675C224.274 260.707 224.344 260.723 224.415 260.723C224.486 260.723 224.556 260.707 224.62 260.675L225.84 259.965C225.96 259.895 225.97 259.785 225.84 259.725L223.68 258.485C223.616 258.455 223.546 258.44 223.475 258.44C223.404 258.44 223.334 258.455 223.27 258.485L222.05 259.195C221.96 259.265 221.94 259.375 222.05 259.435Z" fill="#0B4F71"/>
<path d="M200.08 244.835L201.36 245.575C201.47 245.635 201.47 245.735 201.36 245.795L200.07 246.545C200.011 246.575 199.946 246.59 199.88 246.59C199.814 246.59 199.749 246.575 199.69 246.545L199.59 246.485C199.535 246.455 199.473 246.44 199.41 246.44C199.347 246.44 199.285 246.455 199.23 246.485L197.87 247.275C197.811 247.305 197.746 247.32 197.68 247.32C197.614 247.32 197.549 247.305 197.49 247.275L196.67 246.805C196.649 246.796 196.63 246.78 196.618 246.761C196.605 246.741 196.598 246.718 196.598 246.695C196.598 246.672 196.605 246.649 196.618 246.629C196.63 246.61 196.649 246.594 196.67 246.585L197.95 245.845L198.22 245.695L198.41 245.585L198.6 245.475L199.7 244.835C199.759 244.805 199.824 244.79 199.89 244.79C199.956 244.79 200.021 244.805 200.08 244.835Z" fill="#0B4F71"/>
<path d="M217.64 262.985L218.92 263.725C218.984 263.757 219.054 263.773 219.125 263.773C219.196 263.773 219.266 263.757 219.33 263.725L220.55 263.015C220.67 262.945 220.69 262.845 220.55 262.785L219.27 262.045C219.206 262.013 219.136 261.997 219.065 261.997C218.994 261.997 218.924 262.013 218.86 262.045L217.64 262.745C217.54 262.775 217.53 262.925 217.64 262.985Z" fill="#0B4F71"/>
<path d="M215.78 261.935L217.07 262.675C217.134 262.707 217.204 262.723 217.275 262.723C217.346 262.723 217.416 262.707 217.48 262.675L218.7 261.965C218.82 261.895 218.83 261.785 218.7 261.725L217.42 260.985C217.356 260.953 217.286 260.937 217.215 260.937C217.144 260.937 217.074 260.953 217.01 260.985L215.78 261.695C215.78 261.775 215.72 261.875 215.78 261.935Z" fill="#0B4F71"/>
<path d="M214.01 260.895L215.3 261.635C215.362 261.667 215.43 261.683 215.5 261.683C215.57 261.683 215.638 261.667 215.7 261.635L216.93 260.925C217.05 260.855 217.06 260.755 216.93 260.695L215.65 259.955C215.586 259.923 215.516 259.907 215.445 259.907C215.374 259.907 215.304 259.923 215.24 259.955L214.01 260.665C213.92 260.775 213.91 260.835 214.01 260.895Z" fill="#0B4F71"/>
<path d="M198.59 251.985L199.87 252.725C199.934 252.757 200.004 252.773 200.075 252.773C200.146 252.773 200.216 252.757 200.28 252.725L201.51 252.015C201.63 251.945 201.64 251.835 201.51 251.775L200.23 251.035C200.166 251.003 200.096 250.987 200.025 250.987C199.954 250.987 199.884 251.003 199.82 251.035L198.6 251.745C198.5 251.825 198.49 251.925 198.59 251.985Z" fill="#0B4F71"/>
<path d="M196.78 250.945L198.06 251.685C198.124 251.717 198.194 251.733 198.265 251.733C198.336 251.733 198.406 251.717 198.47 251.685L199.69 250.975C199.82 250.905 199.83 250.805 199.69 250.745L198.41 250.005C198.346 249.973 198.276 249.957 198.205 249.957C198.134 249.957 198.064 249.973 198 250.005L196.78 250.715C196.69 250.775 196.67 250.885 196.78 250.945Z" fill="#0B4F71"/>
<path d="M194.97 249.895L196.25 250.635C196.314 250.667 196.384 250.683 196.455 250.683C196.526 250.683 196.596 250.667 196.66 250.635L197.88 249.935C198 249.865 198.02 249.755 197.88 249.695L196.6 248.955C196.536 248.923 196.466 248.907 196.395 248.907C196.324 248.907 196.254 248.923 196.19 248.955L194.97 249.655C194.88 249.775 194.86 249.835 194.97 249.895Z" fill="#0B4F71"/>
<path d="M193.16 248.845L194.44 249.595C194.504 249.627 194.574 249.643 194.645 249.643C194.716 249.643 194.786 249.627 194.85 249.595L196.07 248.885C196.19 248.815 196.21 248.715 196.07 248.655L194.78 247.885C194.716 247.853 194.646 247.837 194.575 247.837C194.504 247.837 194.434 247.853 194.37 247.885L193.15 248.595C193.06 248.685 193.05 248.775 193.16 248.845Z" fill="#0B4F71"/>
<path d="M211.78 259.575L213.53 260.575C213.592 260.607 213.66 260.623 213.73 260.623C213.799 260.623 213.868 260.607 213.93 260.575L215.16 259.875C215.28 259.805 215.29 259.695 215.16 259.635L213.41 258.635C213.346 258.603 213.276 258.587 213.205 258.587C213.134 258.587 213.064 258.603 213 258.635L211.78 259.345C211.64 259.415 211.63 259.515 211.78 259.575Z" fill="#0B4F71"/>
<path d="M200.4 253.035L202.15 254.035C202.214 254.067 202.284 254.083 202.355 254.083C202.426 254.083 202.496 254.067 202.56 254.035L203.78 253.325C203.9 253.255 203.92 253.155 203.78 253.095L202.03 252.095C201.966 252.063 201.896 252.047 201.825 252.047C201.754 252.047 201.684 252.063 201.62 252.095L200.4 252.805C200.31 252.865 200.3 252.975 200.4 253.035Z" fill="#0B4F71"/>
<path d="M202.68 254.345L211.21 259.275C211.274 259.307 211.344 259.323 211.415 259.323C211.486 259.323 211.556 259.307 211.62 259.275L212.84 258.565C212.96 258.495 212.97 258.395 212.84 258.335L204.31 253.405C204.246 253.373 204.176 253.357 204.105 253.357C204.034 253.357 203.964 253.373 203.9 253.405L202.68 254.115C202.59 254.185 202.57 254.285 202.68 254.345Z" fill="#0B4F71"/>
<path d="M217.98 259.115L219.26 259.855C219.324 259.887 219.394 259.903 219.465 259.903C219.536 259.903 219.606 259.887 219.67 259.855L220.89 259.155C221.01 259.085 221.03 258.975 220.89 258.915L219.61 258.175C219.546 258.143 219.476 258.127 219.405 258.127C219.334 258.127 219.264 258.143 219.2 258.175L217.97 258.875C217.88 258.945 217.87 259.055 217.98 259.115Z" fill="#0B4F71"/>
<path d="M216.16 258.065L217.44 258.805C217.504 258.837 217.574 258.853 217.645 258.853C217.716 258.853 217.786 258.837 217.85 258.805L219.08 258.105C219.2 258.035 219.21 257.925 219.08 257.865L217.78 257.105C217.716 257.073 217.646 257.057 217.575 257.057C217.504 257.057 217.434 257.073 217.37 257.105L216.15 257.815C216.07 257.895 216.06 258.005 216.16 258.065Z" fill="#0B4F71"/>
<path d="M214.35 257.015L215.63 257.755C215.694 257.787 215.764 257.803 215.835 257.803C215.906 257.803 215.976 257.787 216.04 257.755L217.26 257.045C217.38 256.975 217.4 256.865 217.26 256.805L215.98 256.065C215.916 256.033 215.846 256.017 215.775 256.017C215.704 256.017 215.634 256.033 215.57 256.065L214.38 256.775C214.26 256.855 214.24 256.955 214.35 257.015Z" fill="#0B4F71"/>
<path d="M212.53 255.975L213.82 256.715C213.882 256.747 213.95 256.763 214.02 256.763C214.089 256.763 214.158 256.747 214.22 256.715L215.45 256.005C215.57 255.935 215.58 255.835 215.45 255.775L214.16 255.035C214.098 255.003 214.029 254.987 213.96 254.987C213.89 254.987 213.822 255.003 213.76 255.035L212.53 255.745C212.44 255.775 212.43 255.915 212.53 255.975Z" fill="#0B4F71"/>
<path d="M210.72 254.925L212 255.665C212.064 255.697 212.134 255.713 212.205 255.713C212.276 255.713 212.346 255.697 212.41 255.665L213.63 254.965C213.76 254.895 213.77 254.785 213.63 254.725L212.35 253.985C212.286 253.953 212.216 253.937 212.145 253.937C212.074 253.937 212.004 253.953 211.94 253.985L210.72 254.685C210.63 254.775 210.61 254.865 210.72 254.925Z" fill="#0B4F71"/>
<path d="M208.9 253.875L210.19 254.615C210.254 254.647 210.324 254.663 210.395 254.663C210.466 254.663 210.536 254.647 210.6 254.615L211.82 253.915C211.94 253.845 211.95 253.735 211.82 253.675L210.54 252.935C210.476 252.903 210.406 252.887 210.335 252.887C210.264 252.887 210.194 252.903 210.13 252.935L208.9 253.645C208.78 253.705 208.78 253.775 208.9 253.875Z" fill="#0B4F71"/>
<path d="M207.09 252.825L208.37 253.565C208.434 253.597 208.504 253.613 208.575 253.613C208.646 253.613 208.716 253.597 208.78 253.565L210.01 252.855C210.13 252.785 210.14 252.685 210.01 252.615L208.78 251.865C208.716 251.833 208.646 251.817 208.575 251.817C208.504 251.817 208.434 251.833 208.37 251.865L207.15 252.575C207 252.665 206.99 252.775 207.09 252.825Z" fill="#0B4F71"/>
<path d="M205.28 251.775L206.56 252.515C206.624 252.547 206.694 252.563 206.765 252.563C206.836 252.563 206.906 252.547 206.97 252.515L208.19 251.805C208.31 251.735 208.33 251.635 208.19 251.575L206.91 250.835C206.846 250.803 206.776 250.787 206.705 250.787C206.634 250.787 206.564 250.803 206.5 250.835L205.28 251.545C205.18 251.615 205.17 251.775 205.28 251.775Z" fill="#0B4F71"/>
<path d="M203.46 250.775L204.74 251.515C204.804 251.547 204.874 251.563 204.945 251.563C205.016 251.563 205.086 251.547 205.15 251.515L206.38 250.815C206.5 250.745 206.51 250.635 206.38 250.575L205.12 249.775C205.058 249.743 204.99 249.727 204.92 249.727C204.85 249.727 204.782 249.743 204.72 249.775L203.49 250.475C203.37 250.565 203.36 250.675 203.46 250.775Z" fill="#0B4F71"/>
<path d="M201.65 249.685L202.93 250.425C202.994 250.457 203.064 250.473 203.135 250.473C203.206 250.473 203.276 250.457 203.34 250.425L204.56 249.725C204.68 249.655 204.7 249.545 204.56 249.485L203.31 248.775C203.246 248.743 203.176 248.727 203.105 248.727C203.034 248.727 202.964 248.743 202.9 248.775L201.68 249.485C201.56 249.525 201.54 249.625 201.65 249.685Z" fill="#0B4F71"/>
<path d="M199.83 248.635L201.12 249.375C201.182 249.407 201.25 249.423 201.32 249.423C201.39 249.423 201.458 249.407 201.52 249.375L202.75 248.665C202.87 248.595 202.88 248.495 202.75 248.425L201.47 247.685C201.406 247.653 201.336 247.637 201.265 247.637C201.194 247.637 201.124 247.653 201.06 247.685L199.83 248.395C199.78 248.475 199.78 248.575 199.83 248.635Z" fill="#0B4F71"/>
<path d="M198.02 247.595L199.3 248.335C199.364 248.367 199.434 248.383 199.505 248.383C199.576 248.383 199.646 248.367 199.71 248.335L200.93 247.625C201.06 247.555 201.07 247.455 200.93 247.395L199.65 246.655C199.586 246.623 199.516 246.607 199.445 246.607C199.374 246.607 199.304 246.623 199.24 246.655L198.02 247.365C197.93 247.425 197.91 247.535 198.02 247.595Z" fill="#0B4F71"/>
<path d="M219.78 260.165L222.43 261.695C222.494 261.727 222.564 261.743 222.635 261.743C222.706 261.743 222.776 261.727 222.84 261.695L224.07 260.985C224.19 260.915 224.2 260.815 224.07 260.755L221.41 259.225C221.346 259.193 221.276 259.177 221.205 259.177C221.134 259.177 221.064 259.193 221 259.225L219.78 259.935C219.7 259.995 219.69 260.105 219.78 260.165Z" fill="#0B4F71"/>
<path d="M217.12 260.645L218.4 261.395C218.464 261.427 218.534 261.443 218.605 261.443C218.676 261.443 218.746 261.427 218.81 261.395L220.03 260.685C220.15 260.615 220.17 260.515 220.03 260.455L218.78 259.695C218.717 259.661 218.647 259.643 218.575 259.643C218.503 259.643 218.433 259.661 218.37 259.695L217.15 260.405C217.02 260.485 217.01 260.585 217.12 260.645Z" fill="#0B4F71"/>
<path d="M215.3 259.605L216.58 260.345C216.644 260.377 216.714 260.393 216.785 260.393C216.856 260.393 216.926 260.377 216.99 260.345L218.22 259.635C218.34 259.565 218.35 259.465 218.22 259.405L216.93 258.665C216.868 258.633 216.799 258.617 216.73 258.617C216.66 258.617 216.592 258.633 216.53 258.665L215.3 259.375C215.21 259.435 215.2 259.545 215.3 259.605Z" fill="#0B4F71"/>
<path d="M213.49 258.555L214.77 259.295C214.834 259.327 214.904 259.343 214.975 259.343C215.046 259.343 215.116 259.327 215.18 259.295L216.4 258.595C216.52 258.525 216.54 258.415 216.4 258.355L215.12 257.615C215.056 257.583 214.986 257.567 214.915 257.567C214.844 257.567 214.774 257.583 214.71 257.615L213.49 258.315C213.4 258.385 213.38 258.495 213.49 258.555Z" fill="#0B4F71"/>
<path d="M211.67 257.505L212.96 258.245C213.024 258.277 213.094 258.293 213.165 258.293C213.236 258.293 213.306 258.277 213.37 258.245L214.59 257.535C214.71 257.465 214.72 257.355 214.59 257.295L213.31 256.555C213.246 256.523 213.176 256.507 213.105 256.507C213.034 256.507 212.964 256.523 212.9 256.555L211.67 257.265C211.58 257.345 211.57 257.445 211.67 257.505Z" fill="#0B4F71"/>
<path d="M209.86 256.465L211.14 257.205C211.204 257.237 211.274 257.253 211.345 257.253C211.416 257.253 211.486 257.237 211.55 257.205L212.78 256.475C212.9 256.405 212.91 256.305 212.78 256.245L211.5 255.505C211.436 255.473 211.366 255.457 211.295 255.457C211.224 255.457 211.154 255.473 211.09 255.505L209.87 256.215C209.78 256.295 209.78 256.405 209.86 256.465Z" fill="#0B4F71"/>
<path d="M208.05 255.415L209.33 256.155C209.394 256.187 209.464 256.203 209.535 256.203C209.606 256.203 209.676 256.187 209.74 256.155L210.96 255.455C211.08 255.385 211.1 255.275 210.96 255.215L209.68 254.475C209.616 254.443 209.546 254.427 209.475 254.427C209.404 254.427 209.334 254.443 209.27 254.475L208.05 255.175C207.95 255.245 207.94 255.355 208.05 255.415Z" fill="#0B4F71"/>
<path d="M206.23 254.365L207.51 255.105C207.574 255.137 207.644 255.153 207.715 255.153C207.786 255.153 207.856 255.137 207.92 255.105L209.15 254.405C209.27 254.335 209.28 254.225 209.15 254.165L207.86 253.425C207.798 253.393 207.73 253.377 207.66 253.377C207.59 253.377 207.522 253.393 207.46 253.425L206.23 254.135C206.14 254.195 206.13 254.305 206.23 254.365Z" fill="#0B4F71"/>
<path d="M204.42 253.315L205.7 254.055C205.764 254.087 205.834 254.103 205.905 254.103C205.976 254.103 206.046 254.087 206.11 254.055L207.33 253.345C207.45 253.275 207.47 253.175 207.33 253.105L206.05 252.365C205.986 252.333 205.916 252.317 205.845 252.317C205.774 252.317 205.704 252.333 205.64 252.365L204.42 253.075C204.33 253.155 204.31 253.255 204.42 253.315Z" fill="#0B4F71"/>
<path d="M202.6 252.275L203.89 253.015C203.954 253.047 204.024 253.063 204.095 253.063C204.166 253.063 204.236 253.047 204.3 253.015L205.52 252.305C205.64 252.235 205.65 252.135 205.52 252.075L204.24 251.335C204.176 251.303 204.106 251.287 204.035 251.287C203.964 251.287 203.894 251.303 203.83 251.335L202.6 252.045C202.51 252.105 202.5 252.215 202.6 252.275Z" fill="#0B4F71"/>
<path d="M200.78 251.225L202.06 251.965C202.124 251.997 202.194 252.013 202.265 252.013C202.336 252.013 202.406 251.997 202.47 251.965L203.7 251.265C203.82 251.195 203.83 251.085 203.7 251.025L202.41 250.285C202.346 250.253 202.276 250.237 202.205 250.237C202.134 250.237 202.064 250.253 202 250.285L200.78 250.985C200.7 251.055 200.69 251.165 200.78 251.225Z" fill="#0B4F71"/>
<path d="M198.98 250.175L200.26 250.915C200.324 250.947 200.394 250.963 200.465 250.963C200.536 250.963 200.606 250.947 200.67 250.915L201.89 250.205C202.01 250.135 202.03 250.025 201.89 249.965L200.61 249.225C200.546 249.193 200.476 249.177 200.405 249.177C200.334 249.177 200.264 249.193 200.2 249.225L198.98 249.935C198.88 250.015 198.87 250.115 198.98 250.175Z" fill="#0B4F71"/>
<path d="M194.92 247.835L198.45 249.835C198.512 249.867 198.58 249.883 198.65 249.883C198.72 249.883 198.788 249.867 198.85 249.835L200.08 249.125C200.2 249.055 200.21 248.955 200.08 248.895L196.55 246.895C196.486 246.863 196.416 246.847 196.345 246.847C196.274 246.847 196.204 246.863 196.14 246.895L194.92 247.595C194.83 247.665 194.78 247.775 194.92 247.835Z" fill="#0B4F71"/>
<path d="M218.93 261.695L220.68 262.695C220.744 262.725 220.814 262.74 220.885 262.74C220.956 262.74 221.026 262.725 221.09 262.695L222.31 261.985C222.43 261.915 222.45 261.805 222.31 261.745L220.56 260.745C220.496 260.713 220.426 260.697 220.355 260.697C220.284 260.697 220.214 260.713 220.15 260.745L218.93 261.455C218.84 261.535 218.78 261.635 218.93 261.695Z" fill="#0B4F71"/>
<path d="M232.23 258.095L203.12 241.275V218.385L203.34 217.865L203.58 217.745C203.884 217.569 204.229 217.477 204.58 217.477C204.931 217.477 205.276 217.569 205.58 217.745L232.22 233.135C232.525 233.311 232.778 233.565 232.954 233.87C233.13 234.176 233.221 234.523 233.22 234.875V256.355C233.05 257.465 232.85 257.775 232.23 258.095Z" fill="#E5E5E5"/>
<path d="M229.56 235.905L203.12 219.145V218.385L203.34 217.865L203.58 217.745C203.884 217.569 204.229 217.477 204.58 217.477C204.931 217.477 205.276 217.569 205.58 217.745L232.22 233.135C232.543 233.324 232.809 233.597 232.99 233.925L229.56 235.905Z" fill="#E5E5E5"/>
<path d="M203.78 217.865L231.78 234.005C231.928 234.093 232.05 234.217 232.136 234.366C232.222 234.515 232.268 234.683 232.27 234.855V258.095L203.12 241.275V218.275C203.118 218.196 203.136 218.119 203.174 218.05C203.211 217.98 203.266 217.922 203.332 217.881C203.399 217.839 203.475 217.816 203.554 217.813C203.633 217.81 203.71 217.828 203.78 217.865Z" fill="#DCEEFF"/>
<path d="M203.78 217.865L231.78 234.005C231.928 234.093 232.05 234.217 232.136 234.366C232.222 234.515 232.268 234.683 232.27 234.855V258.095L203.12 241.275V218.275C203.118 218.196 203.136 218.119 203.174 218.05C203.211 217.98 203.266 217.922 203.332 217.881C203.399 217.839 203.475 217.816 203.554 217.813C203.633 217.81 203.71 217.828 203.78 217.865Z" fill="#F4F4F4"/>
<path d="M232.23 258.085V257.265L203.12 240.445V241.275L232.23 258.085Z" fill="#DBDBDB"/>
<path d="M203.87 240.055V219.065L204.23 219.275V239.885L203.87 240.055Z" fill="#0B4F71"/>
<path d="M204.23 219.275V239.885L231.3 255.475V234.905L204.23 219.275Z" fill="#0B4F71"/>
<path d="M203.87 240.055L231.3 255.885V255.475L204.23 239.885L203.87 240.055Z" fill="#0B4F71"/>
<path d="M172.52 214.225C171.83 215.945 173.59 218.065 178.28 219.535C182.97 221.005 183.4 219.115 183.4 219.115C186.526 220.515 189.574 222.084 192.53 223.815C195.34 225.815 196.59 231.485 196.97 241.105C197.41 252.245 197.45 268.765 197.08 271.615C197.08 271.615 191.81 276.855 185.08 276.305C178.35 275.755 167 269.775 164.25 265.185C164.32 255.425 165.47 253.835 163.89 248.185C160.27 235.315 158.36 230.035 160.12 221.485C161.57 214.435 163.6 213.555 166.39 213.625C168.442 213.716 170.489 213.917 172.52 214.225Z" fill="#F4F4F4"/>
<path d="M208.05 253.045C202.53 254.435 201.23 250.955 200.5 248.045C198.78 241.075 197.78 234.775 196.48 230.775C194.94 226.095 193.32 225.345 191.04 224.435C188.37 223.365 186.04 225.625 186.97 231.575C188.02 238.625 189.4 243.575 192.03 251.905C192.72 254.085 194.26 257.955 196.57 259.825C199.43 262.125 203.72 262.025 210.23 260.415C213 259.725 216.04 258.065 221.23 255.615C222.64 254.965 223.74 254.525 226.44 253.265C229.151 252.045 231.528 250.189 233.37 247.855C234.79 245.805 234.98 244.855 234.69 244.375C234.4 243.895 233.69 243.915 232.93 244.775C231.829 246.236 230.474 247.486 228.93 248.465C228.93 248.465 230.67 246.655 231.62 245.465C232.492 244.443 233.218 243.305 233.78 242.085C234.28 240.895 233.25 239.265 232.47 240.085C231.69 240.905 231.31 241.815 229.88 243.525C229.128 244.438 228.268 245.257 227.32 245.965C228.208 244.768 228.997 243.5 229.68 242.175C230.293 241.135 230.591 239.941 230.54 238.735C230.54 238.115 229.62 237.375 228.79 238.555C227.96 239.735 227.56 241.285 225.79 243.095C224.53 244.405 223.46 245.155 223.42 244.795C223.38 244.435 224.19 243.705 224.64 242.185C225.09 240.665 224.64 239.045 223.79 238.865C222.94 238.685 223.11 238.735 222.44 240.165C221.77 241.595 220.78 242.675 219.95 244.775C219.529 246.246 218.749 247.59 217.68 248.685C216.32 250.125 213.31 251.775 208.05 253.045Z" fill="#FFCEA9"/>
<path d="M189 223.505C192.69 222.955 195.3 224.615 196.93 230.215C198.56 235.815 199.7 240.405 199.7 240.405C198.237 242.515 196.022 243.985 193.51 244.515C189.1 245.575 187.51 243.465 187.51 243.465C187.51 243.465 186.28 237.605 185.51 233.615C184.74 229.625 184.43 224.175 189 223.505Z" fill="#EDEDED"/>
<path d="M190.78 194.855C190.78 194.855 196.61 185.985 183.97 184.185C174.85 182.875 168.97 188.735 168.32 195.095C167.67 201.165 171.41 207.475 174.11 209.975C175.43 210.445 178.26 210.715 181.99 209.025C182.141 207.363 182.198 205.693 182.16 204.025C182.16 204.025 177.78 194.695 190.78 194.855Z" fill="#1D3A58"/>
</svg>
