<svg width="559" viewBox="0 0 559 382" fill="none" xmlns="http://www.w3.org/2000/svg">
<g opacity="0.2">
<path fill-rule="evenodd" clip-rule="evenodd" d="M468.008 49.1186V43.34H465.119V49.1186H459.34V52.0079H465.119V57.7866H468.008V52.0079H473.787V49.1186H468.008ZM468.008 5.77866V0H465.119V5.77866H459.34V8.66799H465.119V14.4467H468.008V8.66799H473.787V5.77866H468.008ZM424.668 49.1186V43.34H421.779V49.1186H416V52.0079H421.779V57.7866H424.668V52.0079H430.447V49.1186H424.668ZM424.668 5.77866V0H421.779V5.77866H416V8.66799H421.779V14.4467H424.668V8.66799H430.447V5.77866H424.668Z" fill="#2D83AE"/>
<path fill-rule="evenodd" clip-rule="evenodd" d="M552.221 49.1186V43.34H549.332V49.1186H543.553V52.0079H549.332V57.7866H552.221V52.0079H558V49.1186H552.221ZM552.221 5.77866V0H549.332V5.77866H543.553V8.66799H549.332V14.4467H552.221V8.66799H558V5.77866H552.221ZM508.881 49.1186V43.34H505.992V49.1186H500.213V52.0079H505.992V57.7866H508.881V52.0079H514.66V49.1186H508.881ZM508.881 5.77866V0H505.992V5.77866H500.213V8.66799H505.992V14.4467H508.881V8.66799H514.66V5.77866H508.881Z" fill="#2D83AE"/>
<path fill-rule="evenodd" clip-rule="evenodd" d="M468.008 133.332V127.553H465.119V133.332H459.34V136.221H465.119V142H468.008V136.221H473.787V133.332H468.008ZM468.008 89.992V84.2134H465.119V89.992H459.34V92.8814H465.119V98.66H468.008V92.8814H473.787V89.992H468.008ZM424.668 133.332V127.553H421.779V133.332H416V136.221H421.779V142H424.668V136.221H430.447V133.332H424.668ZM424.668 89.992V84.2134H421.779V89.992H416V92.8814H421.779V98.66H424.668V92.8814H430.447V89.992H424.668Z" fill="#2D83AE"/>
<path fill-rule="evenodd" clip-rule="evenodd" d="M552.221 133.332V127.553H549.332V133.332H543.553V136.221H549.332V142H552.221V136.221H558V133.332H552.221ZM552.221 89.992V84.2134H549.332V89.992H543.553V92.8814H549.332V98.66H552.221V92.8814H558V89.992H552.221ZM508.881 133.332V127.553H505.992V133.332H500.213V136.221H505.992V142H508.881V136.221H514.66V133.332H508.881ZM508.881 89.992V84.2134H505.992V89.992H500.213V92.8814H505.992V98.66H508.881V92.8814H514.66V89.992H508.881Z" fill="#2D83AE"/>
</g>
<g opacity="0.2">
<path fill-rule="evenodd" clip-rule="evenodd" d="M52.0079 289.119V283.34H49.1186V289.119H43.3399V292.008H49.1186V297.787H52.0079V292.008H57.7866V289.119H52.0079ZM52.0079 245.779V240H49.1186V245.779H43.3399V248.668H49.1186V254.447H52.0079V248.668H57.7866V245.779H52.0079ZM8.66798 289.119V283.34H5.77866V289.119H0V292.008H5.77866V297.787H8.66798V292.008H14.4466V289.119H8.66798ZM8.66798 245.779V240H5.77866V245.779H0V248.668H5.77866V254.447H8.66798V248.668H14.4466V245.779H8.66798Z" fill="#2D83AE"/>
<path fill-rule="evenodd" clip-rule="evenodd" d="M136.221 289.119V283.34H133.332V289.119H127.553V292.008H133.332V297.787H136.221V292.008H142V289.119H136.221ZM136.221 245.779V240H133.332V245.779H127.553V248.668H133.332V254.447H136.221V248.668H142V245.779H136.221ZM92.8814 289.119V283.34H89.992V289.119H84.2134V292.008H89.992V297.787H92.8814V292.008H98.66V289.119H92.8814ZM92.8814 245.779V240H89.992V245.779H84.2134V248.668H89.992V254.447H92.8814V248.668H98.66V245.779H92.8814Z" fill="#2D83AE"/>
<path fill-rule="evenodd" clip-rule="evenodd" d="M52.0079 373.332V367.553H49.1186V373.332H43.3399V376.221H49.1186V382H52.0079V376.221H57.7866V373.332H52.0079ZM52.0079 329.992V324.213H49.1186V329.992H43.3399V332.881H49.1186V338.66H52.0079V332.881H57.7866V329.992H52.0079ZM8.66798 373.332V367.553H5.77866V373.332H0V376.221H5.77866V382H8.66798V376.221H14.4466V373.332H8.66798ZM8.66798 329.992V324.213H5.77866V329.992H0V332.881H5.77866V338.66H8.66798V332.881H14.4466V329.992H8.66798Z" fill="#2D83AE"/>
<path fill-rule="evenodd" clip-rule="evenodd" d="M136.221 373.332V367.553H133.332V373.332H127.553V376.221H133.332V382H136.221V376.221H142V373.332H136.221ZM136.221 329.992V324.213H133.332V329.992H127.553V332.881H133.332V338.66H136.221V332.881H142V329.992H136.221ZM92.8814 373.332V367.553H89.992V373.332H84.2134V376.221H89.992V382H92.8814V376.221H98.66V373.332H92.8814ZM92.8814 329.992V324.213H89.992V329.992H84.2134V332.881H89.992V338.66H92.8814V332.881H98.66V329.992H92.8814Z" fill="#2D83AE"/>
</g>
<path d="M558.243 146.504C558.243 210.017 436.743 396.347 389.242 302.847C341.742 209.347 182.245 374.004 90.7441 374.004C-0.756851 374.004 108.244 123.656 190.244 146.504C351.744 191.504 558.243 82.9914 558.243 146.504Z" fill="#F5F7FA" fill-opacity="0.5"/>
<path opacity="0.4" d="M306.62 280.83L263.993 256.218C260.918 254.446 261.306 251.341 264.857 249.298L292.472 233.349L346.251 264.354L318.637 280.303C315.092 282.383 309.725 282.603 306.62 280.83Z" fill="#D6D8E5"/>
<path d="M309.761 279L267.135 254.388C264.059 252.616 264.447 249.511 267.999 247.468L295.635 231.518L349.385 262.553L321.771 278.502C318.205 280.552 312.837 280.772 309.761 279Z" fill="#B1B4C4"/>
<path d="M349.371 262.56V260.927L346.888 262.362L349.371 262.56Z" fill="#B1B4C4"/>
<path d="M265.062 251.451V249.803L267.611 250.858L265.062 251.451Z" fill="#B1B4C4"/>
<path d="M309.761 277.367L267.135 252.762C264.059 250.982 264.447 247.885 267.999 245.834L295.635 229.893L349.385 260.927L321.771 276.869C318.205 278.919 312.837 279.146 309.761 277.367Z" fill="#D6D8E5"/>
<path d="M295.76 229.966L289.103 207.895L343.446 239.061L349.371 260.927L295.76 229.966Z" fill="#9EA1AF"/>
<path d="M347.789 261.835L349.363 260.927L347.027 259.06L347.789 261.835Z" fill="#9EA1AF"/>
<path d="M294.039 230.793L287.39 208.722L341.733 239.896L347.789 261.835L294.039 230.793Z" fill="#B1B4C4"/>
<path d="M431.987 299.035L221.674 177.593C218.745 175.894 216.329 171.317 216.329 167.384V4.67756C216.329 0.745176 218.723 -1.06357 221.674 0.642655L431.987 122.085C434.916 123.784 437.333 128.354 437.333 132.286V295C437.333 298.933 434.938 300.741 431.987 299.035Z" fill="#C4C7D6"/>
<path d="M433.071 300.712L435.4 299.372L434.396 292.459L433.071 300.712Z" fill="#C4C7D6"/>
<path d="M215.926 1.63867L218.218 0.320557L221.513 2.19521C221.513 2.19521 218.005 2.72978 217.918 2.71514C217.83 2.70049 215.926 1.63867 215.926 1.63867Z" fill="#B1B4C4"/>
<path d="M430.061 300.148L219.712 178.676C216.783 176.977 214.373 172.408 214.373 168.468V5.7906C214.373 1.85821 216.768 0.049463 219.712 1.75569L430.061 123.198C432.99 124.897 435.4 129.467 435.4 133.406V296.113C435.4 300.046 433.012 301.854 430.061 300.148Z" fill="#E4E7F2"/>
<path d="M429.688 300.361L219.346 178.918C216.417 177.212 214 172.642 214 168.71V6.003C214 2.07061 216.395 0.261865 219.346 1.96809L429.688 123.411C432.617 125.11 435.034 129.679 435.034 133.611V296.326C435.034 300.236 432.639 302.067 429.688 300.361Z" fill="#D6D8E5"/>
<path d="M432.141 290.467L216.673 166.066L216.783 6.65474C216.783 5.02174 217.932 4.36268 219.346 5.19016L429.688 126.618C430.433 127.105 431.053 127.76 431.499 128.531C431.944 129.302 432.202 130.167 432.251 131.056L432.141 290.467Z" fill="white"/>
<path d="M385.412 204.838L234.588 119.178C234.104 118.839 233.708 118.393 233.432 117.875C233.156 117.358 233.008 116.784 233 116.199V67.3708C233 66.2204 233.71 65.6863 234.588 66.1896L385.412 151.799C385.895 152.141 386.29 152.589 386.566 153.108C386.842 153.627 386.99 154.202 387 154.788V203.616C387 204.766 386.29 205.29 385.412 204.838Z" fill="#E9EAF2"/>
<path d="M387 224L230 134.711V130L387 219.299V224Z" fill="#E9EAF2"/>
<path d="M371 224L230 143.78V139L371 219.22V224Z" fill="#E9EAF2"/>
<path d="M359.84 227.18L230 152.21V147.44L359.84 222.4V227.18Z" fill="#E9EAF2"/>
<path d="M406.714 150.842L234.266 50.8343C233.878 50.5507 233.561 50.1799 233.341 49.7514C233.122 49.323 233.005 48.8489 233 48.367V41.1226C233 40.1726 233.572 39.7557 234.286 40.1452L406.714 140.16C407.105 140.442 407.425 140.812 407.649 141.24C407.872 141.669 407.992 142.144 408 142.627V149.865C408 150.822 407.422 151.259 406.714 150.842Z" fill="#E9EAF2"/>
<path d="M406.656 150.831L395 144.103V133L406.656 139.72C407.065 140.013 407.4 140.398 407.633 140.843C407.866 141.288 407.992 141.782 408 142.285V149.815C408 150.803 407.396 151.278 406.656 150.831Z" fill="#2D83AE"/>
<path d="M403.929 145.938L402.825 144.051C403.002 143.871 403.137 143.655 403.223 143.419C403.309 143.182 403.342 142.93 403.322 142.679C403.279 141.881 403.047 141.104 402.645 140.411C402.244 139.719 401.684 139.13 401.012 138.693C399.729 137.958 398.694 138.555 398.694 140.024C398.735 140.831 398.969 141.617 399.377 142.317C399.785 143.016 400.355 143.608 401.039 144.045C401.432 144.307 401.912 144.406 402.377 144.319L403.488 146.233C403.619 146.453 403.826 146.576 403.957 146.501C404.088 146.425 404.053 146.165 403.929 145.938ZM402.294 143.441C402.254 143.427 402.211 143.427 402.17 143.441C402.139 143.463 402.114 143.494 402.101 143.53C401.922 143.577 401.735 143.586 401.552 143.557C401.369 143.527 401.194 143.46 401.039 143.358C400.533 143.031 400.112 142.589 399.81 142.07C399.508 141.55 399.334 140.966 399.301 140.367C399.301 139.262 400.081 138.816 401.039 139.372C401.544 139.7 401.964 140.141 402.265 140.661C402.566 141.181 402.739 141.764 402.77 142.363C402.785 142.568 402.75 142.773 402.667 142.961C402.584 143.149 402.456 143.313 402.294 143.441Z" fill="white"/>
</svg>
